<?xml version="1.0" encoding="utf-8"?>
<!-- Generator: Adobe Illustrator 16.0.0, SVG Export Plug-In . SVG Version: 6.00 Build 0)  -->
<!DOCTYPE svg PUBLIC "-//W3C//DTD SVG 1.1//EN" "http://www.w3.org/Graphics/SVG/1.1/DTD/svg11.dtd">
<svg version="1.1" id="Layer_1" xmlns="http://www.w3.org/2000/svg" xmlns:xlink="http://www.w3.org/1999/xlink" x="0px" y="0px"
	 width="3437.31px" height="2025px" viewBox="0 0 3437.31 2025" enable-background="new 0 0 3437.31 2025" xml:space="preserve">
<rect fill="#EAEDF7" width="3435.693" height="2025"/>
<g>
	<g>
		<path fill="#8296C9" d="M2931.922,793.065l-0.666-116.96l0.666,0.666l-53.889,0.246l-0.729,0.003l-0.162-0.719
			c-7.225-32.088-20.303-62.809-38.351-90.24l-0.604-0.919l0.783-0.791l38.277-38.628v2.281l-82.983-82.423h2.842l-38.614,38.87
			l-1.237,1.245l-1.493-0.95c-27.459-17.464-58.022-30.004-89.831-36.753l-1.925-0.408l-0.004-1.98l-0.131-54.978l2.573,2.573
			l-116.96,0.252l2.826-2.826l0.078,54.978l0.004,2.343l-2.297,0.497c-31.725,6.867-62.18,19.475-89.467,37.022l-2.059,1.323
			l-1.738-1.734l-38.798-38.686h4.419l-82.646,82.76v-4.532l38.471,38.434l1.853,1.851l-1.429,2.196
			c-17.787,27.336-30.604,57.886-37.604,89.732l-0.565,2.57l-2.636,0.001l-53.889,0.025l3.304-3.303l-0.057,116.96l-3.247-3.247
			l53.282,0.025l2.618,0.001l0.534,2.559c6.729,32.195,19.379,63.137,37.12,90.841l1.379,2.153l-1.808,1.804l-37.385,37.312v-4.416
			l82.584,82.822h-4.177l37.112-37.006l1.656-1.651l1.949,1.274c27.731,18.121,58.793,31.121,91.179,38.176l2.136,0.465
			l-0.006,2.172l-0.125,52.192l-2.572-2.572l116.96,0.279l-2.293,2.293l0.159-52.192l0.006-1.73l1.68-0.355
			c32.497-6.871,63.721-19.766,91.647-37.824l1.23-0.796l1.024,1.032l36.93,37.189h-2.286l83.084-82.323v1.525l-37.177-37.52
			l-0.477-0.481l0.363-0.561c18.045-27.849,30.942-59.024,37.982-91.509l0.057-0.263l0.265,0.001L2931.922,793.065z
			 M2931.922,793.065l-53.282,0.329l0.321-0.261c-3.321,16.324-8.126,32.359-14.383,47.817
			c-6.244,15.462-13.898,30.362-22.835,44.458l-0.112-1.042l37.521,37.177l0.763,0.755l-0.763,0.77l-82.323,83.083l-1.134,1.145
			l-1.152-1.145l-37.188-36.93l2.254,0.236c-28.17,18.482-59.755,31.781-92.714,38.978l1.685-2.085l0.159,52.192l0.007,2.287
			l-2.3,0.006l-116.96,0.279l-2.566,0.006l-0.006-2.578l-0.125-52.192l2.13,2.637c-16.528-3.525-32.746-8.542-48.358-15.032
			c-15.616-6.48-30.639-14.391-44.825-23.593l3.604-0.377l-37.006,37.113l-2.082,2.089l-2.096-2.089l-82.822-82.583l-2.209-2.203
			l2.209-2.213l37.313-37.385l-0.428,3.956c-18.181-28.331-31.162-59.99-38.08-92.942l3.152,2.56l-53.282,0.025l-3.245,0.002
			l-0.002-3.249l-0.056-116.96l-0.002-3.305l3.305,0.001l53.889,0.025l-3.201,2.571c7.201-32.608,20.357-63.879,38.591-91.844
			l0.423,4.047l-38.434-38.471l-2.268-2.269l2.268-2.264l82.76-82.646l2.214-2.211l2.205,2.211l38.686,38.797l-3.796-0.411
			c27.947-17.859,59.11-30.651,91.53-37.571l-2.293,2.839l0.078-54.978l0.005-2.832l2.821,0.006l116.96,0.253l2.579,0.005
			l-0.006,2.568l-0.131,54.978l-1.929-2.388c32.337,7.038,63.391,19.898,91.166,37.841l-2.729,0.295l38.87-38.614l1.431-1.421
			l1.411,1.421l82.423,82.983l1.142,1.15l-1.142,1.131l-38.629,38.277l0.179-1.709c17.973,27.869,30.867,58.97,37.845,91.335
			l-0.891-0.715l53.889,0.247l0.669,0.003l-0.003,0.663L2931.922,793.065z"/>
		<path fill="#8296C9" d="M2607.965,836.67c-26.406,0.176-52.641-10.563-71.524-29.167c-9.449-9.272-17.172-20.37-22.426-32.609
			c-5.293-12.215-8.163-25.519-8.385-38.915c-0.215-13.391,2.185-26.883,7.171-39.418c4.992-12.524,12.471-24.105,21.959-33.786
			c9.5-9.657,20.908-17.499,33.451-22.767c12.545-5.258,26.147-7.975,39.754-8.021c13.606,0.033,27.21,2.76,39.755,8.016
			c12.554,5.249,23.956,13.107,33.46,22.761c9.499,9.674,16.97,21.265,21.965,33.79c4.993,12.535,7.387,26.033,7.172,39.425
			c-0.225,13.398-3.094,26.704-8.393,38.919c-5.256,12.239-12.979,23.34-22.432,32.608
			C2660.606,826.111,2634.369,836.845,2607.965,836.67z M2607.965,836.67c13.183-0.047,26.345-2.679,38.488-7.77
			c12.146-5.093,23.186-12.697,32.383-22.05c9.188-9.375,16.418-20.596,21.244-32.717c4.819-12.134,7.131-25.188,6.916-38.155
			c-0.225-12.972-3.012-25.834-8.137-37.648c-5.087-11.836-12.568-22.566-21.71-31.537c-18.285-17.994-43.634-28.367-69.185-28.207
			c-25.548-0.164-50.909,10.199-69.195,28.196c-9.153,8.963-16.627,19.704-21.717,31.54c-5.132,11.814-7.913,24.681-8.137,37.655
			c-0.213,12.969,2.098,26.025,6.923,38.159c4.828,12.122,12.058,23.345,21.25,32.717c9.199,9.352,20.239,16.958,32.387,22.047
			C2581.619,833.992,2594.782,836.624,2607.965,836.67z"/>
	</g>
</g>
<path fill="#B4C0DF" d="M337.563,1822.521c6.731-0.245-3.707-313.539-3.969-335.778c-3.173-269.261-25.155-614.007,198.9-809.188
	c199.972-174.202,498.512-164.342,739.803-100.004c231.271,61.666,440.255,170.106,663.79,251.735
	c204.275,74.596,416.345,128.019,631.639,158.758c170.457,24.338,352.242,36.553,459.608,192.592
	c76.662,111.419,79.094,238.773,99.787,366.967c2.869,17.772,46.521,269.357,37.734,269.374
	C3164.746,1816.976,337.57,1822.521,337.563,1822.521z"/>
<g>
	<g>
		<g>
			<defs>
				<path id="XMLID_114_" d="M2454.054,1162.538H896.475c-23.089,0-41.807-18.718-41.807-41.807V238.701
					c0-23.089,18.718-41.807,41.807-41.807h1557.579c23.089,0,41.808,18.718,41.808,41.807v882.031
					C2495.861,1143.82,2477.143,1162.538,2454.054,1162.538z"/>
			</defs>
			<use xlink:href="#XMLID_114_"  overflow="visible" fill="#CAD2EA"/>
			<clipPath id="XMLID_2_">
				<use xlink:href="#XMLID_114_"  overflow="visible"/>
			</clipPath>
			<rect x="825.375" y="155.67" clip-path="url(#XMLID_2_)" fill="#F9FBFF" width="1701.521" height="117.343"/>
		</g>
		<g>
			<circle fill="#343766" cx="914.455" cy="237.125" r="14.657"/>
			<circle fill="#8296C9" cx="969.399" cy="237.125" r="14.657"/>
			<circle fill="#8296C9" cx="1024.344" cy="237.125" r="14.657"/>
		</g>
	</g>
	<g>
		<rect x="960.615" y="386.107" fill="#EAEDF7" width="32.441" height="260.316"/>
		<rect x="960.615" y="470.578" fill="#B4C0DF" width="32.441" height="175.845"/>
		<rect x="1041.128" y="386.107" fill="#EAEDF7" width="32.441" height="260.316"/>
		<rect x="1041.128" y="545.429" fill="#B4C0DF" width="32.441" height="100.994"/>
		<rect x="1121.641" y="386.107" fill="#EAEDF7" width="32.441" height="260.316"/>
		<rect x="1121.641" y="398.802" fill="#8296C9" width="32.441" height="247.621"/>
		<rect x="1202.153" y="386.107" fill="#EAEDF7" width="32.441" height="260.316"/>
		<rect x="1202.153" y="595.926" fill="#B4C0DF" width="32.441" height="50.497"/>
		<rect x="1282.666" y="386.107" fill="#EAEDF7" width="32.441" height="260.316"/>
		<rect x="1282.666" y="493.776" fill="#B4C0DF" width="32.441" height="152.647"/>
		<rect x="1363.178" y="386.107" fill="#EAEDF7" width="32.441" height="260.316"/>
		<rect x="1363.178" y="428.193" fill="#B4C0DF" width="32.441" height="218.229"/>
	</g>
	<g>
		<path fill="#B4C0DF" d="M1570.529,485.32h-88.725c-2.896,0-5.245-2.348-5.245-5.244v-88.725c0-2.896,2.348-5.244,5.245-5.244
			h88.725c2.896,0,5.244,2.348,5.244,5.244v88.725C1575.773,482.972,1573.426,485.32,1570.529,485.32z"/>
		<rect x="1609.855" y="386.107" fill="#E6EAF4" width="458.891" height="17.93"/>
		<rect x="1609.855" y="426.749" fill="#E6EAF4" width="458.891" height="17.93"/>
		<rect x="1609.855" y="467.391" fill="#E6EAF4" width="234.746" height="17.93"/>
	</g>
	<g>
		<path fill="#B4C0DF" d="M1570.529,645.532h-88.725c-2.896,0-5.245-2.348-5.245-5.244v-88.725c0-2.896,2.348-5.244,5.245-5.244
			h88.725c2.896,0,5.244,2.348,5.244,5.244v88.725C1575.773,643.185,1573.426,645.532,1570.529,645.532z"/>
		<rect x="1609.855" y="546.319" fill="#E6EAF4" width="458.891" height="17.93"/>
		<rect x="1609.855" y="586.961" fill="#E6EAF4" width="458.891" height="17.93"/>
		<rect x="1609.855" y="627.603" fill="#E6EAF4" width="234.746" height="17.93"/>
	</g>
	<path fill="#B4C0DF" d="M2189.094,485.766h-88.726c-2.896,0-5.244-2.348-5.244-5.245v-88.725c0-2.896,2.349-5.244,5.244-5.244
		h88.726c2.896,0,5.244,2.348,5.244,5.244v88.725C2194.338,483.417,2191.989,485.766,2189.094,485.766z"/>
	<rect x="2228.419" y="386.552" fill="#E6EAF4" width="162.798" height="17.93"/>
	<rect x="2228.419" y="427.194" fill="#E6EAF4" width="162.798" height="17.93"/>
	<rect x="2228.419" y="467.836" fill="#E6EAF4" width="83.279" height="17.93"/>
	<path fill="#B4C0DF" d="M2189.094,645.978h-88.726c-2.896,0-5.244-2.348-5.244-5.244v-88.725c0-2.896,2.349-5.244,5.244-5.244
		h88.726c2.896,0,5.244,2.348,5.244,5.244v88.725C2194.338,643.63,2191.989,645.978,2189.094,645.978z"/>
	<rect x="2228.419" y="546.764" fill="#E6EAF4" width="162.798" height="17.93"/>
	<rect x="2228.419" y="587.406" fill="#E6EAF4" width="162.798" height="17.93"/>
	<rect x="2228.419" y="628.048" fill="#E6EAF4" width="83.279" height="17.93"/>
	<path fill="#B4C0DF" d="M2379.879,1110.75H971.953c-6.261,0-11.337-5.076-11.337-11.338V720.688
		c0-6.262,5.076-11.338,11.337-11.338h1407.926c6.262,0,11.338,5.076,11.338,11.338v378.725
		C2391.217,1105.674,2386.141,1110.75,2379.879,1110.75z"/>
	<g>
		<g>
			<g>
				<g>
					<defs>
						<path id="XMLID_91_" d="M1222.118,902.049h-212.447c-3.586,0-6.493-2.907-6.493-6.494V769.388
							c0-3.586,2.907-6.493,6.493-6.493h212.447c3.586,0,6.494,2.907,6.494,6.493v126.167
							C1228.612,899.142,1225.705,902.049,1222.118,902.049z"/>
					</defs>
					<use xlink:href="#XMLID_91_"  overflow="visible" fill="#CAD2EA"/>
					<clipPath id="XMLID_3_">
						<use xlink:href="#XMLID_91_"  overflow="visible"/>
					</clipPath>
					<polygon clip-path="url(#XMLID_3_)" fill="#E6EAF4" points="994.3,875.624 1079.479,815.153 1149.704,873.023 
						1182.502,843.763 1234.516,883.959 1234.516,915.585 994.95,915.585 					"/>
					<circle clip-path="url(#XMLID_3_)" fill="#E6EAF4" cx="1142.373" cy="801.583" r="15.796"/>
				</g>
			</g>
			<g>
				<g>
					<defs>
						<path id="XMLID_115_" d="M1222.118,1057.205h-212.447c-3.586,0-6.493-2.907-6.493-6.493V924.544
							c0-3.586,2.907-6.493,6.493-6.493h212.447c3.586,0,6.494,2.907,6.494,6.493v126.167
							C1228.612,1054.298,1225.705,1057.205,1222.118,1057.205z"/>
					</defs>
					<use xlink:href="#XMLID_115_"  overflow="visible" fill="#CAD2EA"/>
					<clipPath id="XMLID_4_">
						<use xlink:href="#XMLID_115_"  overflow="visible"/>
					</clipPath>
					<polygon clip-path="url(#XMLID_4_)" fill="#E6EAF4" points="994.3,1030.78 1079.479,970.309 1149.704,1028.18 
						1182.502,998.919 1234.516,1039.115 1234.516,1070.741 994.95,1070.741 					"/>
					<circle clip-path="url(#XMLID_4_)" fill="#E6EAF4" cx="1142.373" cy="956.739" r="15.796"/>
				</g>
			</g>
		</g>
		<g>
			<g>
				<rect x="1258.733" y="782.157" fill="#CAD2EA" width="393.306" height="15.367"/>
				<rect x="1258.733" y="816.991" fill="#CAD2EA" width="393.306" height="15.367"/>
				<rect x="1258.733" y="851.824" fill="#CAD2EA" width="201.195" height="15.367"/>
			</g>
			<g>
				<rect x="1258.733" y="938.633" fill="#CAD2EA" width="393.306" height="15.367"/>
				<rect x="1258.733" y="973.466" fill="#CAD2EA" width="393.306" height="15.367"/>
				<rect x="1258.733" y="1008.299" fill="#CAD2EA" width="201.195" height="15.367"/>
			</g>
		</g>
	</g>
	<g>
		<g>
			<g>
				<g>
					<defs>
						<path id="XMLID_140_" d="M1917.43,902.049h-212.447c-3.586,0-6.493-2.907-6.493-6.494V769.388
							c0-3.586,2.907-6.493,6.493-6.493h212.447c3.586,0,6.494,2.907,6.494,6.493v126.167
							C1923.924,899.142,1921.016,902.049,1917.43,902.049z"/>
					</defs>
					<use xlink:href="#XMLID_140_"  overflow="visible" fill="#CAD2EA"/>
					<clipPath id="XMLID_5_">
						<use xlink:href="#XMLID_140_"  overflow="visible"/>
					</clipPath>
					<polygon clip-path="url(#XMLID_5_)" fill="#E6EAF4" points="1689.611,875.624 1774.791,815.153 1845.016,873.023 
						1877.813,843.763 1929.827,883.959 1929.827,915.585 1690.262,915.585 					"/>
					<circle clip-path="url(#XMLID_5_)" fill="#E6EAF4" cx="1837.684" cy="801.583" r="15.796"/>
				</g>
			</g>
			<g>
				<g>
					<defs>
						<path id="XMLID_139_" d="M1917.43,1057.205h-212.447c-3.586,0-6.493-2.907-6.493-6.493V924.544
							c0-3.586,2.907-6.493,6.493-6.493h212.447c3.586,0,6.494,2.907,6.494,6.493v126.167
							C1923.924,1054.298,1921.016,1057.205,1917.43,1057.205z"/>
					</defs>
					<use xlink:href="#XMLID_139_"  overflow="visible" fill="#CAD2EA"/>
					<clipPath id="XMLID_6_">
						<use xlink:href="#XMLID_139_"  overflow="visible"/>
					</clipPath>
					<polygon clip-path="url(#XMLID_6_)" fill="#E6EAF4" points="1689.611,1030.78 1774.791,970.309 1845.016,1028.18 
						1877.813,998.919 1929.827,1039.115 1929.827,1070.741 1690.262,1070.741 					"/>
					<circle clip-path="url(#XMLID_6_)" fill="#E6EAF4" cx="1837.684" cy="956.739" r="15.796"/>
				</g>
			</g>
		</g>
		<g>
			<g>
				<rect x="1954.045" y="782.157" fill="#CAD2EA" width="393.307" height="15.367"/>
				<rect x="1954.045" y="816.991" fill="#CAD2EA" width="393.307" height="15.367"/>
				<rect x="1954.045" y="851.824" fill="#CAD2EA" width="201.195" height="15.367"/>
			</g>
			<g>
				<rect x="1954.045" y="938.633" fill="#CAD2EA" width="393.307" height="15.367"/>
				<rect x="1954.045" y="973.466" fill="#CAD2EA" width="393.307" height="15.367"/>
				<rect x="1954.045" y="1008.299" fill="#CAD2EA" width="201.195" height="15.367"/>
			</g>
		</g>
	</g>
</g>
<g>
	<g>
		<g>
			<g>
				<g>
					<g>
						<path fill="#39548B" d="M1246.285,1346.665l82.805-47.039c0,0,78.769,142.403,87.07,210.693
							c6.479,53.31-56.124,228.263-56.124,228.263l-22.331-2.488l-6.639-198.71
							C1331.066,1537.384,1227.061,1405.351,1246.285,1346.665"/>
						<path fill="#343766" d="M1334.377,1735.704l28.128,3.05l-4.11,12.104c0,0,28.173,5.79,40.498,22.412l-65.809-7.136
							L1334.377,1735.704z"/>
					</g>
					<path fill="#343766" d="M1318.681,1521.353l5.359-117.304c0,0,39.168,80.961,7.026,133.335L1318.681,1521.353z"/>
					<g>
						<defs>
							<path id="XMLID_113_" d="M1631.168,1149.02c0,0,17.082-5.187,11.571-8.492c-5.51-3.307-39.614,8.492-39.614,8.492
								l-148.257-19.138l-9.184,51.742c12.436,0.706,125.557-5.766,149.688-7.163l0,0c0,0,77.674,5.739,80.429-2.526
								C1678.556,1163.67,1631.168,1149.02,1631.168,1149.02z"/>
						</defs>
						<use xlink:href="#XMLID_113_"  overflow="visible" fill="#DA8C8D"/>
						<clipPath id="XMLID_7_">
							<use xlink:href="#XMLID_113_"  overflow="visible"/>
						</clipPath>
						<path clip-path="url(#XMLID_7_)" fill="#C17276" d="M1465.08,1129.882c0,0,20.983,51.771,18.361,56.261
							c-2.623,4.489-44.591-3.494-44.591-3.494l4.454-56.113L1465.08,1129.882"/>
					</g>
					<g>
						<g>
							<defs>
								<path id="XMLID_112_" d="M1329.586,1301.144c0,0-9.968,175.427-11.456,238.518c-1.489,63.092-49.96,253.704-49.96,253.704
									l-10.809,1.61l-9.057-7.483l-22.969-238.81c0,0-72.932-248.158,2.585-297.548L1329.586,1301.144z"/>
							</defs>
							<use xlink:href="#XMLID_112_"  overflow="visible" fill="#39548B"/>
							<clipPath id="XMLID_8_">
								<use xlink:href="#XMLID_112_"  overflow="visible"/>
							</clipPath>
							<path clip-path="url(#XMLID_8_)" fill="#343766" d="M1313.394,1324.558c-9.305,3.216-83.737,52.796-124.667,40.858
								c-40.93-11.938-9.972-72.208-3.342-65.79S1313.394,1324.558,1313.394,1324.558"/>
						</g>
						<path fill="#343766" d="M1246.394,1784.7l26.028,0.577l-1.655,12.443c0,0,28.566,3.354,42.271,18.857l-66.155,0.045
							L1246.394,1784.7z"/>
					</g>
					<g>
						<defs>
							<path id="XMLID_111_" d="M1349.931,1298.783c0,0,10.502-179.338-54.52-229.578c-47.083-36.379-80.663-10.411-80.663-10.411
								s-69.061,43.723-12.762,162.136c12.344,25.965-17.832,65.976-6.063,95.529
								C1211.742,1356.189,1335.344,1331.698,1349.931,1298.783z"/>
						</defs>
						<use xlink:href="#XMLID_111_"  overflow="visible" fill="#F9DD89"/>
						<clipPath id="XMLID_9_">
							<use xlink:href="#XMLID_111_"  overflow="visible"/>
						</clipPath>
						<path clip-path="url(#XMLID_9_)" fill="#F4C54E" d="M1217.175,1333.214c0,0,20.657-101.974,10.294-143.424
							c0,0-42.727,98.632-42.083,125.292C1186.029,1341.742,1217.175,1333.214,1217.175,1333.214"/>
					</g>
					<g>
						<path fill="#F9DD89" d="M1434.643,1185.452c-29.219,1.135-60.742,1.068-89.38-1.71c-5.093-0.493-10.091-1.656-14.934-3.307
							c-40.819-13.912-114.312-27.344-118.362-59.929c-7.317-58.867,84.037-50.738,84.037-50.738l72.472,40.263
							c17.762,9.868,37.627,15.347,57.937,15.979l16.892,0.525L1434.643,1185.452z"/>
					</g>
					<g>
						<g>
							<g>
								<g>
									<path fill="#DA8C8D" d="M1275.02,970.942c0,0,29.295,62.263-5.69,65.683c-34.985,3.421-62.259-32.166-54.333-58.542
										S1258.54,929.297,1275.02,970.942z"/>
									<path fill="#DA8C8D" d="M1213.776,992.012c0,0,10.071,32.79,4.621,67.07c0,0,22.875,12.821,39.738,9.862
										s-10.91-61.329-10.91-61.329L1213.776,992.012z"/>
								</g>
								<path fill="#C17276" d="M1258.784,1036.492c0,0-2.271,1.24-16.834-7.016c0,0,0.61,14.875,20.309,19.506
									C1262.258,1048.982,1260.085,1040.238,1258.784,1036.492z"/>
							</g>
						</g>
						<path fill="#343766" d="M1230.165,971.807c0.903,9.056,0.001,18.289-2.637,26.999c-0.185-2.323-0.989-5.015-3.198-5.757
							c-1.717-0.577-3.667,0.367-4.739,1.827s-1.428,3.32-1.583,5.125c-0.211,2.469-0.084,5.029,0.912,7.298
							s2.979,4.205,5.416,4.652c-1.511,6.321-2.887,12.814-4.397,19.136c-12.679-9.722-21.926-23.831-25.779-39.336
							c-1.014-4.08-1.667-8.274-1.55-12.477c0.192-6.886,2.508-13.698,6.553-19.275c1.605-2.213,3.51-4.263,5.873-5.638
							c5.408-3.146,12.668-2.132,17.591,1.728C1227.548,959.947,1229.544,965.581,1230.165,971.807z"/>
						<path fill="#343766" d="M1201.688,967.339c0,0,2.964-37.41,31.344-35.568c28.38,1.842,56,12.894,56,12.894
							s-10.354,23.947-24.82,25.789C1249.747,972.295,1201.688,967.339,1201.688,967.339z"/>
						<path fill="#343766" d="M1273.826,1006.232c0,0-9.309,6.216-13.14,12.278
							C1260.687,1018.51,1277.955,1016.157,1273.826,1006.232z"/>
						<path fill="#343766" d="M1273.826,1006.232c0,0,5.293-0.334,11.801,2.676
							C1285.627,1008.908,1276.517,1013.794,1273.826,1006.232z"/>
					</g>
					<path fill="#F9DD89" d="M1446.036,1192.88l-8.308-0.317c-3.542-0.136-6.303-3.117-6.167-6.659l2.401-62.771
						c0.136-3.541,3.116-6.303,6.658-6.168l8.308,0.318c3.542,0.135,6.303,3.116,6.167,6.658l-2.401,62.771
						C1452.559,1190.254,1449.578,1193.016,1446.036,1192.88z"/>
					<path fill="#F4C54E" d="M1345.263,1183.742c0,0-10.726-48.839-21.223-73.172c0,0,48.971,68.835,85.484,75.572
						C1409.523,1186.143,1362.063,1185.627,1345.263,1183.742z"/>
					<path fill="#F4C54E" d="M1433.843,1126.241l-2.282,59.662l-9.331-0.05C1422.23,1185.854,1434.033,1144.527,1433.843,1126.241z"
						/>
					<g>
						<g>
							<defs>
								<path id="XMLID_110_" d="M1212.495,1442.785c0,0-19.368-110.436-20.479-136.742h-49.618c0,0,26.611,105.842,45.675,139.971
									h0.002c0.857,22.207,17.892,61.757,25.929,58.329c8.547-3.646-1.917-38.779-3.041-41.23
									c-3.922-8.553,11.569,13.516,12.94,13.215C1229.65,1475.064,1212.495,1442.785,1212.495,1442.785z"/>
							</defs>
							<use xlink:href="#XMLID_110_"  overflow="visible" fill="#DA8C8D"/>
							<clipPath id="XMLID_10_">
								<use xlink:href="#XMLID_110_"  overflow="visible"/>
							</clipPath>
							<path clip-path="url(#XMLID_10_)" fill="#C17276" d="M1195.757,1311.316c0,0-16.906,18.492-46.849,19.424
								c-29.942,0.931-12.826-36.893-12.826-36.893l59.511,1.691l0.33,20.92"/>
						</g>
						<g>
							<g>
								<path fill="#F9DD89" d="M1195.593,1295.539l35.766-108.062c0,0,35.643-143.866-20.829-125.705
									c-31.259,10.053-75.44,137.358-81.5,180.055c-0.719,5.065-0.93,10.193-0.466,15.289c0.968,10.638,2.56,21.504,4.604,32.373
									L1195.593,1295.539z"/>
							</g>
							<path fill="#F9DD89" d="M1192.016,1306.044h-55.866c-6.735,0-12.196-5.461-12.196-12.196l0,0
								c0-6.736,5.46-12.196,12.196-12.196h55.866c6.736,0,12.196,5.46,12.196,12.196l0,0
								C1204.212,1300.583,1198.751,1306.044,1192.016,1306.044z"/>
							<path fill="#F4C54E" d="M1131.905,1282.424l51.834-0.772c0,0-48.128-7.477-55.176-24.535
								C1128.563,1257.116,1130.644,1275.359,1131.905,1282.424z"/>
						</g>
					</g>
					<g>
						<path fill="#FFFFFF" d="M1257.991,1068.774c0,0,15.026,144.136,10.442,184.908l37.677,34.33l17.929-40.483
							C1324.04,1247.529,1295.05,1095.009,1257.991,1068.774z"/>
						<path fill="#FFFFFF" d="M1257.991,1068.774l-10.979,24.347c0,0-31.717-17.251-36.482-31.349l7.5-5.063
							C1218.03,1056.71,1241.993,1069.401,1257.991,1068.774z"/>
						<path fill="#FFFFFF" d="M1257.991,1068.774l15.831,8.567c0,0-2.439-16.912-5.823-24.237l-5.349-1.587
							C1262.649,1051.518,1264.063,1064.289,1257.991,1068.774z"/>
					</g>
				</g>
				<g>
					<g>
						<path fill="#343766" d="M2107.106,1319.223c0,0-25.636,164.754-36.8,223.589c-11.164,58.836-4.094,245.336-4.094,245.336
							l9.709,3.644l9.892-5.143l68.8-217.014c0,0,117.017-215.753,56.769-276.596L2107.106,1319.223z"/>
						<path fill="#343766" d="M2091.959,1773.064l-28.713-5.361l-0.374,22.646c0,0-33.525-5.721-42.905,10.414l61.695,11.799
							L2091.959,1773.064z"/>
						<g>
							<path fill="#39548B" d="M2109.276,1327.285c0,0,5.767,166.636,5.852,226.521s42.061,241.738,42.061,241.738l10.22,1.755
								l8.75-6.909l28.987-261.745c0,0,93.858-181.911,15.3-251.137L2109.276,1327.285z"/>
							<path fill="#343766" d="M2179.074,1778.213l-28.049-0.078l2.987,21.828c0,0-26.55,2.24-39.878,16.66h62.813
								L2179.074,1778.213z"/>
						</g>
					</g>
					<g>
						<path fill="#DA8C8D" d="M1968.334,1370.817c0,0-12.049,9.38-16.692,9.38s-24.497-4.689-24.497-4.689
							s-27.404,7.267-28.912,4.689c-1.509-2.577,25.197-19.191,33.688-17.159C1940.413,1365.07,1968.334,1370.817,1968.334,1370.817
							z"/>
						<g>
							<defs>
								<path id="XMLID_109_" d="M2076.901,1084.109c0,0-65.626,56.438-77.878,55.068c-12.251-1.369-125.038-55.068-125.038-55.068
									l-7,29.024c0,0,84.884,111.081,131.264,109.796c46.38-1.284,104.519-47.664,104.519-47.664L2076.901,1084.109z"/>
							</defs>
							<use xlink:href="#XMLID_109_"  overflow="visible" fill="#F4C54E"/>
							<clipPath id="XMLID_11_">
								<use xlink:href="#XMLID_109_"  overflow="visible"/>
							</clipPath>
						</g>
						<g>
							<g>
								<path fill="#DA8C8D" d="M2061.273,970.299c0,0-13.29,67.089,20.578,62.534c33.868-4.554,51.42-45.27,37.823-69.112
									C2106.079,939.879,2067.219,926.127,2061.273,970.299z"/>
								<path fill="#DA8C8D" d="M2124.051,976.979c0,0,1.039,42.179,14.124,74.257c0,0-21.873,19.638-38.502,20.561
									c-16.628,0.922-3.636-72.125-3.636-72.125L2124.051,976.979z"/>
							</g>
							<path fill="#C17276" d="M2092.068,1030.219c0,0,10.69-3.608,22.201-17.598c0,0-3.921,24.474-23.004,31.215
								C2091.266,1043.836,2091.705,1034.152,2092.068,1030.219z"/>
						</g>
						<path fill="#F9DD89" d="M2087.883,1316.221c0,0-47.664-189.189-10.981-232.111s57.588-43.112,57.588-43.112
							s67.026,31.632,57.706,155.701c-2.043,27.204,34.324,34.625,34.019,64.81
							C2225.805,1302.085,2112.055,1340.363,2087.883,1316.221z"/>
						<path fill="#F9DD89" d="M2076.901,1084.109l-139.085,280.426l30.518,6.282c0,0,155.869-108.101,160.082-204.304
							C2132.629,1070.312,2076.901,1084.109,2076.901,1084.109z"/>
						<path fill="#F4C54E" d="M2078.275,1272.677c0,0,62.176-74.439,66.165-122.295c0,0,5.859,106.057-61.382,145.097
							L2078.275,1272.677z"/>
						<path fill="#343766" d="M2102.561,964.398c-12.981,3.724-26.855,1.834-40.133-0.631c-5.688-1.056-11.493-2.265-16.417-5.301
							c-8.147-5.023-12.87-15.311-10.809-24.657c0.908-4.12,3.322-8.219,7.259-9.737c3.937-1.519,9.284,0.719,9.855,4.898
							c22.59-4.187,46.636,1.501,64.962,15.355c4.343,3.283,8.41,7.053,11.289,11.673c4.614,7.404,5.849,16.518,5.097,25.209
							c-0.753,8.691-3.354,17.102-5.94,25.435c-0.229,0.691-7.999-0.429-8.777-0.514c-1.242-0.135-2.519-0.454-3.466-1.269
							c-1.207-1.04-1.675-2.712-1.763-4.303c-0.149-2.715-0.069-5.659,0.717-8.276c0.888-2.953,2.868-5.418,3.899-8.313
							c1.857-5.211-1.881-8.997-7.107-8.472c-1.334,0.134-6.679,5.794-6.625,7.939
							C2096.965,975.801,2099.895,968.478,2102.561,964.398z"/>
						<path fill="#DA8C8D" d="M1873.315,1086.888c0,0-12.401-14.237-19.211-17.642c-6.81-3.405,4.063,12.307,4.063,12.307
							s-40.652,4.844-44.657,14.145c-3.998,9.286,31.527,9.029,47.429,5.598l6.733,8.993L1873.315,1086.888z"/>
					</g>
				</g>
				<g>
					<g>
						<polygon fill="#16113C" points="1111.099,1816.623 1103.292,1816.623 1282.842,1388.426 1290.648,1388.426 						"/>
						<polygon fill="#16113C" points="2283.744,1816.623 2291.551,1816.623 2112.002,1388.426 2104.195,1388.426 						"/>
					</g>
					<path fill="#16113C" d="M2294.863,1394.441H1099.98c-3.778,0-6.84-3.063-6.84-6.84l0,0c0-3.778,3.063-6.841,6.84-6.841
						h1194.883c3.778,0,6.841,3.063,6.841,6.841l0,0C2301.704,1391.379,2298.642,1394.441,2294.863,1394.441z"/>
				</g>
				<g>
					<polygon fill="#1F1949" points="2153.488,1380.761 2085.755,1228.205 2217.086,1238.545 2275.313,1380.901 					"/>
					<g>
						<g>
							<g>
								<defs>
									<path id="XMLID_108_" d="M2400.326,1575.507c14.106,31.34,123.504,177.618,123.504,177.618l-16.306,7.658
										c0,0-164.083-129.173-187.195-175.367L2400.326,1575.507z"/>
								</defs>
								<use xlink:href="#XMLID_108_"  overflow="visible" fill="#C17276"/>
								<clipPath id="XMLID_12_">
									<use xlink:href="#XMLID_108_"  overflow="visible"/>
								</clipPath>
							</g>
							<path fill="#343766" d="M2502.004,1757.261c0,0,11.838-5.34,17.898-9.406l8.744,10.258c1.365,1.602,1.021,4.036-0.732,5.197
								l-49.524,32.788c-2.361,1.563-5.349-0.773-4.406-3.443C2477.229,1783.455,2486.749,1770.462,2502.004,1757.261z"/>
						</g>
						<g>
							<g>
								<defs>
									<path id="XMLID_107_" d="M2441.92,1598.902c-47.346-4.736-74.762-9.385-74.762-9.385
										c-3.428,47.145,5.154,216.275,5.154,216.275l-17.827-2.598c0,0-65.714-198.218-59.537-249.502
										c4.617-38.338,42.615-37.44,116.362-47.982L2441.92,1598.902z"/>
								</defs>
								<use xlink:href="#XMLID_107_"  overflow="visible" fill="#DA8C8D"/>
								<clipPath id="XMLID_13_">
									<use xlink:href="#XMLID_107_"  overflow="visible"/>
								</clipPath>
							</g>
							<path fill="#343766" d="M2351.821,1797.214c0,0,13.748,4.921,21.046,4.869l0.933,11.265c0.142,1.718-1.213,3.191-2.937,3.192
								l-60.151,0.063c-2.832,0.002-4.037-3.594-1.778-5.303C2316.711,1805.414,2331.816,1799.82,2351.821,1797.214z"/>
						</g>
						<g>
							<defs>
								<path id="XMLID_106_" d="M2488.532,1483.126l-146.852,28.416l37.548,86.897c0,0,194.112,25.862,218.675-13.133
									c24.563-38.996-3.575-133.681-3.575-133.681L2488.532,1483.126z"/>
							</defs>
							<use xlink:href="#XMLID_106_"  overflow="visible" fill="#343766"/>
							<clipPath id="XMLID_14_">
								<use xlink:href="#XMLID_106_"  overflow="visible"/>
							</clipPath>
						</g>
						<g>
							<defs>
								<path id="XMLID_105_" d="M2381.619,1319.303l-116.355-50.574c0,0-21.945-8.394-31.438-0.85
									c-9.492,7.545-15.384,26.1-14.843,28.808c0.542,2.708,14.111-11.899,14.111-11.899s5.312,0.057,11.74,0.654
									c-4.479,2.32-10.712,5.861-10.717,7.598c-0.004,2.024,15.26-1.463,22.986-3.358c20.746,18.151,96.313,82.53,119.516,78.125
									C2403.609,1362.682,2381.619,1319.303,2381.619,1319.303z"/>
							</defs>
							<use xlink:href="#XMLID_105_"  overflow="visible" fill="#DA8C8D"/>
							<clipPath id="XMLID_15_">
								<use xlink:href="#XMLID_105_"  overflow="visible"/>
							</clipPath>
							<path clip-path="url(#XMLID_15_)" fill="#C17276" d="M2311.941,1334.253c0,0,62.562-20.199,78.123-13.358
								c15.561,6.842,0,62.388,0,62.388S2316.445,1360.407,2311.941,1334.253"/>
						</g>
						<g>
							<g>
								<defs>
									<path id="XMLID_104_" d="M2400.256,1327.354l-198.652,29.968c0,0-22.189,0.955-26.872,3.765
										c-4.682,2.809-14.982,19.663-14.982,19.663s39.744,1.61,49.603-4.579c0,0,169.09,12.997,203.76-3.822
										C2447.779,1355.529,2400.256,1327.354,2400.256,1327.354z"/>
								</defs>
								<use xlink:href="#XMLID_104_"  overflow="visible" fill="#DA8C8D"/>
								<clipPath id="XMLID_16_">
									<use xlink:href="#XMLID_104_"  overflow="visible"/>
								</clipPath>
								<path clip-path="url(#XMLID_16_)" fill="#C17276" d="M2388.285,1358.656c0,0-121.243,7.614-162.279,21.485
									c-41.035,13.871,178.314,16.938,185.76,12.255S2388.285,1358.656,2388.285,1358.656z"/>
							</g>
							<g>
								<path fill="#F9DD89" d="M2587.948,1494.079c1.302-0.1,2.603-0.206,3.901-0.321c11.1-0.985,19.589-8.009,20.393-19.75
									c0.791-11.297-2.076-23.005-5.563-33.674c-12.455-38.127,1.285-159.449-71.775-196.336
									c-40.562-20.479-63.039,14.537-73.188,49.777c-8.276,28.738-1.344,58.213,7.752,85.831
									c6.243,18.958,14.474,38.166,20.617,57.522c3.04,9.58,6.188,19.637,7.271,29.662c0.809,7.479-0.184,16.245,7.131,20.943
									c12.021,7.721,28.276,6.47,41.979,7.015C2560.275,1495.298,2574.159,1495.132,2587.948,1494.079z"/>
								<path fill="#F9DD89" d="M2498.903,1241.612c0,0-111.177,78.65-123.965,79.282c-12.788,0.633-19.652,11.978-16.565,29.021
									c3.088,17.043,14.307,31.02,27.012,30.833c12.706-0.187,109.798-33.239,126.266-49.682
									C2528.117,1314.624,2498.903,1241.612,2498.903,1241.612z"/>
								<g>
									<g>
										<path fill="#DA8C8D" d="M2457.67,1168.735c0,0-13.251,63.143,18.745,59.207c31.996-3.935,48.986-42.154,36.415-64.79
											C2500.259,1140.518,2463.749,1127.132,2457.67,1168.735z"/>
										<path fill="#DA8C8D" d="M2516.816,1175.706c0,0,0.531,39.798,12.532,70.196c0,0.001-20.843,18.291-36.538,18.984
											c-15.695,0.692-2.661-68.074-2.661-68.074L2516.816,1175.706z"/>
									</g>
									<path fill="#C17276" d="M2486.077,1225.588l1.076-9.456c0,0-12.034,9.585-21.813,9.793
										C2465.34,1225.925,2470.858,1230.926,2486.077,1225.588z"/>
									<path fill="#343766" d="M2586.324,1242.957c-5.67-6.231-12.259-11.976-19.251-18.355
										c-13.005-11.87-21.423-28.644-23.17-46.164c-0.04-0.403-0.092-0.814-0.161-1.222c-0.54-7.034-2.148-15.305-5.291-25.014
										c-5.555-17.158-32.208-21.879-47.406-25.005c-20.807-4.28-40.788,15.944-28.34,36.36c0.164,0.269,0.331,0.538,0.501,0.808
										c0,0,8.558,19.999,25.563,17.651c14.886-2.055,13.043,8.826,8.02,18.714c-9.438,18.576-19.208,32.188-14.816,54.111
										c8.86,44.229,52.947,61.01,93.896,58.756c7.322-0.403,17.566-0.751,24.249-3.999
										C2621.653,1299.129,2596.17,1253.778,2586.324,1242.957z"/>
								</g>
								<path fill="#F4C54E" d="M2462.554,1356.087c0,0,38.563-15.021,51.958-35.192c0,0-13.165,62.489-42.372,66.527
									C2472.14,1387.422,2464.922,1368.196,2462.554,1356.087z"/>
							</g>
						</g>
						<g>
							<path fill="#D4A4A4" d="M2687.691,1343.722h14.178l-72.01,208.536c-16.131,61.229-60.039,73.938-107.55,69.456
								l-119.94-11.312c0,0-10.396-37.889,34.933-55.377c45.329-17.486,141.337-19.295,141.337-19.295l64.102-160.075
								C2649.461,1356.52,2667.477,1343.722,2687.691,1343.722z"/>
							<g>
								<path fill="#343766" d="M2680.271,1816.622c0.46,0,0.926-0.064,1.39-0.198c2.66-0.77,4.196-3.558,3.43-6.229
									l-59.127-206.056c-3.938-13.726-16.629-23.312-30.861-23.312h-135.59c-14.913,0-27.756,10.166-31.23,24.722l-48.913,204.866
									c-0.646,2.703,1.014,5.418,3.706,6.065c2.681,0.654,5.398-1.018,6.045-3.721l48.913-204.866
									c2.39-10.01,11.223-17.002,21.479-17.002h135.59c9.789,0,18.517,6.594,21.226,16.033l59.128,206.056
									C2676.088,1815.187,2678.092,1816.622,2680.271,1816.622z"/>
							</g>
						</g>
					</g>
				</g>
				<g>
					<path fill="#F9DD89" d="M743.672,1134.751l52.738,37.062l-34.015,57.793c0,0-43.172-17.864-55.286-36.963
						C694.995,1173.544,743.672,1134.751,743.672,1134.751z"/>
					<g>
						<g>
							<path fill="#39548B" d="M758.065,1322.025c2.185,3.469,48.079,190.268,46.986,229.334s-23.484,232.377-23.484,232.377
								h-23.502l-15.651-224.57c0,0-85.476-157.408-84.024-214.013C659.842,1288.548,758.065,1322.025,758.065,1322.025z"/>
							<path fill="#39548B" d="M730.368,1351.921c0.417,4.086-41.406,191.849-59.719,226.316
								c-18.313,34.467-125.659,195.652-125.659,195.652l-19.5-8.817l85.646-207.98c0,0-6.638-179.241,19.778-229.24
								C657.33,1277.852,730.368,1351.921,730.368,1351.921z"/>
							<path fill="#343766" d="M701.642,1477.277l21.583-65.091l-2.373,105.169C720.852,1517.355,705.132,1486.349,701.642,1477.277
								z"/>
						</g>
						<path fill="#343766" d="M756.889,1781.582h25.743l-1.636,18.574c0,0,23.727,1.072,37.87,16.467h-60.67L756.889,1781.582z"/>
						<path fill="#343766" d="M529.716,1753.034l22.335,12.878l-8.521,14.955c0,0,17.978,13.14,22.641,33.572l-52.639-30.35
							L529.716,1753.034z"/>
					</g>
					<path fill="#F9DD89" d="M682.842,1105.771c22.527,3.972,43.725,13.792,60.83,28.979c19.813,17.591,35.725,43.722,16.504,76.438
						c-25.771,43.866,8.499,114.187,12.937,128.846c0.583,1.927-0.027,3.998-1.562,5.303c-9.191,7.817-42.757,32.979-88.912,28.009
						c-36.099-3.887-55.604-14.603-64.659-21.394c-4.087-3.065-5.968-8.252-4.812-13.229l16.376-73.681
						c0,0-37.888-121.285,28.126-155.583C665.393,1105.45,674.274,1104.261,682.842,1105.771L682.842,1105.771z"/>
					<g>
						<path fill="#343766" d="M696.872,997.933c11.56-6.802,24.283,2.303,30.631,11.973c13.602,20.719,17.042,47.098,22.858,70.831
							c1.94,7.915-2.847,16.041-10.782,17.897c-0.048,0.012-0.096,0.022-0.144,0.033c-12.536,2.879-25.598,3.445-38.335,1.663
							c-3.007-6.9-5.808-13.898-8.815-20.8c-1.807-4.146-3.626-8.332-4.528-12.765c-1.116-5.484-0.789-11.152-0.271-16.725
							C689.094,1032.748,691.731,1014.522,696.872,997.933z"/>
						<g>
							<g>
								<g>
									<defs>
										<path id="XMLID_103_" d="M727.444,1030.739c0,0,20.192,61.152-11.886,60.874s-53.168-36.276-43.28-60.161
											C682.167,1007.567,716.762,990.147,727.444,1030.739z"/>
									</defs>
									<use xlink:href="#XMLID_103_"  overflow="visible" fill="#DA8C8D"/>
									<clipPath id="XMLID_17_">
										<use xlink:href="#XMLID_103_"  overflow="visible"/>
									</clipPath>
									<path clip-path="url(#XMLID_17_)" fill="#C17276" d="M705.015,1040.041c-2.642-0.412-5.303-1.043-7.594-2.423
										c-2.021-1.219-3.679-2.983-4.971-4.959c-2.444-3.734-3.618-8.381-2.771-12.764c0.846-4.383,3.844-8.397,7.993-10.044
										c2.908-1.155,6.161-1.127,9.25-0.637c8.794,1.397,16.971,6.624,20.861,14.792c1.377,2.892,2.3,6.388,0.906,9.451
										c-1.457,3.202-4.906,4.865-8.101,5.827C715.569,1040.795,710.163,1040.844,705.015,1040.041z"/>
								</g>
								<path fill="#DA8C8D" d="M669.747,1044.359c0,0-2.592,34.692-8.607,64.565c-0.992,4.928,5.255,9.844,8.84,13.353
									c5.143,5.033,28.787,17.947,31.238,8.242c4.032-15.962-2.733-68.238-2.733-68.238L669.747,1044.359z"/>
							</g>
							<path fill="#C17276" d="M701.249,1089.006c0,0-1.716-0.457-12.508-9.179c0,0-1.458,18.196,13.403,22.499
								C702.145,1102.326,701.372,1089.589,701.249,1089.006z"/>
						</g>
						<path fill="#343766" d="M704.176,1017.629c-2.879,15.098-5.892,30.442-7.623,45.806c-3.664,32.515-38.898,51.655-67.839,36.39
							c-3.033-1.6-6.014-3.31-8.936-5.124c1.079-23.637,8.443-47.827,19.598-68.694c5.26-9.841,11.647-19.405,20.689-25.943
							c8.842-6.394,20.646-9.482,30.925-5.929C700.608,997.459,706.082,1007.633,704.176,1017.629z"/>
						<path fill="#343766" d="M702.241,1020.572c2.236,5.803,7.932,9.713,13.918,11.395c5.987,1.682,12.32,1.472,18.535,1.249
							c-2.979-6.472-6.967-12.478-11.777-17.733c-2.764-3.02-5.839-5.824-9.459-7.735c-3.215-1.698-6.928-2.675-10.576-2.295
							c-0.825,0.086-1.011,0.212-1.145,1.016c-0.151,0.91-0.271,1.827-0.377,2.742c-0.212,1.807-0.339,3.63-0.265,5.45
							C701.179,1016.674,701.515,1018.686,702.241,1020.572z"/>
					</g>
					<path fill="#F4C54E" d="M753.944,1225.804c0,0,16.75-51.934-3.153-84.131c0,0,30.368,45.599,11.604,87.933L753.944,1225.804z"
						/>
					<g>
						<g>
							<path fill="#D4A4A4" d="M855.818,1343.722H841.64l72.01,208.536c16.13,61.229,60.039,73.938,107.55,69.456l119.94-11.312
								c0,0,10.396-37.889-34.933-55.377c-45.329-17.486-141.337-19.295-141.337-19.295l-64.102-160.075
								C894.048,1356.52,876.032,1343.722,855.818,1343.722z"/>
							<g>
								<path fill="#343766" d="M863.238,1816.622c-0.459,0-0.926-0.064-1.39-0.198c-2.661-0.77-4.196-3.558-3.43-6.229
									l59.127-206.056c3.938-13.726,16.628-23.312,30.86-23.312h135.591c14.913,0,27.755,10.166,31.23,24.722l48.913,204.866
									c0.646,2.703-1.014,5.418-3.707,6.065c-2.68,0.654-5.398-1.018-6.044-3.721l-48.914-204.866
									c-2.39-10.01-11.223-17.002-21.479-17.002H948.407c-9.789,0-18.516,6.594-21.225,16.033l-59.127,206.056
									C867.421,1815.187,865.417,1816.622,863.238,1816.622z"/>
							</g>
						</g>
						<g>
							<g>
								<defs>
									<path id="XMLID_102_" d="M671.529,1166.124l58.24,94.884c0,0,85.283,47.363,112.201,72.293l-8.683,14.743
										c0,0-131.676-37.663-150.185-53.094c-18.509-15.431-55.06-69.007-52.88-89.572
										C632.401,1184.813,634.206,1165.996,671.529,1166.124z"/>
								</defs>
								<use xlink:href="#XMLID_102_"  overflow="visible" fill="#DA8C8D"/>
								<clipPath id="XMLID_18_">
									<use xlink:href="#XMLID_102_"  overflow="visible"/>
								</clipPath>
								<path clip-path="url(#XMLID_18_)" fill="#C17276" d="M671.186,1275.385c-3.096,1.194-6.41,2.182-9.694,1.708
									c-4.741-0.685-8.618-4.371-10.8-8.637c-2.182-4.265-2.949-9.09-3.687-13.823c-0.598-3.837-1.197-7.751-0.568-11.583
									c0.593-3.621,2.265-6.995,4.359-10.009c8.263-11.889,23.043-18.188,37.517-18.555c2.272-0.058,4.595,0.023,6.729,0.805
									c2.381,0.871,4.367,2.551,6.265,4.232c2.4,2.126,4.751,4.308,7.05,6.543c1.572,1.527,3.812,3.248,3.985,5.625
									c0.153,2.1-1.117,4.324-1.939,6.178c-1.034,2.33-2.197,4.602-3.479,6.805c-5.158,8.863-12.237,16.605-20.595,22.547
									C681.642,1270.552,676.551,1273.316,671.186,1275.385z"/>
							</g>
							<path fill="#F9DD89" d="M634.822,1259.793c0,0,38.498,0.104,80.131-36.705c0,0-17.722-96.655-52.232-97.135
								C584.352,1124.863,634.822,1259.793,634.822,1259.793z"/>
							<path fill="#DA8C8D" d="M841.64,1333.022c0,0,27.289,21.301,26.379,29.487c-0.91,8.188-23.935-11.711-23.935-11.711
								s4.951,11.456,4.024,11.655c-0.926,0.2-11.314-13.439-15.15-14.688C829.122,1346.518,841.64,1333.022,841.64,1333.022z"/>
							<path fill="#F4C54E" d="M637.379,1261.607c0,0-20.246-53.908-18.483-77.652c0,0-1.39,47.578,8.528,82.703
								c0,0,8.594,40.803,60.187,31.3c0,0-19.609-17.468-35.433-40.757L637.379,1261.607z"/>
							<path fill="#F4C54E" d="M666.891,1146.372c0,0,23.433,22.256,30.853,50.793c0,0-34.816-54.48-49.656-55.492
								C648.087,1141.673,658.372,1139.219,666.891,1146.372z"/>
						</g>
					</g>
					<g>
						<path fill="#DA8C8D" d="M961.705,1207.021c0,0,40.76-0.075,44.474-3.047s-20.801-15.768-30.087-16.612
							c-9.286-0.846-14.387,1.946-14.387,1.946V1207.021z"/>
						<path fill="#DA8C8D" d="M793.646,1176.72l34.85,25.179c0,0,101.005-12.004,133.21-12.59v17.713
							c0,0-111.606,38.643-140.146,34.691c-28.54-3.952-57.056-15.479-57.056-15.479L793.646,1176.72z"/>
						<path fill="#FFFFFF" d="M1025.983,1117.021c0,0-34.162,3.463-42.949,17.017c-8.787,13.555-21.329,123.046-21.329,123.046
							s85.443-7.588,100.336-24.049c14.894-16.462,13.326-122.285,13.326-122.285L1025.983,1117.021z"/>
						<path fill="#DA8C8D" d="M965.848,1187.923c0,0,17.495-3.928,19.044-1.861c1.55,2.065-11.941,8.609-17.564,8.609
							S965.848,1187.923,965.848,1187.923z"/>
					</g>
				</g>
				<g>
					<polygon fill="#F4C54E" points="2953.652,1139.242 2903.775,1220.416 2952.364,1269.55 2988.353,1201.682 					"/>
					<g>
						<g>
							<g>
								<path fill="#39548B" d="M2983.19,1288.524c-2.033,2.968-0.531,7.87,0.019,11.837c2.738,19.741,5.477,39.482,8.215,59.224
									c4.221,30.431,8.441,60.861,12.662,91.292c4.895,35.289,9.789,70.579,14.684,105.868
									c4.76,34.318,9.52,68.636,14.279,102.954c3.816,27.516,7.633,55.031,11.449,82.547c2.063,14.883,4.128,29.766,6.191,44.648
									c0.16,1.146,0.318,2.293,0.478,3.439h25.241l9.09-281.633c0,0,22.422-122.904,24.662-192.343
									c0.572-17.761-5.683-20.328-21.568-23.748c-32.375-6.97-68.076-12.415-101.052-6.521
									C2985.353,1286.479,2983.995,1287.352,2983.19,1288.524z"/>
								<path fill="#39548B" d="M2962.154,1269.55c-2.138,3.821-56.755,233.991-53.271,275.564
									c3.484,41.572,41.18,245.22,41.18,245.22l22.956-0.348l3.489-240.282c0,0,82.334-172.857,77.428-233.101
									C3049.028,1256.359,2962.154,1269.55,2962.154,1269.55z"/>
								<polygon fill="#343766" points="3007.907,1478.43 2981.402,1362.893 2984.646,1532.095 								"/>
							</g>
							<g>
								<path fill="#343766" d="M3077.448,1778.782h-27.646l1.757,19.827c0,0-25.479,1.145-40.669,17.578h65.153L3077.448,1778.782z
									"/>
								<path fill="#343766" d="M2973.795,1778.782h-27.645l1.756,19.827c0,0-25.479,1.145-40.668,17.578h65.152L2973.795,1778.782z
									"/>
							</g>
						</g>
						<path fill="#F9DD89" d="M3115.465,1292.82c2.244,29.463,13.051,34.924-38.029,63.734c0,0-73.459,36.734-137.348-17.03
							l12.276-69.975c5.297-20.14,4.83-65.795,0.96-86.256c-2.211-11.686-3.832-24.399-2.618-32.694
							c4.995-34.131,44.275-60.496,44.275-60.496s32.022-3.619,32.032-3.621c4.047-0.457-3.855-0.402,0,0
							c51.568,5.393,73.828,42.461,91.105,75.055c0,0,38.607,83.613,28.955,106.672S3115.465,1292.82,3115.465,1292.82z"/>
						<g>
							<circle fill="#F1A29F" cx="3020.53" cy="1034.531" r="8.492"/>
							<path fill="#1F1949" d="M2985.875,1034.522c3.273,1.19,6.764,1.644,10.229,1.987c13.333,1.322,28.125,0.672,38.158-8.208
								c1.247-1.104,2.493-2.633,2.114-4.256c-0.146-0.625-0.521-1.168-0.896-1.688c-9.934-13.807-25.406-23.351-42.061-26.571
								c-8.451-1.635-18.268-2.23-26.385,1.104c-8.145,3.346-8.291,10.476-4.046,17.267c2.77,4.43,6.566,8.228,10.317,11.829
								C2976.973,1029.507,2981.047,1032.768,2985.875,1034.522z"/>
							<g>
								<path fill="#343766" d="M2979.582,977.155c-6.652,2.375-12.976,5.92-17.934,10.952
									c-13.652,13.857-14.127,37.522-3.665,53.922c10.463,16.4,29.806,25.753,49.181,27.497c9.699,0.873,20.156-0.188,27.85-6.159
									c4.611-3.579,7.857-8.647,10.335-13.934c3.901-8.324,6.022-17.454,6.348-26.635c0.163-4.61-0.124-9.237-0.866-13.791
									c-0.745-4.571-2.179-8.825-3.509-13.236c-0.433-1.436-0.659-2.709-1.667-3.878c-1.316-1.524-2.989-2.836-4.555-4.092
									c-3.241-2.599-6.748-4.861-10.438-6.768c-7.34-3.791-15.4-6.177-23.616-7.032c-8.203-0.854-16.581-0.175-24.494,2.182
									C2981.553,976.481,2980.563,976.805,2979.582,977.155z"/>
								<g>
									<g>
										<defs>
											<path id="XMLID_101_" d="M2965.744,1041.904c0,0,22.196,56.312,45.197,36.817c23-19.494,16.581-58.178-4.926-69.482
												C2984.509,997.937,2949.045,1006.163,2965.744,1041.904z"/>
										</defs>
										<use xlink:href="#XMLID_101_"  overflow="visible" fill="#DA8C8D"/>
										<clipPath id="XMLID_19_">
											<use xlink:href="#XMLID_101_"  overflow="visible"/>
										</clipPath>
										<path clip-path="url(#XMLID_19_)" fill="#C17276" d="M2974.094,1040.205c6.132,2.803,12.828,4.158,19.521,4.979
											c13.032,1.601,26.303,1.247,39.231-1.045c0.67-8.94,0.26-17.96-1.217-26.803c-0.514-3.07-1.172-6.169-2.645-8.912
											c-2.17-4.045-5.959-7.011-10.023-9.146c-9.006-4.73-19.521-5.817-29.68-5.292c-6,0.31-12.177,1.223-17.272,4.404
											c-5.914,3.693-9.493,9.962-11.472,16.493c-1.012,3.338-1.744,6.858-2.032,10.338c-0.136,1.631,0.483,2.31,1.433,3.53
											c1.168,1.503,2.284,2.99,3.644,4.333C2966.609,1036.076,2970.231,1038.439,2974.094,1040.205z"/>
									</g>
									<path fill="#DA8C8D" d="M3025.412,1043.023c0,0,0.383,20.747,5.373,50.157c0.79,4.658-1.415,8.471-4.594,11.952
										c-4.562,4.994-16.848,11.465-26.254,11.334c-14.693-0.204-1.024-64.18-1.024-64.18L3025.412,1043.023z"/>
									<path fill="#C17276" d="M2994.24,1081.383c0,0,5.466-0.501,14.477-10.43c0,0-1.763,16.102-15.482,20.922
										C2993.234,1091.875,2994.156,1081.936,2994.24,1081.383z"/>
								</g>
							</g>
							<path fill="#343766" d="M3017.574,1025.365c-2.748-6.699-5.628-13.6-10.813-18.655c-4.944-4.822-11.828-7.595-18.734-7.548
								c-5.118,0.035-10.201,1.619-14.475,4.425c-1.273,0.836-5.203,3.143-4.843,4.968c0.192,0.976,1.489,1.676,2.191,2.245
								c0.981,0.796,1.889,1.682,2.861,2.49c3.845,3.194,8.142,5.839,12.706,7.874c4.568,2.037,9.408,3.466,14.352,4.229
								c4.914,0.759,9.934,0.859,14.869,0.241C3016.319,1025.558,3016.948,1025.467,3017.574,1025.365z"/>
						</g>
					</g>
					<path fill="#F4C54E" d="M3115.465,1292.82c0,0-17.982-0.15-31.213-1.167c-13.23-1.016,33.663,22.956,33.663,22.956
						L3115.465,1292.82z"/>
					<path fill="#F4C54E" d="M3063.471,1240.575l24.01-5.552c0,0-23.316-53.302-21.964-72.235
						C3065.517,1162.788,3054.136,1202.054,3063.471,1240.575z"/>
					<path fill="#F1A29F" d="M2930.371,1266.521"/>
					<g>
						<g>
							<polygon fill="#343766" points="3000.859,1283.91 2904.457,1160.689 2835.572,1206.335 2936.922,1327.033 							"/>
							<polygon fill="#343766" points="2835.572,1206.335 2870.615,1142.487 2891.887,1169.019 							"/>
							<polygon fill="#FAFAFA" points="2898.184,1164.847 2884.406,1146.973 2835.572,1206.335 							"/>
						</g>
						<g>
							<path fill="#DA8C8D" d="M2949.572,1254.982c4.433-1.262,21.494,2.471,32.046,5.011c-8.432-5.994-7.322-10.036-7.322-10.036
								l19.99,11l0,0c13.982-3.995,60.397-16.736,84.819-17.096c0,0,20.916,10.926,17.819,35.562
								c-0.636,5.058-4.889,8.884-9.985,8.938c-16.155,0.173-53.754-4.725-90.477-5.723c0,0-12.951,3.136-28.904-1.808
								S2943.029,1256.845,2949.572,1254.982z"/>
						</g>
					</g>
					<path fill="#343766" d="M3003.599,967.251c-3.463-7.289-5.335-16.093-1.716-23.306c3.717-7.406,13.288-11.265,21.102-8.507
						c7.814,2.757,12.844,11.769,11.088,19.867c3.579-6.584,8.523-12.618,15.039-16.318c6.518-3.701,14.747-4.804,21.604-1.777
						c6.855,3.026,11.772,10.6,10.633,18.007c-0.998,6.485-6.008,11.516-10.805,15.993c7.828-2.385,16.82,2.42,20.187,9.878
						c3.367,7.458,1.517,16.665-3.603,23.049c-5.119,6.384-13.068,10.102-21.174,11.225c-10.612,1.47-21.616-1.604-30.288-7.798
						c-4.272-3.052-8.456-6.997-10.909-11.696c-0.868-1.664-1.438-3.475-2.459-5.058c-1.51-2.34-3.779-3.978-5.78-5.86
						C3011.168,979.915,3006.751,973.888,3003.599,967.251z"/>
					<path fill="#F9DD89" d="M3007.045,974.002c0,0,34.761,2.391,44.696,40.734c0,0,1.294-28.832-9.936-38.344
						S3007.045,974.002,3007.045,974.002z"/>
				</g>
			</g>
			<g>
				<path fill="#D4A4A4" d="M1823.239,1618.611l-61.485,21.023c-30.557,10.447-63.72,10.447-94.276,0l-61.486-21.023
					c-11.972-4.094-20.017-15.346-20.017-27.999v-163.425c0-40.152,32.55-72.703,72.703-72.703h111.877
					c40.152,0,72.702,32.551,72.702,72.703v163.425C1843.257,1603.266,1835.212,1614.518,1823.239,1618.611z"/>
				<g>
					<g>
						<polygon fill="#1F1949" points="1842.641,1581.13 1842.641,1508.335 1832.697,1508.335 1832.697,1581.13 1878.066,1816.925 
							1888.009,1816.925 						"/>
					</g>
					<g>
						<polygon fill="#1F1949" points="1585.897,1508.335 1585.897,1581.13 1540.528,1816.925 1550.472,1816.925 1595.84,1581.13 
							1595.84,1508.335 						"/>
					</g>
					<g>
						<path fill="#1F1949" d="M1712.758,1626.997c-19.908,0-37.625-2.127-52.491-5.006c-46.766-9.055-75.463-26.854-76.662-27.606
							l4.74-7.543l-2.37,3.771l2.367-3.773c0.282,0.177,28.758,17.786,74.001,26.481c41.645,7.999,106.49,9.87,178.907-26.685
							l4.014,7.953C1796.252,1619.328,1750.56,1626.997,1712.758,1626.997z"/>
					</g>
				</g>
			</g>
			<g>
				<polygon fill="#1F1949" points="1501.324,1380.735 1312.294,1380.735 1343.136,1251.121 1532.166,1251.121 				"/>
				<path fill="#FFFFFF" d="M1439.187,1316.025c-2.552,8.626-12.213,15.575-21.578,15.521c-9.365-0.053-14.888-7.09-12.336-15.715
					c2.553-8.627,12.214-15.576,21.579-15.522C1436.216,1300.363,1441.739,1307.399,1439.187,1316.025z"/>
			</g>
		</g>
		<g>
			<path fill="#FFFFFF" d="M1608.856,964.721c0-44.352-48.715-80.307-108.808-80.307c-60.093,0-108.808,35.955-108.808,80.307
				c0,27.483,18.716,51.731,47.243,66.208l-9.434,34.928c0,0,59.131-3.865,113.53-27.2c17.152-5.381,32.026-13.93,43.328-24.636
				c0.048-0.036,0.096-0.071,0.144-0.107l-0.031,0.001C1600.319,1000.322,1608.856,983.263,1608.856,964.721z"/>
			<g>
				<circle fill="#B0B6D0" cx="1451.443" cy="961.723" r="8.624"/>
				<circle fill="#B0B6D0" cx="1501.019" cy="961.723" r="8.624"/>
				<circle fill="#B0B6D0" cx="1548.653" cy="961.723" r="8.624"/>
			</g>
		</g>
		<g>
			<path fill="#FFFFFF" d="M1790.64,983.853c0-36.237,39.802-65.613,88.899-65.613s88.898,29.376,88.898,65.613
				c0,22.454-15.291,42.266-38.599,54.094l7.708,28.536c0,0-48.313-3.157-92.758-22.223c-14.013-4.396-26.166-11.381-35.399-20.128
				c-0.039-0.029-0.078-0.058-0.117-0.088l0.024,0.001C1797.614,1012.939,1790.64,999.001,1790.64,983.853z"/>
			<g>
				<circle fill="#B0B6D0" cx="1919.25" cy="981.403" r="7.046"/>
				<circle fill="#B0B6D0" cx="1878.745" cy="981.403" r="7.046"/>
				<circle fill="#B0B6D0" cx="1839.827" cy="981.403" r="7.046"/>
			</g>
		</g>
	</g>
	<path fill="#343766" d="M3182.531,1828.884H293.697c-3.514,0-6.362-2.849-6.362-6.362s2.849-6.362,6.362-6.362h2888.834
		c3.514,0,6.362,2.849,6.362,6.362S3186.045,1828.884,3182.531,1828.884z"/>
	<g>
		<g>
			<path fill="#A6C4A8" d="M288.869,1592.179c-19.637-43.694-29.573-91.063-37.647-138.282
				c46.083,16.519,80.875,56.867,99.545,102.121c14.457,35.042,20.23,72.993,21.813,110.679c0.258,6.142,2.903,19.388-4.153,22.998
				c-5.558,2.844-14.575-7.771-18.36-11.155c-12.573-11.243-23.731-24.022-33.518-37.747
				C305.705,1625.583,296.523,1609.209,288.869,1592.179z"/>
			<path fill="#A6C4A8" d="M348.832,1579.643c4.106-47.728,18.477-93.945,34.4-139.125c32.221,36.854,42.981,89.034,37.271,137.654
				c-4.421,37.647-17.845,73.612-34.801,107.305c-2.764,5.492-6.898,18.352-14.819,18.071c-6.24-0.221-8.952-13.881-10.612-18.68
				c-5.512-15.94-9.042-32.534-10.913-49.287C347.285,1617.018,347.231,1598.245,348.832,1579.643z"/>
			<path fill="#668C68" d="M265.034,1655.855c-31.994-23.344-58.524-53.3-83.655-83.91c39.863-7.003,81.372,7.734,113.31,32.596
				c24.73,19.25,44.416,44.146,60.981,70.565c2.7,4.307,10.023,12.737,6.433,18.22c-2.828,4.318-13.65,0.386-17.755-0.496
				c-13.633-2.928-26.88-7.538-39.529-13.39C290.803,1672.957,277.504,1664.954,265.034,1655.855z"/>
			<g>
				<defs>
					<path id="XMLID_100_" d="M398.054,1603.366c18.558-25.009,42.916-46.25,71.751-58.012c-3.237,34.18-10,69.055-28.646,97.883
						c-6.677,10.323-15.026,19.592-24.632,27.267c-9.577,7.651-20.48,13.754-32.223,17.357c-8.365,2.567-23.945,7.38-24.696-6.014
						c-0.341-6.081,2.726-11.96,4.962-17.435c2.708-6.629,5.602-13.184,8.719-19.63c6.247-12.921,13.396-25.424,21.677-37.152
						C395.979,1606.197,397.008,1604.775,398.054,1603.366z"/>
				</defs>
				<use xlink:href="#XMLID_100_"  overflow="visible" fill="#668C68"/>
				<clipPath id="XMLID_20_">
					<use xlink:href="#XMLID_100_"  overflow="visible"/>
				</clipPath>
			</g>
			<g>
				<defs>
					<polygon id="XMLID_89_" points="401.879,1816.474 328.973,1816.474 304.185,1679.438 421.963,1679.438 					"/>
				</defs>
				<use xlink:href="#XMLID_89_"  overflow="visible" fill="#1F1949"/>
				<clipPath id="XMLID_21_">
					<use xlink:href="#XMLID_89_"  overflow="visible"/>
				</clipPath>
				<path opacity="0.18" clip-path="url(#XMLID_21_)" fill="#8296C9" d="M453.387,1728.228
					c-49.859,15.539-103.556,21.534-154.576,10.385c-10.475-2.288-21.077-5.425-29.556-11.988
					c-8.479-6.563-14.49-17.221-12.905-27.825c1.875-12.547,13.237-21.295,24.273-27.551
					c45.876-26.009,102.435-32.444,152.984-17.419c15.186,4.514,31.093,12.052,37.713,26.445
					c6.869,14.934,1.497,32.851-7.489,46.614c-7.73,11.841-21.401,22.872-34.796,18.339"/>
			</g>
		</g>
		<path fill="#343766" d="M359.038,1682.128c-8.769-17.889-25.905-37.896-38.736-51.529c-13.92-14.79-25.917-25.477-26.036-25.583
			l0.845-0.951c0.12,0.106,12.152,10.824,26.109,25.653c12.895,13.7,30.121,33.816,38.96,51.85L359.038,1682.128z"/>
		<path fill="#343766" d="M352.871,1660.854c-13.639-52.579-2.836-104.451-2.726-104.969l1.244,0.266
			c-0.11,0.516-10.848,52.104,2.713,104.383L352.871,1660.854z"/>
	</g>
</g>
<g>
</g>
<g>
</g>
<g>
</g>
<g>
</g>
<g>
</g>
<g>
</g>
</svg>
