<?xml version="1.0" encoding="utf-8"?>
<!-- Generator: Adobe Illustrator 16.0.0, SVG Export Plug-In . SVG Version: 6.00 Build 0)  -->
<!DOCTYPE svg PUBLIC "-//W3C//DTD SVG 1.1//EN" "http://www.w3.org/Graphics/SVG/1.1/DTD/svg11.dtd">
<svg version="1.1" id="Layer_1" xmlns="http://www.w3.org/2000/svg" xmlns:xlink="http://www.w3.org/1999/xlink" x="0px" y="0px"
	 width="502px" height="502px" viewBox="0 0 502 502" enable-background="new 0 0 502 502" xml:space="preserve">
<g>
	<path fill="#00517D" d="M65.598,327.201c-1.847,4.801-5.354,7.197-10.517,7.197H11.629c-4.982,0-6.366-2.396-4.151-7.197
		l74.449-184.6c1.842-4.796,5.163-7.196,9.963-7.196h127.865c13.099,0,22.37,4.523,27.814,13.562
		c5.44,9.042,5.487,20.113,0.139,33.211l-20.204,50.094c-7.014,17.345-15.36,29.476-25.047,36.394
		c-9.687,6.92-23.205,10.379-40.546,10.379h-57.013c-4.982,0-6.366-2.49-4.151-7.473l14.115-35.425
		c1.289-3.135,2.534-5.12,3.736-5.95c1.198-0.831,3.364-1.246,6.504-1.246h42.622c1.842,0,3.135-0.83,3.875-2.491l14.668-36.533
		c0.735-1.661,0.181-2.491-1.661-2.491h-60.334c-1.847,0-3.14,0.831-3.875,2.491L65.598,327.201z"/>
	<path fill="#00517D" d="M207.854,327.201l74.726-184.877c1.842-4.796,5.164-7.196,9.963-7.196h39.578
		c4.057,0,6.365,1.756,6.918,5.258l10.24,94.653c0.367,1.107,0.645,1.661,0.83,1.661c0.369,0,0.83-0.277,1.385-0.831l86.35-95.483
		c3.322-3.502,6.92-5.258,10.795-5.258h43.729c4.795,0,6.27,2.4,4.428,7.196l-74.727,184.877c-1.846,4.801-5.258,7.197-10.24,7.197
		h-43.451c-4.801,0-6.275-2.396-4.43-7.197l24.91-61.994l-41.516,42.898c-3.32,3.508-6.918,5.258-10.793,5.258h-32.381
		c-4.248,0-6.643-1.75-7.197-5.258l-6.088-42.621l-24.908,61.717c-1.848,4.801-5.354,7.197-10.518,7.197h-43.452
		C207.391,334.398,206.007,332.002,207.854,327.201z"/>
</g>
<g>
</g>
<g>
</g>
<g>
</g>
<g>
</g>
<g>
</g>
<g>
</g>
<g>
</g>
<g>
</g>
<g>
</g>
<g>
</g>
<g>
</g>
<g>
</g>
<g>
</g>
<g>
</g>
<g>
</g>
<g>
</g>
</svg>
