<?xml version="1.0" encoding="utf-8"?>
<!-- Generator: Adobe Illustrator 16.0.0, SVG Export Plug-In . SVG Version: 6.00 Build 0)  -->
<!DOCTYPE svg PUBLIC "-//W3C//DTD SVG 1.1//EN" "http://www.w3.org/Graphics/SVG/1.1/DTD/svg11.dtd">
<svg version="1.1" id="Layer_1" xmlns="http://www.w3.org/2000/svg" xmlns:xlink="http://www.w3.org/1999/xlink" x="0px" y="0px"
	 width="3917.217px" height="3167.366px" viewBox="0 0 3917.217 3167.366" enable-background="new 0 0 3917.217 3167.366"
	 xml:space="preserve">
<linearGradient id="SVGID_1_" gradientUnits="userSpaceOnUse" x1="1401.75" y1="148.3525" x2="2949.8696" y2="3096.6851">
	<stop  offset="0" style="stop-color:#E8ED99"/>
	<stop  offset="1" style="stop-color:#FFC60B"/>
</linearGradient>
<path fill="url(#SVGID_1_)" d="M3689.263,1523.695c-244.255,1289.41-1392.411,1726.669-2187.084,1582.491
	c-498.691-90.474-1408.859-468.525-1466.66-1241.918C-4.25,1332.13,340.941,895.832,665.867,635.873
	c584.084-467.302,920.413,41.75,1654.856-326.795C2917.508,9.608,3357.006-22.859,3659.269,119.976
	C4024.669,292.649,3841.271,721.229,3689.263,1523.695z"/>
<g id="LWPOLYLINE_13_">
	
		<path fill="#016481" stroke="#016481" stroke-width="0.7087" stroke-linecap="round" stroke-linejoin="round" stroke-miterlimit="10" d="
		M1824.233,981.787h348.902c10.799,0,19.553,8.754,19.553,19.553v347.859c0,10.799-8.754,19.553-19.553,19.553h-348.902
		c-10.799,0-19.553-8.754-19.553-19.553V1001.34C1804.68,990.541,1813.434,981.787,1824.233,981.787z"/>
</g>
<g id="LWPOLYLINE_7_">
	
		<path fill="none" stroke="#CECFD1" stroke-width="0.7087" stroke-linecap="round" stroke-linejoin="round" stroke-miterlimit="10" d="
		M1392.031,975.27h348.902c14.398,0,26.07,11.672,26.07,26.07v347.859c0,14.398-11.672,26.07-26.07,26.07h-348.902
		c-14.398,0-26.07-11.672-26.07-26.07V1001.34C1365.96,986.941,1377.632,975.27,1392.031,975.27z"/>
</g>
<g>
	<defs>
		<rect id="SVGID_2_" x="912.47" y="907.603" width="3333.334" height="2000"/>
	</defs>
	<clipPath id="SVGID_3_">
		<use xlink:href="#SVGID_2_"  overflow="visible"/>
	</clipPath>
	<path opacity="0.15" clip-path="url(#SVGID_3_)" d="M2754.97,2812.601h-547.524c9.104-3.927,14.073-8.166,14.073-12.589
		c0-20.291-104.537-36.74-233.49-36.74c-128.954,0-233.491,16.449-233.491,36.74c0,4.423,4.97,8.662,14.073,12.589h-733.64
		c-8.745,0-15.834,7.09-15.834,15.834c0,8.746,7.089,15.835,15.834,15.835h1720c8.744,0,15.834-7.089,15.834-15.835
		C2770.804,2819.69,2763.714,2812.601,2754.97,2812.601z"/>
	<g clip-path="url(#SVGID_3_)">
		<g>
			<rect x="1255.077" y="2095.859" fill="#CECFD1" width="1484.25" height="147.581"/>
			<g>
				<g>
					<circle fill="#808285" cx="1348.87" cy="2140.731" r="5.398"/>
					<circle fill="#808285" cx="1415.581" cy="2140.731" r="5.398"/>
					<circle fill="#808285" cx="1482.293" cy="2140.731" r="5.398"/>
					<circle fill="#808285" cx="1549.005" cy="2140.731" r="5.398"/>
					<circle fill="#808285" cx="1615.716" cy="2140.731" r="5.398"/>
					<circle fill="#808285" cx="1682.428" cy="2140.731" r="5.398"/>
					<circle fill="#808285" cx="1749.139" cy="2140.731" r="5.398"/>
					<circle fill="#808285" cx="1815.851" cy="2140.731" r="5.398"/>
					<circle fill="#808285" cx="1882.563" cy="2140.731" r="5.398"/>
					<circle fill="#808285" cx="1949.274" cy="2140.731" r="5.398"/>
					<circle fill="#808285" cx="2015.986" cy="2140.731" r="5.398"/>
					<circle fill="#808285" cx="2082.698" cy="2140.731" r="5.398"/>
					<circle fill="#808285" cx="2149.409" cy="2140.731" r="5.398"/>
					<circle fill="#808285" cx="2216.121" cy="2140.731" r="5.397"/>
					<circle fill="#808285" cx="2282.832" cy="2140.731" r="5.398"/>
					<circle fill="#808285" cx="2349.544" cy="2140.731" r="5.398"/>
					<circle fill="#808285" cx="2416.256" cy="2140.731" r="5.398"/>
					<circle fill="#808285" cx="2482.967" cy="2140.731" r="5.398"/>
					<circle fill="#808285" cx="2549.678" cy="2140.731" r="5.398"/>
					<circle fill="#808285" cx="2616.391" cy="2140.731" r="5.397"/>
					<circle fill="#808285" cx="2683.102" cy="2140.731" r="5.397"/>
				</g>
				<g>
					<circle fill="#808285" cx="1348.87" cy="2187.988" r="5.398"/>
					<circle fill="#808285" cx="1415.581" cy="2187.988" r="5.398"/>
					<circle fill="#808285" cx="1482.293" cy="2187.988" r="5.398"/>
					<circle fill="#808285" cx="1549.005" cy="2187.988" r="5.398"/>
					<circle fill="#808285" cx="1615.716" cy="2187.988" r="5.398"/>
					<circle fill="#808285" cx="1682.428" cy="2187.988" r="5.398"/>
					<circle fill="#808285" cx="1749.139" cy="2187.988" r="5.398"/>
					<circle fill="#808285" cx="1815.851" cy="2187.988" r="5.398"/>
					<circle fill="#808285" cx="1882.563" cy="2187.988" r="5.398"/>
					<circle fill="#808285" cx="1949.274" cy="2187.988" r="5.398"/>
					<circle fill="#808285" cx="2015.986" cy="2187.988" r="5.398"/>
					<circle fill="#808285" cx="2082.698" cy="2187.988" r="5.398"/>
					<circle fill="#808285" cx="2149.409" cy="2187.988" r="5.398"/>
					<circle fill="#808285" cx="2216.121" cy="2187.988" r="5.397"/>
					<circle fill="#808285" cx="2282.832" cy="2187.988" r="5.398"/>
					<circle fill="#808285" cx="2349.544" cy="2187.988" r="5.398"/>
					<circle fill="#808285" cx="2416.256" cy="2187.988" r="5.398"/>
					<circle fill="#808285" cx="2482.967" cy="2187.988" r="5.398"/>
					<circle fill="#808285" cx="2549.678" cy="2187.988" r="5.398"/>
					<circle fill="#808285" cx="2616.391" cy="2187.988" r="5.397"/>
					<circle fill="#808285" cx="2683.102" cy="2187.988" r="5.397"/>
				</g>
			</g>
		</g>
		<g>
			<g>
				<path fill="#231F20" d="M1662.128,1454.726h677.669c19.16,0,34.694,15.653,34.694,34.964v421.535
					c0,19.313-15.534,34.962-34.694,34.962h-677.669c-19.164,0-34.693-15.649-34.693-34.962v-421.535
					C1627.436,1470.378,1642.964,1454.726,1662.128,1454.726z"/>
				<polygon points="1949.265,1928.706 1997.322,1928.706 2004.602,1928.706 2052.658,1928.706 2081.538,2047.454 
					2188.089,2047.454 2188.089,2063.601 2004.602,2063.601 1997.322,2063.601 1813.833,2063.601 1813.833,2047.454 
					1909.559,2047.454 				"/>
				<polygon opacity="0.5" points="1997.322,1928.706 2004.602,1928.706 2052.658,1928.706 2064.902,1979.058 1932.429,1979.058 
					1949.265,1928.706 				"/>
				<path d="M1662.128,1459.975h677.669c19.16,0,34.694,15.654,34.694,34.964v421.537c0,19.31-15.534,34.961-34.694,34.961h-677.669
					c-19.164,0-34.693-15.651-34.693-34.961v-421.537C1627.436,1475.629,1642.964,1459.975,1662.128,1459.975z"/>
				<path fill="#231F20" d="M1662.128,1472.207h677.669c9.564,0,17.346,7.844,17.346,17.483v392.139
					c0,9.639-7.782,17.481-17.346,17.481h-677.669c-9.566,0-17.347-7.843-17.347-17.481v-392.139
					C1644.782,1480.051,1652.563,1472.207,1662.128,1472.207z"/>
				<g>
					<path fill="#6D6E71" d="M2339.797,1472.207h-677.669c-9.566,0-17.347,7.844-17.347,17.483v19.722h712.362v-19.722
						C2357.144,1480.05,2349.361,1472.207,2339.797,1472.207z"/>
					<ellipse fill="#F3595F" cx="1674.168" cy="1490.809" rx="4.299" ry="3.995"/>
					<ellipse fill="#FDE555" cx="1689.512" cy="1490.809" rx="4.299" ry="3.995"/>
					<ellipse fill="#29A764" cx="1704.856" cy="1490.809" rx="4.299" ry="3.995"/>
				</g>
				<path opacity="0.1" fill="#FFFFFF" d="M2339.797,1472.207h-75.662l-251.302,427.103h326.964c9.564,0,17.346-7.844,17.346-17.481
					v-392.139C2357.143,1480.05,2349.361,1472.207,2339.797,1472.207z"/>
				<rect x="1813.833" y="2063.601" fill="#231F20" width="374.257" height="10.27"/>
				<path fill="#FFFFFF" d="M2001.16,1910.526c6.917,0,12.526,5.648,12.526,12.619c0,6.975-5.608,12.623-12.526,12.623
					c-6.917,0-12.524-5.648-12.524-12.623C1988.636,1916.175,1994.244,1910.526,2001.16,1910.526z"/>
				<g>
					<g>
						<rect x="2164.195" y="1532.231" width="164.341" height="345.932"/>
						<rect x="2164.195" y="1532.231" fill="#414042" width="164.341" height="25.761"/>
						<ellipse fill="#F3595F" cx="2182.304" cy="1544.822" rx="3.775" ry="3.508"/>
						<ellipse fill="#FDE555" cx="2195.777" cy="1544.822" rx="3.775" ry="3.508"/>
						<ellipse fill="#29A764" cx="2209.251" cy="1544.822" rx="3.775" ry="3.508"/>
					</g>
					<g>
						<path fill="#2191F2" d="M2198.924,1584.8L2198.924,1584.8c-2.365,0-4.283-1.917-4.283-4.283l0,0
							c0-2.365,1.918-4.283,4.283-4.283l0,0c2.366,0,4.283,1.918,4.283,4.283l0,0C2203.208,1582.883,2201.29,1584.8,2198.924,1584.8
							z"/>
						<path fill="#E6E7E8" d="M2243.964,1582.528h-35.71c-0.953,0-1.725-0.772-1.725-1.725v-0.921c0-0.953,0.772-1.725,1.725-1.725
							h35.71c0.953,0,1.725,0.772,1.725,1.725v0.921C2245.689,1581.755,2244.917,1582.528,2243.964,1582.528z"/>
						<path fill="#2191F2" d="M2198.924,1632.876L2198.924,1632.876c-2.365,0-4.283-1.917-4.283-4.283l0,0
							c0-2.366,1.918-4.283,4.283-4.283l0,0c2.366,0,4.283,1.917,4.283,4.283l0,0
							C2203.208,1630.959,2201.29,1632.876,2198.924,1632.876z"/>
						<path fill="#E6E7E8" d="M2243.964,1630.604h-35.71c-0.953,0-1.725-0.772-1.725-1.725v-0.921c0-0.952,0.772-1.725,1.725-1.725
							h35.71c0.953,0,1.725,0.772,1.725,1.725v0.921C2245.689,1629.832,2244.917,1630.604,2243.964,1630.604z"/>
						<path fill="#2191F2" d="M2198.924,1695.462L2198.924,1695.462c-2.365,0-4.283-1.917-4.283-4.283l0,0
							c0-2.366,1.918-4.283,4.283-4.283l0,0c2.366,0,4.283,1.917,4.283,4.283l0,0
							C2203.208,1693.545,2201.29,1695.462,2198.924,1695.462z"/>
						<path fill="#E6E7E8" d="M2243.964,1693.19h-35.71c-0.953,0-1.725-0.772-1.725-1.725v-0.921c0-0.953,0.772-1.725,1.725-1.725
							h35.71c0.953,0,1.725,0.772,1.725,1.725v0.921C2245.689,1692.417,2244.917,1693.19,2243.964,1693.19z"/>
						<path fill="#2191F2" d="M2198.924,1711.633L2198.924,1711.633c-2.365,0-4.283-1.917-4.283-4.283l0,0
							c0-2.365,1.918-4.283,4.283-4.283l0,0c2.366,0,4.283,1.917,4.283,4.283l0,0
							C2203.208,1709.716,2201.29,1711.633,2198.924,1711.633z"/>
						<path fill="#E6E7E8" d="M2243.964,1709.361h-35.71c-0.953,0-1.725-0.772-1.725-1.725v-0.921c0-0.953,0.772-1.725,1.725-1.725
							h35.71c0.953,0,1.725,0.772,1.725,1.725v0.921C2245.689,1708.588,2244.917,1709.361,2243.964,1709.361z"/>
						<path fill="#2191F2" d="M2210.813,1597.388L2210.813,1597.388c-2.366,0-4.283-1.918-4.283-4.283l0,0
							c0-2.366,1.917-4.283,4.283-4.283l0,0c2.365,0,4.283,1.917,4.283,4.283l0,0
							C2215.096,1595.47,2213.178,1597.388,2210.813,1597.388z"/>
						<path fill="#E6E7E8" d="M2255.852,1595.115h-35.71c-0.952,0-1.725-0.772-1.725-1.725v-0.921c0-0.953,0.772-1.725,1.725-1.725
							h35.71c0.953,0,1.725,0.772,1.725,1.725v0.921C2257.577,1594.343,2256.805,1595.115,2255.852,1595.115z"/>
						<path fill="#2191F2" d="M2210.813,1609.975L2210.813,1609.975c-2.366,0-4.283-1.917-4.283-4.283l0,0
							c0-2.365,1.917-4.283,4.283-4.283l0,0c2.365,0,4.283,1.918,4.283,4.283l0,0
							C2215.096,1608.057,2213.178,1609.975,2210.813,1609.975z"/>
						<path fill="#E6E7E8" d="M2270.712,1607.702h-50.571c-0.952,0-1.725-0.772-1.725-1.725v-0.921c0-0.953,0.772-1.725,1.725-1.725
							h50.571c0.952,0,1.725,0.772,1.725,1.725v0.921C2272.437,1606.93,2271.665,1607.702,2270.712,1607.702z"/>
						<path fill="#2191F2" d="M2210.813,1644.939L2210.813,1644.939c-2.366,0-4.283-1.917-4.283-4.283l0,0
							c0-2.365,1.917-4.283,4.283-4.283l0,0c2.365,0,4.283,1.918,4.283,4.283l0,0
							C2215.096,1643.021,2213.178,1644.939,2210.813,1644.939z"/>
						<path fill="#E6E7E8" d="M2282.425,1642.666h-62.284c-0.952,0-1.725-0.772-1.725-1.725v-0.921c0-0.953,0.772-1.725,1.725-1.725
							h62.284c0.953,0,1.725,0.772,1.725,1.725v0.921C2284.15,1641.894,2283.378,1642.666,2282.425,1642.666z"/>
						<path fill="#2191F2" d="M2210.813,1657.526L2210.813,1657.526c-2.366,0-4.283-1.917-4.283-4.283l0,0
							c0-2.366,1.917-4.283,4.283-4.283l0,0c2.365,0,4.283,1.917,4.283,4.283l0,0
							C2215.096,1655.608,2213.178,1657.526,2210.813,1657.526z"/>
						<path fill="#E6E7E8" d="M2261.097,1655.253h-40.956c-0.952,0-1.725-0.772-1.725-1.725v-0.921c0-0.953,0.772-1.725,1.725-1.725
							h40.956c0.952,0,1.725,0.772,1.725,1.725v0.921C2262.822,1654.481,2262.049,1655.253,2261.097,1655.253z"/>
						<path fill="#2191F2" d="M2221.797,1669.007L2221.797,1669.007c-1.867,0-3.38-1.514-3.38-3.38l0,0
							c0-1.867,1.514-3.381,3.38-3.381l0,0c1.867,0,3.381,1.514,3.381,3.381l0,0
							C2225.178,1667.494,2223.665,1669.007,2221.797,1669.007z"/>
						<path fill="#E6E7E8" d="M2299.208,1667.213h-69.684c-0.953,0-1.725-0.772-1.725-1.725l0,0c0-0.953,0.772-1.725,1.725-1.725
							h69.684c0.952,0,1.725,0.772,1.725,1.725l0,0C2300.933,1666.441,2300.161,1667.213,2299.208,1667.213z"/>
						<path fill="#2191F2" d="M2221.797,1678.942L2221.797,1678.942c-1.867,0-3.38-1.514-3.38-3.381l0,0
							c0-1.867,1.514-3.38,3.38-3.38l0,0c1.867,0,3.381,1.514,3.381,3.38l0,0
							C2225.178,1677.428,2223.665,1678.942,2221.797,1678.942z"/>
						<path fill="#E6E7E8" d="M2270.712,1677.148h-41.188c-0.953,0-1.725-0.772-1.725-1.725l0,0c0-0.953,0.772-1.725,1.725-1.725
							h41.188c0.952,0,1.725,0.772,1.725,1.725l0,0C2272.437,1676.376,2271.665,1677.148,2270.712,1677.148z"/>
					</g>
					<g>
						<path fill="#2191F2" d="M2198.924,1729.728L2198.924,1729.728c-2.365,0-4.283-1.917-4.283-4.283l0,0
							c0-2.366,1.918-4.283,4.283-4.283l0,0c2.366,0,4.283,1.917,4.283,4.283l0,0
							C2203.208,1727.811,2201.29,1729.728,2198.924,1729.728z"/>
						<path fill="#E6E7E8" d="M2243.964,1727.456h-35.71c-0.953,0-1.725-0.772-1.725-1.725v-0.921c0-0.952,0.772-1.725,1.725-1.725
							h35.71c0.953,0,1.725,0.772,1.725,1.725v0.921C2245.689,1726.683,2244.917,1727.456,2243.964,1727.456z"/>
						<path fill="#2191F2" d="M2198.924,1777.804L2198.924,1777.804c-2.365,0-4.283-1.917-4.283-4.283l0,0
							c0-2.365,1.918-4.283,4.283-4.283l0,0c2.366,0,4.283,1.917,4.283,4.283l0,0
							C2203.208,1775.887,2201.29,1777.804,2198.924,1777.804z"/>
						<path fill="#E6E7E8" d="M2243.964,1775.532h-35.71c-0.953,0-1.725-0.772-1.725-1.725v-0.921c0-0.953,0.772-1.725,1.725-1.725
							h35.71c0.953,0,1.725,0.772,1.725,1.725v0.921C2245.689,1774.759,2244.917,1775.532,2243.964,1775.532z"/>
						<path fill="#2191F2" d="M2198.924,1840.39L2198.924,1840.39c-2.365,0-4.283-1.917-4.283-4.283l0,0
							c0-2.366,1.918-4.283,4.283-4.283l0,0c2.366,0,4.283,1.917,4.283,4.283l0,0
							C2203.208,1838.473,2201.29,1840.39,2198.924,1840.39z"/>
						<path fill="#E6E7E8" d="M2243.964,1838.118h-35.71c-0.953,0-1.725-0.772-1.725-1.725v-0.921c0-0.952,0.772-1.725,1.725-1.725
							h35.71c0.953,0,1.725,0.772,1.725,1.725v0.921C2245.689,1837.346,2244.917,1838.118,2243.964,1838.118z"/>
						<path fill="#2191F2" d="M2198.924,1856.562L2198.924,1856.562c-2.365,0-4.283-1.918-4.283-4.283l0,0
							c0-2.366,1.918-4.283,4.283-4.283l0,0c2.366,0,4.283,1.917,4.283,4.283l0,0
							C2203.208,1854.644,2201.29,1856.562,2198.924,1856.562z"/>
						<path fill="#E6E7E8" d="M2243.964,1854.289h-35.71c-0.953,0-1.725-0.772-1.725-1.725v-0.922c0-0.952,0.772-1.725,1.725-1.725
							h35.71c0.953,0,1.725,0.772,1.725,1.725v0.922C2245.689,1853.517,2244.917,1854.289,2243.964,1854.289z"/>
						<path fill="#2191F2" d="M2210.813,1742.315L2210.813,1742.315c-2.366,0-4.283-1.917-4.283-4.283l0,0
							c0-2.366,1.917-4.283,4.283-4.283l0,0c2.365,0,4.283,1.917,4.283,4.283l0,0
							C2215.096,1740.398,2213.178,1742.315,2210.813,1742.315z"/>
						<path fill="#E6E7E8" d="M2255.852,1740.043h-35.71c-0.952,0-1.725-0.772-1.725-1.725v-0.921c0-0.953,0.772-1.725,1.725-1.725
							h35.71c0.953,0,1.725,0.772,1.725,1.725v0.921C2257.577,1739.271,2256.805,1740.043,2255.852,1740.043z"/>
						<path fill="#2191F2" d="M2210.813,1754.902L2210.813,1754.902c-2.366,0-4.283-1.917-4.283-4.283v0
							c0-2.365,1.917-4.283,4.283-4.283l0,0c2.365,0,4.283,1.917,4.283,4.283v0
							C2215.096,1752.985,2213.178,1754.902,2210.813,1754.902z"/>
						<path fill="#E6E7E8" d="M2270.712,1752.63h-50.571c-0.952,0-1.725-0.772-1.725-1.725v-0.921c0-0.952,0.772-1.725,1.725-1.725
							h50.571c0.952,0,1.725,0.772,1.725,1.725v0.921C2272.437,1751.858,2271.665,1752.63,2270.712,1752.63z"/>
						<path fill="#2191F2" d="M2210.813,1789.867L2210.813,1789.867c-2.366,0-4.283-1.917-4.283-4.283l0,0
							c0-2.366,1.917-4.283,4.283-4.283l0,0c2.365,0,4.283,1.917,4.283,4.283l0,0
							C2215.096,1787.949,2213.178,1789.867,2210.813,1789.867z"/>
						<path fill="#E6E7E8" d="M2282.425,1787.594h-62.284c-0.952,0-1.725-0.772-1.725-1.725v-0.921c0-0.953,0.772-1.725,1.725-1.725
							h62.284c0.953,0,1.725,0.772,1.725,1.725v0.921C2284.15,1786.822,2283.378,1787.594,2282.425,1787.594z"/>
						<path fill="#2191F2" d="M2210.813,1802.454L2210.813,1802.454c-2.366,0-4.283-1.918-4.283-4.283l0,0
							c0-2.366,1.917-4.283,4.283-4.283l0,0c2.365,0,4.283,1.917,4.283,4.283l0,0
							C2215.096,1800.536,2213.178,1802.454,2210.813,1802.454z"/>
						<path fill="#E6E7E8" d="M2261.097,1800.181h-40.956c-0.952,0-1.725-0.772-1.725-1.725v-0.921c0-0.953,0.772-1.725,1.725-1.725
							h40.956c0.952,0,1.725,0.772,1.725,1.725v0.921C2262.822,1799.409,2262.049,1800.181,2261.097,1800.181z"/>
						<path fill="#2191F2" d="M2221.797,1813.935L2221.797,1813.935c-1.867,0-3.38-1.513-3.38-3.38l0,0
							c0-1.867,1.514-3.38,3.38-3.38l0,0c1.867,0,3.381,1.513,3.381,3.38l0,0
							C2225.178,1812.422,2223.665,1813.935,2221.797,1813.935z"/>
						<path fill="#E6E7E8" d="M2299.208,1812.142h-69.684c-0.953,0-1.725-0.772-1.725-1.725l0,0c0-0.952,0.772-1.725,1.725-1.725
							h69.684c0.952,0,1.725,0.772,1.725,1.725l0,0C2300.933,1811.369,2300.161,1812.142,2299.208,1812.142z"/>
						<path fill="#2191F2" d="M2221.797,1823.87L2221.797,1823.87c-1.867,0-3.38-1.513-3.38-3.38l0,0c0-1.867,1.514-3.38,3.38-3.38
							l0,0c1.867,0,3.381,1.513,3.381,3.38l0,0C2225.178,1822.356,2223.665,1823.87,2221.797,1823.87z"/>
						<path fill="#E6E7E8" d="M2270.712,1822.076h-41.188c-0.953,0-1.725-0.772-1.725-1.725l0,0c0-0.952,0.772-1.725,1.725-1.725
							h41.188c0.952,0,1.725,0.772,1.725,1.725l0,0C2272.437,1821.304,2271.665,1822.076,2270.712,1822.076z"/>
					</g>
				</g>
				<g>
					<g>
						<rect x="1673.051" y="1532.813" fill="#FFFFFF" width="459.244" height="342.203"/>
						<rect x="1673.051" y="1532.813" width="459.244" height="30.228"/>
						<ellipse fill="#F3595F" cx="1694.3" cy="1547.586" rx="4.429" ry="4.116"/>
						<ellipse fill="#FDE555" cx="1710.109" cy="1547.586" rx="4.429" ry="4.116"/>
						<ellipse fill="#29A764" cx="1725.919" cy="1547.586" rx="4.429" ry="4.116"/>
					</g>
					<g>
						<path fill="#4F5569" d="M1701.188,1589.961L1701.188,1589.961c-1.358,0-2.459-1.101-2.459-2.459l0,0
							c0-1.358,1.101-2.459,2.459-2.459l0,0c1.358,0,2.459,1.101,2.459,2.459l0,0
							C1703.648,1588.86,1702.546,1589.961,1701.188,1589.961z"/>
						<path fill="#D2905C" d="M1738.092,1589.961h-24.649c-1.358,0-2.459-1.101-2.459-2.459l0,0c0-1.358,1.101-2.459,2.459-2.459
							h24.649c1.358,0,2.459,1.101,2.459,2.459l0,0C1740.551,1588.86,1739.45,1589.961,1738.092,1589.961z"/>
						<path fill="#E4464A" d="M1799.326,1589.961h-49.01c-1.358,0-2.459-1.101-2.459-2.459l0,0c0-1.358,1.101-2.459,2.459-2.459
							h49.01c1.358,0,2.459,1.101,2.459,2.459l0,0C1801.785,1588.86,1800.684,1589.961,1799.326,1589.961z"/>
						<path fill="#4F5569" d="M1701.188,1604.437L1701.188,1604.437c-1.358,0-2.459-1.101-2.459-2.459l0,0
							c0-1.358,1.101-2.459,2.459-2.459l0,0c1.358,0,2.459,1.101,2.459,2.459l0,0
							C1703.648,1603.335,1702.546,1604.437,1701.188,1604.437z"/>
						<path fill="#C2349A" d="M1782.213,1604.437h-68.771c-1.358,0-2.459-1.101-2.459-2.459l0,0c0-1.358,1.101-2.459,2.459-2.459
							h68.771c1.358,0,2.459,1.101,2.459,2.459l0,0C1784.672,1603.335,1783.571,1604.437,1782.213,1604.437z"/>
						<path fill="#92C967" d="M1919.535,1604.437h-125.098c-1.358,0-2.459-1.101-2.459-2.459l0,0c0-1.358,1.101-2.459,2.459-2.459
							h125.098c1.358,0,2.459,1.101,2.459,2.459l0,0C1921.994,1603.335,1920.893,1604.437,1919.535,1604.437z"/>
						<path fill="#4F5569" d="M1701.188,1618.912L1701.188,1618.912c-1.358,0-2.459-1.101-2.459-2.459l0,0
							c0-1.358,1.101-2.459,2.459-2.459l0,0c1.358,0,2.459,1.101,2.459,2.459l0,0
							C1703.648,1617.811,1702.546,1618.912,1701.188,1618.912z"/>
						<path fill="#C2349A" d="M1738.092,1618.912h-24.649c-1.358,0-2.459-1.101-2.459-2.459l0,0c0-1.358,1.101-2.459,2.459-2.459
							h24.649c1.358,0,2.459,1.101,2.459,2.459l0,0C1740.551,1617.811,1739.45,1618.912,1738.092,1618.912z"/>
						<path fill="#4F5569" d="M1701.188,1633.387L1701.188,1633.387c-1.358,0-2.459-1.101-2.459-2.459l0,0
							c0-1.358,1.101-2.459,2.459-2.459l0,0c1.358,0,2.459,1.101,2.459,2.459l0,0
							C1703.648,1632.286,1702.546,1633.387,1701.188,1633.387z"/>
						<path fill="#E4464A" d="M1725.635,1633.387h-12.193c-1.358,0-2.459-1.101-2.459-2.459l0,0c0-1.358,1.101-2.459,2.459-2.459
							h12.193c1.358,0,2.459,1.101,2.459,2.459l0,0C1728.095,1632.286,1726.994,1633.387,1725.635,1633.387z"/>
						<path fill="#A7A9AC" d="M1782.213,1633.387h-44.354c-1.358,0-2.459-1.101-2.459-2.459l0,0c0-1.358,1.101-2.459,2.459-2.459
							h44.354c1.358,0,2.459,1.101,2.459,2.459l0,0C1784.672,1632.286,1783.571,1633.387,1782.213,1633.387z"/>
						<path fill="#4F5569" d="M1701.188,1647.861L1701.188,1647.861c-1.358,0-2.459-1.101-2.459-2.459l0,0
							c0-1.358,1.101-2.459,2.459-2.459l0,0c1.358,0,2.459,1.101,2.459,2.459l0,0
							C1703.648,1646.76,1702.546,1647.861,1701.188,1647.861z"/>
						<path fill="#A7A9AC" d="M1752.876,1647.861h-24.649c-1.358,0-2.459-1.101-2.459-2.459l0,0c0-1.358,1.101-2.459,2.459-2.459
							h24.649c1.358,0,2.459,1.101,2.459,2.459l0,0C1755.335,1646.76,1754.234,1647.861,1752.876,1647.861z"/>
						<path fill="#0C97B3" d="M1825.251,1647.861h-60.152c-1.358,0-2.459-1.101-2.459-2.459l0,0c0-1.358,1.101-2.459,2.459-2.459
							h60.152c1.358,0,2.459,1.101,2.459,2.459l0,0C1827.71,1646.76,1826.609,1647.861,1825.251,1647.861z"/>
						<path fill="#4F5569" d="M1701.188,1662.336L1701.188,1662.336c-1.358,0-2.459-1.101-2.459-2.459l0,0
							c0-1.358,1.101-2.459,2.459-2.459l0,0c1.358,0,2.459,1.101,2.459,2.459l0,0
							C1703.648,1661.235,1702.546,1662.336,1701.188,1662.336z"/>
						<path fill="#92C967" d="M1944.942,1662.336h-216.716c-1.358,0-2.459-1.101-2.459-2.459l0,0c0-1.358,1.101-2.459,2.459-2.459
							h216.716c1.358,0,2.459,1.101,2.459,2.459l0,0C1947.401,1661.235,1946.3,1662.336,1944.942,1662.336z"/>
						<path fill="#F5AB35" d="M1983.832,1662.336h-25.005c-1.358,0-2.459-1.101-2.459-2.459l0,0c0-1.358,1.101-2.459,2.459-2.459
							h25.005c1.358,0,2.459,1.101,2.459,2.459l0,0C1986.292,1661.235,1985.19,1662.336,1983.832,1662.336z"/>
						<path fill="#F5AB35" d="M1983.832,1661.927h-25.005c-1.358,0-2.459-1.101-2.459-2.459l0,0c0-1.358,1.101-2.459,2.459-2.459
							h25.005c1.358,0,2.459,1.101,2.459,2.459l0,0C1986.292,1660.826,1985.19,1661.927,1983.832,1661.927z"/>
						<path fill="#4F5569" d="M1701.188,1676.812L1701.188,1676.812c-1.358,0-2.459-1.101-2.459-2.459l0,0
							c0-1.358,1.101-2.459,2.459-2.459l0,0c1.358,0,2.459,1.102,2.459,2.459l0,0
							C1703.648,1675.71,1702.546,1676.812,1701.188,1676.812z"/>
						<path fill="#0C97B3" d="M2045.728,1676.812h-300.521c-1.358,0-2.459-1.101-2.459-2.459l0,0c0-1.358,1.101-2.459,2.459-2.459
							h300.521c1.358,0,2.459,1.102,2.459,2.459l0,0C2048.187,1675.71,2047.085,1676.812,2045.728,1676.812z"/>
						<path fill="#4F5569" d="M1701.188,1691.286L1701.188,1691.286c-1.358,0-2.459-1.101-2.459-2.459l0,0
							c0-1.358,1.101-2.459,2.459-2.459l0,0c1.358,0,2.459,1.102,2.459,2.459l0,0
							C1703.648,1690.186,1702.546,1691.286,1701.188,1691.286z"/>
						<path fill="#0C97B3" d="M1924.675,1691.286h-179.469c-1.358,0-2.459-1.101-2.459-2.459l0,0c0-1.358,1.101-2.459,2.459-2.459
							h179.469c1.358,0,2.459,1.102,2.459,2.459l0,0C1927.135,1690.186,1926.034,1691.286,1924.675,1691.286z"/>
						<path fill="#92C967" d="M1983.832,1691.286h-46.367c-1.358,0-2.459-1.101-2.459-2.459l0,0c0-1.358,1.101-2.459,2.459-2.459
							h46.367c1.358,0,2.459,1.102,2.459,2.459l0,0C1986.292,1690.186,1985.19,1691.286,1983.832,1691.286z"/>
						<path fill="#4F5569" d="M1701.188,1705.761L1701.188,1705.761c-1.358,0-2.459-1.101-2.459-2.459l0,0
							c0-1.358,1.101-2.459,2.459-2.459l0,0c1.358,0,2.459,1.101,2.459,2.459l0,0
							C1703.648,1704.66,1702.546,1705.761,1701.188,1705.761z"/>
						<path fill="#E4464A" d="M1740.288,1705.761h-12.062c-1.358,0-2.459-1.101-2.459-2.459l0,0c0-1.358,1.101-2.459,2.459-2.459
							h12.062c1.358,0,2.459,1.101,2.459,2.459l0,0C1742.747,1704.66,1741.646,1705.761,1740.288,1705.761z"/>
						<path fill="#4F5569" d="M1701.188,1720.046L1701.188,1720.046c-1.358,0-2.459-1.101-2.459-2.459l0,0
							c0-1.358,1.101-2.459,2.459-2.459l0,0c1.358,0,2.459,1.101,2.459,2.459l0,0
							C1703.648,1718.945,1702.546,1720.046,1701.188,1720.046z"/>
						<path fill="#A7A9AC" d="M1752.876,1720.046h-24.649c-1.358,0-2.459-1.101-2.459-2.459l0,0c0-1.358,1.101-2.459,2.459-2.459
							h24.649c1.358,0,2.459,1.101,2.459,2.459l0,0C1755.335,1718.945,1754.234,1720.046,1752.876,1720.046z"/>
						<path fill="#0C97B3" d="M1825.251,1720.046h-60.152c-1.358,0-2.459-1.101-2.459-2.459l0,0c0-1.358,1.101-2.459,2.459-2.459
							h60.152c1.358,0,2.459,1.101,2.459,2.459l0,0C1827.71,1718.945,1826.609,1720.046,1825.251,1720.046z"/>
						<path fill="#4F5569" d="M1701.188,1734.521L1701.188,1734.521c-1.358,0-2.459-1.101-2.459-2.459l0,0
							c0-1.358,1.101-2.459,2.459-2.459l0,0c1.358,0,2.459,1.101,2.459,2.459l0,0
							C1703.648,1733.42,1702.546,1734.521,1701.188,1734.521z"/>
						<path fill="#92C967" d="M1944.942,1734.521h-216.716c-1.358,0-2.459-1.101-2.459-2.459l0,0c0-1.358,1.101-2.459,2.459-2.459
							h216.716c1.358,0,2.459,1.101,2.459,2.459l0,0C1947.401,1733.42,1946.3,1734.521,1944.942,1734.521z"/>
						<path fill="#F5AB35" d="M1983.832,1734.521h-25.005c-1.358,0-2.459-1.101-2.459-2.459l0,0c0-1.358,1.101-2.459,2.459-2.459
							h25.005c1.358,0,2.459,1.101,2.459,2.459l0,0C1986.292,1733.42,1985.19,1734.521,1983.832,1734.521z"/>
						<path fill="#F5AB35" d="M1983.832,1734.111h-25.005c-1.358,0-2.459-1.101-2.459-2.459l0,0c0-1.358,1.101-2.459,2.459-2.459
							h25.005c1.358,0,2.459,1.101,2.459,2.459l0,0C1986.292,1733.01,1985.19,1734.111,1983.832,1734.111z"/>
						<path fill="#4F5569" d="M1701.188,1748.996L1701.188,1748.996c-1.358,0-2.459-1.101-2.459-2.459l0,0
							c0-1.358,1.101-2.459,2.459-2.459l0,0c1.358,0,2.459,1.101,2.459,2.459l0,0
							C1703.648,1747.895,1702.546,1748.996,1701.188,1748.996z"/>
						<path fill="#E4464A" d="M2045.728,1748.996h-300.521c-1.358,0-2.459-1.101-2.459-2.459l0,0c0-1.358,1.101-2.459,2.459-2.459
							h300.521c1.358,0,2.459,1.101,2.459,2.459l0,0C2048.187,1747.895,2047.085,1748.996,2045.728,1748.996z"/>
						<path fill="#4F5569" d="M1701.188,1763.471L1701.188,1763.471c-1.358,0-2.459-1.101-2.459-2.459l0,0
							c0-1.358,1.101-2.459,2.459-2.459l0,0c1.358,0,2.459,1.101,2.459,2.459l0,0
							C1703.648,1762.37,1702.546,1763.471,1701.188,1763.471z"/>
						<path fill="#0C97B3" d="M1795.318,1763.471h-50.111c-1.358,0-2.459-1.101-2.459-2.459l0,0c0-1.358,1.101-2.459,2.459-2.459
							h50.111c1.358,0,2.459,1.101,2.459,2.459l0,0C1797.777,1762.37,1796.676,1763.471,1795.318,1763.471z"/>
						<path fill="#A7A9AC" d="M1924.675,1763.471h-114.79c-1.358,0-2.459-1.101-2.459-2.459l0,0c0-1.358,1.101-2.459,2.459-2.459
							h114.79c1.358,0,2.459,1.101,2.459,2.459l0,0C1927.135,1762.37,1926.034,1763.471,1924.675,1763.471z"/>
						<path fill="#92C967" d="M1983.832,1763.471h-46.367c-1.358,0-2.459-1.101-2.459-2.459l0,0c0-1.358,1.101-2.459,2.459-2.459
							h46.367c1.358,0,2.459,1.101,2.459,2.459l0,0C1986.292,1762.37,1985.19,1763.471,1983.832,1763.471z"/>
						<path fill="#4F5569" d="M1701.188,1777.945L1701.188,1777.945c-1.358,0-2.459-1.101-2.459-2.459l0,0
							c0-1.358,1.101-2.459,2.459-2.459l0,0c1.358,0,2.459,1.101,2.459,2.459l0,0
							C1703.648,1776.845,1702.546,1777.945,1701.188,1777.945z"/>
						<path fill="#F5AB35" d="M1740.288,1777.945h-12.062c-1.358,0-2.459-1.101-2.459-2.459l0,0c0-1.358,1.101-2.459,2.459-2.459
							h12.062c1.358,0,2.459,1.101,2.459,2.459l0,0C1742.747,1776.845,1741.646,1777.945,1740.288,1777.945z"/>
						<path fill="#4F5569" d="M1701.188,1792.23L1701.188,1792.23c-1.358,0-2.459-1.101-2.459-2.459l0,0
							c0-1.358,1.101-2.459,2.459-2.459l0,0c1.358,0,2.459,1.101,2.459,2.459l0,0
							C1703.648,1791.129,1702.546,1792.23,1701.188,1792.23z"/>
						<path fill="#A7A9AC" d="M1752.876,1792.23h-24.649c-1.358,0-2.459-1.101-2.459-2.459l0,0c0-1.358,1.101-2.459,2.459-2.459
							h24.649c1.358,0,2.459,1.101,2.459,2.459l0,0C1755.335,1791.129,1754.234,1792.23,1752.876,1792.23z"/>
						<path fill="#0C97B3" d="M1825.251,1792.23h-60.152c-1.358,0-2.459-1.101-2.459-2.459l0,0c0-1.358,1.101-2.459,2.459-2.459
							h60.152c1.358,0,2.459,1.101,2.459,2.459l0,0C1827.71,1791.129,1826.609,1792.23,1825.251,1792.23z"/>
						<path fill="#4F5569" d="M1701.188,1806.705L1701.188,1806.705c-1.358,0-2.459-1.101-2.459-2.459l0,0
							c0-1.358,1.101-2.459,2.459-2.459l0,0c1.358,0,2.459,1.101,2.459,2.459l0,0
							C1703.648,1805.604,1702.546,1806.705,1701.188,1806.705z"/>
						<path fill="#92C967" d="M1944.942,1806.705h-216.716c-1.358,0-2.459-1.101-2.459-2.459l0,0c0-1.358,1.101-2.459,2.459-2.459
							h216.716c1.358,0,2.459,1.101,2.459,2.459l0,0C1947.401,1805.604,1946.3,1806.705,1944.942,1806.705z"/>
						<path fill="#F5AB35" d="M1983.832,1806.705h-25.005c-1.358,0-2.459-1.101-2.459-2.459l0,0c0-1.358,1.101-2.459,2.459-2.459
							h25.005c1.358,0,2.459,1.101,2.459,2.459l0,0C1986.292,1805.604,1985.19,1806.705,1983.832,1806.705z"/>
						<path fill="#92C967" d="M1983.832,1806.296h-25.005c-1.358,0-2.459-1.101-2.459-2.459l0,0c0-1.358,1.101-2.459,2.459-2.459
							h25.005c1.358,0,2.459,1.101,2.459,2.459l0,0C1986.292,1805.195,1985.19,1806.296,1983.832,1806.296z"/>
						<path fill="#4F5569" d="M1701.188,1821.18L1701.188,1821.18c-1.358,0-2.459-1.101-2.459-2.459l0,0
							c0-1.358,1.101-2.459,2.459-2.459l0,0c1.358,0,2.459,1.101,2.459,2.459l0,0
							C1703.648,1820.079,1702.546,1821.18,1701.188,1821.18z"/>
						<path fill="#0C97B3" d="M2045.728,1821.18h-300.521c-1.358,0-2.459-1.101-2.459-2.459l0,0c0-1.358,1.101-2.459,2.459-2.459
							h300.521c1.358,0,2.459,1.101,2.459,2.459l0,0C2048.187,1820.079,2047.085,1821.18,2045.728,1821.18z"/>
						<path fill="#4F5569" d="M1701.188,1835.655L1701.188,1835.655c-1.358,0-2.459-1.101-2.459-2.459l0,0
							c0-1.358,1.101-2.459,2.459-2.459l0,0c1.358,0,2.459,1.101,2.459,2.459l0,0
							C1703.648,1834.554,1702.546,1835.655,1701.188,1835.655z"/>
						<path fill="#A7A9AC" d="M1924.675,1835.655h-179.469c-1.358,0-2.459-1.101-2.459-2.459l0,0c0-1.358,1.101-2.459,2.459-2.459
							h179.469c1.358,0,2.459,1.101,2.459,2.459l0,0C1927.135,1834.554,1926.034,1835.655,1924.675,1835.655z"/>
						<path fill="#E4464A" d="M1983.832,1835.655h-46.367c-1.358,0-2.459-1.101-2.459-2.459l0,0c0-1.358,1.101-2.459,2.459-2.459
							h46.367c1.358,0,2.459,1.101,2.459,2.459l0,0C1986.292,1834.554,1985.19,1835.655,1983.832,1835.655z"/>
						<path fill="#A7A9AC" d="M2045.728,1835.655h-46.367c-1.358,0-2.459-1.101-2.459-2.459l0,0c0-1.358,1.101-2.459,2.459-2.459
							h46.367c1.358,0,2.459,1.101,2.459,2.459l0,0C2048.187,1834.554,2047.085,1835.655,2045.728,1835.655z"/>
						<path fill="#4F5569" d="M1701.188,1850.13L1701.188,1850.13c-1.358,0-2.459-1.101-2.459-2.459v-0.001
							c0-1.357,1.101-2.458,2.459-2.458l0,0c1.358,0,2.459,1.101,2.459,2.458v0.001
							C1703.648,1849.029,1702.546,1850.13,1701.188,1850.13z"/>
						<path fill="#F5AB35" d="M1740.288,1850.13h-12.062c-1.358,0-2.459-1.101-2.459-2.459v-0.001c0-1.357,1.101-2.458,2.459-2.458
							h12.062c1.358,0,2.459,1.101,2.459,2.458v0.001C1742.747,1849.029,1741.646,1850.13,1740.288,1850.13z"/>
					</g>
				</g>
			</g>
		</g>
		<g>
			<g>
				<g>
					<g>
						<path fill="#FFFFFF" d="M2606.058,1989.983h3.16"/>
						<path fill="#FFFFFF" d="M2609.218,2036.571h-3.16"/>
					</g>
				</g>
				<g>
					<g>
						<line fill="#E6E6E6" x1="2429.728" y1="2006.403" x2="2429.728" y2="2007.603"/>
						<line fill="#E6E6E6" x1="2540.257" y1="2007.603" x2="2540.257" y2="2006.403"/>
					</g>
				</g>
			</g>
		</g>
		<g>
			<g>
				<rect x="1242.007" y="2095.859" fill="#9F9FA0" width="26.14" height="728.642"/>
				<polygon opacity="0.25" fill="#BCBEC0" points="1268.147,2099.81 1268.147,2095.859 1242.007,2095.859 1242.007,2120.14 				"/>
			</g>
			<g>
				<rect x="2726.257" y="2095.859" fill="#9F9FA0" width="26.141" height="728.642"/>
				<polygon opacity="0.25" fill="#BCBEC0" points="2752.397,2099.81 2752.397,2095.859 2726.257,2095.859 2726.257,2120.14 				"/>
			</g>
			<rect x="1194.925" y="2074.369" fill="#FFFFFF" width="1612.076" height="21.49"/>
		</g>
		<g>
			<g>
				<g>
					<g>
						<g>
							<g>
								<g>
									<path fill="#808285" d="M2343.292,1947.713l-0.901-0.422c0.728-3.614-2.61-4.575-3.93-4.813
										c-1.311-0.291-4.759-0.698-5.487,2.917l-0.993,0.04L2309,2059.524c-0.7,3.474-0.348,7.077,1.012,10.35l0.368,0.886
										c0.57,1.372,2.306,1.802,3.45,0.854l0.557-0.462c3.138-2.601,5.289-6.199,6.094-10.194L2343.292,1947.713z"/>
									<path fill="#414042" d="M2338.461,1942.478c-1.311-0.291-4.759-0.698-5.487,2.917l-0.993,0.04l-0.454,2.254l11.312,2.278
										l0.454-2.254l-0.901-0.422C2343.119,1943.677,2339.781,1942.716,2338.461,1942.478z"/>
								</g>
							</g>
							<path fill="#E6E6E6" d="M2314.877,2059.9c-1.287-0.26-2.12-1.513-1.86-2.802l1.81-8.983c0.259-1.285,1.513-2.121,2.8-1.861
								l0,0c1.289,0.26,2.122,1.515,1.863,2.801l-1.81,8.982C2317.42,2059.327,2316.166,2060.159,2314.877,2059.9L2314.877,2059.9z"
								/>
							<circle fill="#8CC63F" cx="2317.108" cy="2048.827" r="1.776"/>
						</g>
						<path fill="#333333" d="M2374.491,2074.369h-110.356v-3.485c0-5.198,4.214-9.412,9.413-9.412h91.53
							c5.199,0,9.413,4.214,9.413,9.412V2074.369z"/>
						<path fill="#F2AD96" d="M2306.189,1982.087l19.367-4.49l-1.509,7.492l29.678,0.242c3.75,0.029,6.774,3.078,6.774,6.828v1.029
							c0,3.771-3.058,6.829-6.829,6.829l0,0v20.331c0,9.19-0.177,18.559-1.822,26.849c-2.982,15.024-16.347,25.737-31.665,25.737
							h-19.921l-15.087-64.88C2286.012,2000.588,2300.076,1986.455,2306.189,1982.087z"/>
					</g>
					<path fill="#20448A" d="M2283.66,2008.055l22.413,6.73c15.007,4.506,24.179,19.628,21.24,35.02l0,0
						c-2.752,14.415-15.358,24.841-30.034,24.841h-65.122L2283.66,2008.055z"/>
				</g>
				<path fill="#20448A" d="M2086.192,1781.637l95.956,26.236c18.583,5.081,33.594,18.779,40.349,36.821l61.163,163.36
					c12.066,32.229-11.76,66.591-46.173,66.591H1992.29v-300.968L2086.192,1781.637z"/>
				<g>
					<path fill="#132445" d="M2237.486,2074.646h59.793c1.391,0,2.763-0.094,4.109-0.276l0,0
						c-90.5,1.894-104.466-46.661-105.302-73.529l-5.146,70.931l-0.188,2.599l0.106,0.276h41.298H2237.486z"/>
				</g>
				<polygon fill="#20448A" points="1810.17,2024.341 1826.02,2236.618 2171.83,2236.618 2197.34,1999.871 				"/>
				<path fill="#20448A" d="M1915.734,1781.637l-95.956,26.236c-18.583,5.081-33.594,18.779-40.349,36.821l-61.182,163.411
					c-12.058,32.204,11.751,66.54,46.138,66.54h245.251v-300.968L1915.734,1781.637z"/>
				<path fill="#132445" d="M1812.441,2074.369l-5.568-137.673c0,0-1.864,96.177-32.304,137.673
					c-0.068,0.094-0.13,0.184-0.198,0.276h37.931L1812.441,2074.369z"/>
			</g>
			<polygon fill="#F2AD96" points="2031.693,1685.524 2001.055,1685.524 1970.418,1685.524 1939.78,1773.678 2001.055,1773.678 
				2062.33,1773.678 			"/>
			<path fill="#2E1708" d="M1999.99,1717.633L1999.99,1717.633c30.051,0,58.054-15.407,73.971-40.896
				c8.042-12.878,14.584-28.123,15.913-44.728c3.892-48.65,0-122.598,0-122.598s-60.326,19.46-95.354,17.514
				c-29.229-1.624-103.172,26.563-79.367,124.131C1924.691,1690.145,1959.755,1717.633,1999.99,1717.633z"/>
			<path fill="#3462BA" d="M1915.734,1781.637h170.642c0,0-26.732-28.198-85.321-28.198S1915.734,1781.637,1915.734,1781.637z"/>
			<path fill="#1C0E05" d="M2073.961,1676.737c7.098-11.367,13.022-24.579,15.23-38.941c-2.526-67.499-43.996-67.499-85.522-67.499
				c-47.036,0-101.495,6.159-87.818,83.375c10.436,37.689,44.81,63.96,84.139,63.96l0,0
				C2030.041,1717.633,2058.044,1702.226,2073.961,1676.737z"/>
			<g>
				<g>
					<path d="M1818.054,2695.681l-13.125,60.539l-3.672,13.834c-4.961,18.688,9.128,37.004,28.463,37.004h45.124
						c16.787,0,30.179-14.013,29.418-30.782l-3.331-73.458l-75.339-7.137H1818.054z"/>
					<path fill="#414042" d="M1874.843,2796.663h-45.124c-14.819,0-26.545-10.764-28.986-24.203
						c-3.204,17.822,10.482,34.598,28.986,34.598h45.124c16.787,0,30.179-14.013,29.418-30.782l-0.241-5.307
						C1902.183,2785.387,1889.896,2796.663,1874.843,2796.663z"/>
				</g>
				<path fill="#1F120A" d="M1814.513,2301.983l3.541,393.697c0,28.825,89.954,28.825,89.954,0l32.259-387.252L1814.513,2301.983z"
					/>
			</g>
			<g>
				<g>
					<path d="M2187.284,2695.681l13.125,60.539l3.672,13.834c4.961,18.688-9.128,37.004-28.462,37.004h-45.124
						c-16.788,0-30.178-14.013-29.418-30.782l3.331-73.458l75.339-7.137H2187.284z"/>
					<path fill="#414042" d="M2130.494,2796.663h45.124c14.819,0,26.545-10.764,28.986-24.203
						c3.204,17.822-10.482,34.598-28.986,34.598h-45.124c-16.788,0-30.178-14.013-29.418-30.782l0.241-5.307
						C2103.155,2785.387,2115.442,2796.663,2130.494,2796.663z"/>
				</g>
				<path fill="#1F120A" d="M2190.825,2301.983l-3.541,393.697c0,28.825-89.954,28.825-89.954,0l-32.259-387.252L2190.825,2301.983z
					"/>
			</g>
			<path fill="#232324" d="M2164.195,2460.388H1833.4c-18.305,0-33.145-14.84-33.145-33.146l0,0
				c0-18.306,14.84-33.145,33.145-33.145h330.795c18.306,0,33.145,14.839,33.145,33.145l0,0
				C2197.34,2445.548,2182.5,2460.388,2164.195,2460.388z"/>
			<path opacity="0.15" d="M2174.051,2402.43c-2.686-3.979-8.688-4.487-13.806-4.56c-64.147-0.9-128.306-1.145-192.459-0.734
				c-31.929,0.205-63.856,0.571-95.78,1.101c-12.825,0.212-62.05-4.005-40.947,19.947c8.27,9.386,24.882,8.475,36.814,8.642
				c16.754,0.235,33.456-1.355,50.171-2.12c80.688-3.69,163.602,14.61,241.309-5.564c4.389-1.14,8.912-2.489,12.192-5.384
				C2174.826,2410.862,2176.445,2405.976,2174.051,2402.43z"/>
			<g>
				<rect x="1988.264" y="2454.369" fill="#1B1B1C" width="26.771" height="254.908"/>
				<rect x="1985.636" y="2560.54" width="32.006" height="67.091"/>
				<path fill="#1B1B1C" d="M2047.362,2720.703L2047.362,2720.703c0-7.485-6.067-13.553-13.552-13.553h-65.649
					c-7.485,0-13.552,6.067-13.552,13.553l0,0c0,8.665-7.024,15.688-15.689,15.688h-27.342c-10.904,0-19.744,8.84-19.744,19.744l0,0
					h214.69l0,0c0-10.904-8.84-19.744-19.744-19.744h-23.729C2054.387,2736.392,2047.362,2729.368,2047.362,2720.703z"/>
				<g>
					<circle fill="#1B1B1C" cx="1912.034" cy="2784.368" r="28.233"/>
					<circle cx="1912.034" cy="2784.368" r="12.461"/>
				</g>
				<g>
					<circle fill="#1B1B1C" cx="1998.097" cy="2784.368" r="28.233"/>
					<circle cx="1998.097" cy="2784.368" r="12.461"/>
				</g>
				<g>
					<circle fill="#1B1B1C" cx="2084.161" cy="2784.368" r="28.233"/>
					<circle cx="2084.161" cy="2784.368" r="12.461"/>
				</g>
			</g>
			<path fill="#29180E" d="M1826.02,2236.618l-12.188,42.335c0,0-32.904,132.58,77.115,132.58c110.018,0,241.677,0,241.677,0
				s79.207-0.339,58.127-113.245c-10.006-53.593-18.923-61.67-18.923-61.67H1826.02z"/>
			<g>
				<path fill="#232324" d="M2083.618,1943.064h-165.309c-24.932,0-45.998,21.343-49.229,49.877l-38.021,286.243
					c-3.885,34.306,19.254,64.73,49.229,64.73h241.351c29.975,0,53.114-30.425,49.229-64.73l-38.021-286.243
					C2129.616,1964.407,2108.55,1943.064,2083.618,1943.064z"/>
				<circle fill="#1B1B1C" cx="2002.969" cy="2123.685" r="64.304"/>
				<path opacity="0.2" d="M2056.894,2158.696l-53.925-35.012l-5.667,54l3.416,10.247c0.749,0.025,1.496,0.057,2.251,0.057
					C2025.565,2187.988,2045.426,2176.323,2056.894,2158.696z"/>
				<path d="M2002.969,2448.014L2002.969,2448.014c-9.47,0-17.146-7.677-17.146-17.146v-290.036c0-9.47,7.676-17.146,17.146-17.146
					l0,0c9.469,0,17.146,7.677,17.146,17.146v290.036C2020.115,2440.337,2012.438,2448.014,2002.969,2448.014z"/>
				<path d="M2196.386,2419.474c-3.501,14.551-16.566,25.376-32.191,25.376h-78.331c-24.661,0-48.311-9.796-65.749-27.234l0,0
					h-34.288l0,0c-17.438,17.438-41.088,27.234-65.749,27.234H1833.4c-15.625,0-28.69-10.825-32.191-25.376
					c-0.601,2.496-0.954,5.088-0.954,7.769c0,18.306,14.84,33.146,33.145,33.146c126.409,6.802,244.083,9.925,330.795,0
					c18.306,0,33.145-14.84,33.145-33.146C2197.34,2424.562,2196.987,2421.97,2196.386,2419.474z"/>
			</g>
		</g>
	</g>
</g>
<g id="LWPOLYLINE_6_">
	
		<path fill="#016481" stroke="#016481" stroke-width="0.7087" stroke-linecap="round" stroke-linejoin="round" stroke-miterlimit="10" d="
		M1392.031,981.787h348.902c10.799,0,19.553,8.754,19.553,19.553v347.859c0,10.799-8.754,19.553-19.553,19.553h-348.902
		c-10.799,0-19.553-8.754-19.553-19.553V1001.34C1372.478,990.541,1381.232,981.787,1392.031,981.787z"/>
</g>
<g id="LWPOLYLINE_11_">
	
		<path fill="#016481" stroke="#016481" stroke-width="0.7087" stroke-linecap="round" stroke-linejoin="round" stroke-miterlimit="10" d="
		M2257.339,981.787h348.902c10.798,0,19.553,8.754,19.553,19.553v347.859c0,10.799-8.755,19.553-19.553,19.553h-348.902
		c-10.799,0-19.553-8.754-19.553-19.553V1001.34C2237.786,990.541,2246.54,981.787,2257.339,981.787z"/>
</g>
<g id="LWPOLYLINE_12_">
	
		<path fill="none" stroke="#CECFD1" stroke-width="0.7087" stroke-linecap="round" stroke-linejoin="round" stroke-miterlimit="10" d="
		M2257.339,975.27h348.902c14.397,0,26.07,11.672,26.07,26.07v347.859c0,14.398-11.673,26.07-26.07,26.07h-348.902
		c-14.398,0-26.07-11.672-26.07-26.07V1001.34C2231.269,986.941,2242.94,975.27,2257.339,975.27z"/>
</g>
<g id="LWPOLYLINE_14_">
	
		<path fill="none" stroke="#CECFD1" stroke-width="0.7087" stroke-linecap="round" stroke-linejoin="round" stroke-miterlimit="10" d="
		M1824.233,975.27h348.902c14.398,0,26.07,11.672,26.07,26.07v347.859c0,14.398-11.672,26.07-26.07,26.07h-348.902
		c-14.398,0-26.07-11.672-26.07-26.07V1001.34C1798.163,986.941,1809.834,975.27,1824.233,975.27z"/>
</g>
<g id="CIRCLE_2_">
	
		<path fill="#CECFD1" stroke="#CECFD1" stroke-width="0.7087" stroke-linecap="round" stroke-linejoin="round" stroke-miterlimit="10" d="
		M2022.609,1173.539c0-13.214-10.712-23.926-23.925-23.926c-13.214,0-23.926,10.712-23.926,23.926
		c0,13.214,10.712,23.926,23.926,23.926C2011.897,1197.465,2022.609,1186.753,2022.609,1173.539L2022.609,1173.539z"/>
</g>
<g id="LWPOLYLINE_16_">
	
		<polygon fill="#CECFD1" stroke="#CECFD1" stroke-width="0.7087" stroke-linecap="round" stroke-linejoin="round" stroke-miterlimit="10" points="
		1998.684,1101.237 2061.371,1101.237 2033.169,1182.351 2045.27,1186.558 2074.936,1101.237 2096.23,1101.237 2096.23,1106.837 
		2103.114,1106.837 2103.114,1150.737 2141.543,1150.737 2141.543,1106.837 2147.897,1106.837 2147.897,1084.623 2141.543,1084.623 
		2141.543,1040.723 2103.114,1040.723 2103.114,1084.623 2096.23,1084.623 2096.23,1090.223 2078.765,1090.223 2066.664,1086.016 
		2065.201,1090.223 1998.684,1090.223 1932.167,1090.223 1930.704,1086.016 1918.603,1090.223 1901.137,1090.223 1901.137,1084.623 
		1894.254,1084.623 1894.254,1040.723 1855.825,1040.723 1855.825,1084.623 1849.471,1084.623 1849.471,1106.837 1855.825,1106.837 
		1855.825,1150.737 1894.254,1150.737 1894.254,1106.837 1901.137,1106.837 1901.137,1101.237 1922.433,1101.237 1952.098,1186.558 
		1964.199,1182.351 1935.997,1101.237 	"/>
</g>
<g id="LWPOLYLINE_15_">
	
		<path fill="#CECFD1" stroke="#CECFD1" stroke-width="0.7087" stroke-linecap="round" stroke-linejoin="round" stroke-miterlimit="10" d="
		M1968.093,1208.146h61.181c10.799,0,19.553,8.754,19.553,19.553v82.586h-100.287v-82.586
		C1948.541,1216.9,1957.295,1208.146,1968.093,1208.146z"/>
</g>
<g id="CIRCLE">
	
		<path fill="#CECFD1" stroke="#CECFD1" stroke-width="0.7087" stroke-linecap="round" stroke-linejoin="round" stroke-miterlimit="10" d="
		M1590.407,1052.382c0-13.214-10.712-23.926-23.925-23.926c-13.214,0-23.926,10.712-23.926,23.926s10.712,23.926,23.926,23.926
		C1579.695,1076.308,1590.407,1065.596,1590.407,1052.382L1590.407,1052.382z"/>
</g>
<g id="LWPOLYLINE_4_">
	
		<path fill="#CECFD1" stroke="#CECFD1" stroke-width="0.7087" stroke-linecap="round" stroke-linejoin="round" stroke-miterlimit="10" d="
		M1511.455,1099.761c1.87-1.781,4.829-1.709,6.61,0.16c1.781,1.869,1.709,4.829-0.16,6.61l-45.007,42.881
		c-1.818,1.732-4.232,2.698-6.744,2.698c-5.399,0-9.776-4.377-9.776-9.776v-59.211h-8.363v5.6h-6.884v43.899h-43.949v-43.899h-6.354
		v-22.214h6.354v-43.9h43.949v43.9h6.884v5.6h84.159v11.014h-62.898v49.219c0,1.8,1.459,3.259,3.259,3.259
		c0.837,0,1.642-0.322,2.248-0.899L1511.455,1099.761z"/>
</g>
<g id="LWPOLYLINE_5_">
	
		<path fill="#CECFD1" stroke="#CECFD1" stroke-width="0.7087" stroke-linecap="round" stroke-linejoin="round" stroke-miterlimit="10" d="
		M1533.233,1203.746l-9.437-8.46c-1.262-1.132-3.182-1.106-4.414,0.059l-42.654,40.323c-0.651,0.616-1.02,1.473-1.02,2.368v89.752
		c0,1.8,1.459,3.259,3.259,3.259h13.493c1.8,0,3.259-1.459,3.259-3.259v-82.319c0-0.896,0.369-1.753,1.02-2.368l36.558-34.561
		c1.308-1.236,1.366-3.299,0.129-4.606C1533.364,1203.868,1533.3,1203.806,1533.233,1203.746z"/>
</g>
<g id="LWPOLYLINE_8_">
	
		<path fill="#CECFD1" stroke="#CECFD1" stroke-width="0.7087" stroke-linecap="round" stroke-linejoin="round" stroke-miterlimit="10" d="
		M1621.508,1099.761c-1.87-1.781-4.829-1.709-6.61,0.16c-1.781,1.869-1.709,4.829,0.16,6.61l45.007,42.881
		c3.909,3.724,10.097,3.575,13.822-0.334c1.732-1.818,2.698-4.232,2.698-6.744v-59.211h8.363v5.6h6.884v43.899h43.949v-43.899h6.354
		v-22.214h-6.354v-43.9h-43.949v43.9h-6.884v5.6h-84.159v11.014h62.898v49.219c0,0.837-0.322,1.642-0.899,2.248
		c-1.241,1.303-3.304,1.353-4.607,0.111L1621.508,1099.761z"/>
</g>
<g id="LWPOLYLINE_9_">
	
		<path fill="#CECFD1" stroke="#CECFD1" stroke-width="0.7087" stroke-linecap="round" stroke-linejoin="round" stroke-miterlimit="10" d="
		M1599.73,1203.746l9.437-8.46c1.262-1.132,3.182-1.106,4.414,0.059l42.653,40.323c0.651,0.616,1.02,1.473,1.02,2.368v89.752
		c0,1.8-1.459,3.259-3.259,3.259h-13.493c-1.8,0-3.259-1.459-3.259-3.259v-82.319c0-0.896-0.369-1.753-1.02-2.368l-36.558-34.561
		c-0.065-0.062-0.127-0.126-0.188-0.192C1598.277,1207.008,1598.39,1204.947,1599.73,1203.746z"/>
</g>
<g id="LWPOLYLINE_10_">
	
		<path fill="#CECFD1" stroke="#CECFD1" stroke-width="0.7087" stroke-linecap="round" stroke-linejoin="round" stroke-miterlimit="10" d="
		M2431.79,1213.138h14.74v5.711h17.425v-5.711h5.883l31.694,29.963c0.651,0.615,1.021,1.473,1.021,2.368v82.319
		c0,1.8,1.459,3.259,3.259,3.259h13.492c1.8,0,3.259-1.459,3.259-3.259v-89.752c0-0.896-0.369-1.752-1.021-2.368l-23.832-22.53
		h52.546v5.601h6.884v43.899h43.948v-43.899h6.354v-22.215h-6.354v-43.899h-43.948v43.899h-6.884v5.601h-64.196l-7.171-6.779
		c-1.231-1.165-3.151-1.19-4.414-0.059l-7.627,6.838h-2.893v-102.363h-17.425v102.363h-14.74h-14.74v-102.363h-17.426v102.363
		h-2.893l-7.627-6.838c-1.263-1.132-3.182-1.106-4.414,0.059l-7.17,6.779h-64.196v-5.601h-6.884v-43.899h-43.949v43.899h-6.354
		v22.215h6.354v43.899h43.949v-43.899h6.884v-5.601h52.545l-23.832,22.53c-0.651,0.616-1.021,1.473-1.021,2.368v89.752
		c0,1.8,1.459,3.259,3.26,3.259h13.492c1.8,0,3.259-1.459,3.259-3.259v-82.319c0-0.896,0.369-1.753,1.02-2.368l31.694-29.963h5.883
		v5.711h17.426v-5.711H2431.79z"/>
</g>
<g id="CIRCLE_1_">
	
		<path fill="#CECFD1" stroke="#CECFD1" stroke-width="0.7087" stroke-linecap="round" stroke-linejoin="round" stroke-miterlimit="10" d="
		M2455.716,1052.382c0-13.214-10.712-23.926-23.926-23.926s-23.926,10.712-23.926,23.926s10.712,23.926,23.926,23.926
		S2455.716,1065.596,2455.716,1052.382L2455.716,1052.382z"/>
</g>
<g>
	<g>
		<path fill="#FFFFFF" d="M2568.093,1644.972v16.675h60.718c0-18.812,15.247-34.056,34.061-34.056
			c18.807,0,34.059,15.244,34.059,34.056h60.719v-16.113h-34.616c-1.359-5.132-3.386-9.997-5.937-14.516l24.59-24.59l-23.189-23.197
			l-24.486,24.495c-4.497-2.603-9.347-4.659-14.465-6.082v-34.77h-32.789v34.61c-5.131,1.365-9.99,3.379-14.515,5.939
			l-24.594-24.584l-23.194,23.19l24.483,24.473c-2.6,4.503-4.653,9.354-6.07,14.471H2568.093z"/>
		<path fill="#1F1F19" d="M2757.648,1666.32h-60.719c-2.58,0-4.67-2.082-4.67-4.673c0-16.205-13.181-29.386-29.389-29.386
			c-16.207,0-29.388,13.181-29.388,29.386c0,2.592-2.093,4.673-4.673,4.673h-60.718c-2.581,0-4.674-2.082-4.674-4.673v-16.675
			c0-2.585,2.093-4.669,4.674-4.669h31.316c1.039-3.076,2.289-6.071,3.76-8.951l-22.006-22.021c-0.889-0.88-1.379-2.072-1.379-3.302
			c0-1.239,0.49-2.429,1.379-3.302l23.178-23.197c1.819-1.826,4.784-1.826,6.611,0l22.143,22.155
			c2.903-1.449,5.905-2.677,8.982-3.694v-31.117c0-2.578,2.099-4.677,4.679-4.677h32.789c2.58,0,4.682,2.099,4.682,4.677v31.313
			c3.061,1.031,6.056,2.292,8.943,3.759l22.013-22.002c1.823-1.828,4.781-1.828,6.609,0l23.194,23.17
			c0.874,0.876,1.367,2.074,1.367,3.313c0,1.235-0.493,2.433-1.367,3.294l-22.146,22.161c1.447,2.884,2.675,5.901,3.685,8.974
			h31.124c2.575,0,4.677,2.108,4.677,4.677v16.113C2762.325,1664.239,2760.224,1666.32,2757.648,1666.32z M2701.327,1656.978h51.651
			v-6.767h-29.946c-2.114,0-3.964-1.424-4.517-3.472c-1.243-4.663-3.085-9.188-5.488-13.417c-1.033-1.834-0.723-4.123,0.763-5.601
			l21.282-21.293l-16.576-16.579l-21.181,21.171c-1.495,1.501-3.813,1.805-5.647,0.744c-4.199-2.433-8.691-4.315-13.365-5.61
			c-2.022-0.576-3.415-2.41-3.415-4.51v-30.093h-23.465v29.934c0,2.115-1.417,3.972-3.461,4.511
			c-4.674,1.25-9.191,3.099-13.429,5.495c-1.819,1.031-4.111,0.728-5.597-0.746l-21.289-21.305l-16.58,16.59l21.175,21.167
			c1.494,1.509,1.805,3.823,0.744,5.658c-2.435,4.2-4.323,8.703-5.621,13.369c-0.558,2.018-2.403,3.419-4.499,3.419h-30.101v7.336
			h51.651c2.311-19.164,18.677-34.063,38.454-34.063C2682.646,1622.915,2699.007,1637.813,2701.327,1656.978z"/>
	</g>
	<g>
		<rect x="2549.503" y="1669.485" fill="#FD9B00" width="236.531" height="19.234"/>
	</g>
	<g>
		<path fill="#1F1F19" d="M2796.129,1701.215h-256.734c-2.573,0-4.675-2.092-4.675-4.666v-34.903c0-2.58,2.102-4.669,4.675-4.669
			h256.734c2.582,0,4.682,2.089,4.682,4.669v34.903C2800.811,1699.124,2798.711,1701.215,2796.129,1701.215z M2544.066,1691.876
			h247.404v-25.556h-247.404V1691.876z"/>
	</g>
	<g>
		<rect x="2539.395" y="1699.756" fill="#FFFFFF" width="256.734" height="165.088"/>
		<path fill="#1F1F19" d="M2796.129,1869.521h-256.734c-2.573,0-4.675-2.092-4.675-4.678v-165.088c0-2.578,2.102-4.67,4.675-4.67
			h256.734c2.582,0,4.682,2.092,4.682,4.67v165.088C2800.811,1867.43,2798.711,1869.521,2796.129,1869.521z M2544.066,1860.178
			h247.404v-155.745h-247.404V1860.178z"/>
	</g>
	<g>
		<rect x="2562.864" y="1718.275" fill="#FD9B00" width="212.566" height="124.482"/>
	</g>
	<g>
		<path fill="#FFFFFF" d="M2725.665,1679.098c0,2.766-2.245,5.021-5.017,5.021c-2.776,0-5.023-2.256-5.023-5.021
			c0-2.773,2.247-5.017,5.023-5.017C2723.42,1674.082,2725.665,1676.325,2725.665,1679.098z"/>
	</g>
	<g>
		<path fill="#FFFFFF" d="M2751.096,1679.098c0,2.766-2.24,5.021-5.015,5.021c-2.776,0-5.023-2.256-5.023-5.021
			c0-2.773,2.247-5.017,5.023-5.017C2748.855,1674.082,2751.096,1676.325,2751.096,1679.098z"/>
	</g>
	<g>
		<path fill="#FFFFFF" d="M2773.458,1679.098c0,2.766-2.248,5.021-5.015,5.021c-2.776,0-5.028-2.256-5.028-5.021
			c0-2.773,2.252-5.017,5.028-5.017C2771.21,1674.082,2773.458,1676.325,2773.458,1679.098z"/>
	</g>
	<g>
		<g>
			<path fill="#FFFFFF" d="M2631.002,1819.778c-1.18,0-2.384-0.462-3.294-1.38l-36.102-36.079c-0.879-0.887-1.363-2.078-1.363-3.32
				c0-1.234,0.484-2.424,1.363-3.297l37.525-37.529c1.826-1.823,4.78-1.823,6.607,0c1.817,1.819,1.817,4.796,0,6.615L2601.517,1779
				l32.798,32.792c1.828,1.826,1.828,4.787,0,6.606C2633.406,1819.316,2632.208,1819.778,2631.002,1819.778z"/>
		</g>
		<g>
			<path fill="#FFFFFF" d="M2704.523,1819.778c-1.196,0-2.388-0.462-3.298-1.38c-1.825-1.819-1.825-4.78,0-6.606l32.788-32.792
				l-34.23-34.211c-1.817-1.819-1.817-4.795,0-6.615c1.83-1.823,4.794-1.823,6.619,0l37.523,37.529
				c0.874,0.873,1.364,2.063,1.364,3.297c0,1.243-0.49,2.433-1.364,3.32l-36.104,36.079
				C2706.912,1819.316,2705.723,1819.778,2704.523,1819.778z"/>
		</g>
	</g>
	<g>
		<path fill="#FFFFFF" d="M2639.968,1833.501c-0.663,0-1.345-0.146-1.995-0.461c-2.33-1.105-3.32-3.891-2.219-6.227l45.796-96.108
			c1.104-2.33,3.888-3.313,6.223-2.196c2.332,1.102,3.313,3.893,2.214,6.212l-45.803,96.119
			C2643.39,1832.515,2641.713,1833.501,2639.968,1833.501z"/>
	</g>
</g>
<g>
	<g>
		<g>
			<g>
				<rect x="946.167" y="1546.217" fill="#FFFFFF" width="302.314" height="246.589"/>
				<path fill="#1F1F19" d="M1248.48,1797.918H946.167c-2.835,0-5.125-2.288-5.125-5.112v-246.589c0-2.822,2.29-5.108,5.125-5.108
					h302.314c2.827,0,5.112,2.286,5.112,5.108v246.589C1253.592,1795.63,1251.308,1797.918,1248.48,1797.918z M951.273,1787.694
					h292.093v-236.352H951.273V1787.694z"/>
			</g>
			<g>
				<rect x="973.785" y="1620.222" fill="#012D6C" width="250.319" height="146.577"/>
			</g>
		</g>
	</g>
	<g>
		<rect x="1001.304" y="1644.677" fill="#FFFFFF" width="194.137" height="33.682"/>
	</g>
	<g>
		<rect x="1001.304" y="1693.506" fill="#FFFFFF" width="50.372" height="22.514"/>
	</g>
	<g>
		<rect x="1073.768" y="1693.506" fill="#FFFFFF" width="50.358" height="22.514"/>
	</g>
	<g>
		<rect x="1145.089" y="1693.506" fill="#FFFFFF" width="50.353" height="22.514"/>
	</g>
	<g>
		<polyline fill="#FFFFFF" points="943.765,1809.749 985.854,1767.665 1003.722,1785.529 1021.207,1710.417 946.089,1727.91 
			964.371,1746.189 922.281,1788.266 		"/>
		<path fill="#1F1F19" d="M943.765,1814.866c-1.31,0-2.622-0.494-3.619-1.499c-1.998-1.998-1.998-5.245,0-7.245l42.082-42.077
			c2-1.992,5.25-1.992,7.237,0l11.358,11.36l13.542-58.146l-58.146,13.534l11.77,11.775c1.99,1.998,1.99,5.237,0,7.236l-42.09,42.07
			c-1.996,2.015-5.245,2.015-7.237,0c-1.998-1.983-1.998-5.224,0-7.229l38.479-38.458l-14.671-14.661
			c-1.313-1.313-1.799-3.231-1.296-5.024c0.515-1.776,1.953-3.161,3.754-3.571l75.121-17.496c1.716-0.401,3.528,0.113,4.785,1.36
			c1.241,1.254,1.756,3.059,1.36,4.775l-17.496,75.11c-0.417,1.817-1.783,3.252-3.576,3.77c-1.785,0.503-3.709,0.015-5.019-1.314
			l-14.249-14.246l-38.482,38.474C946.376,1814.372,945.064,1814.866,943.765,1814.866z"/>
	</g>
	<g>
		<rect x="973.785" y="1577.034" fill="#012D6C" width="250.319" height="27.259"/>
	</g>
</g>
<g>
	<g>
		<g>
			<path fill="#FFFFFF" d="M2222.058,622.548c0-74.015-60.019-134.019-134.019-134.019c-39.987,0-75.844,17.543-100.41,45.303
				c-4.83-0.606-9.761-0.961-14.756-0.961c-51.156,0-94.511,33.35-109.504,79.505c-7.831-2.672-16.219-4.143-24.945-4.143
				c-42.784,0-77.479,34.701-77.479,77.495c0,22.8,9.864,43.318,25.564,57.495l0,0c0,0,262.202,0,349.604,0l0,0
				C2186.357,723.896,2222.058,679.617,2222.058,622.548z"/>
			<path fill="#1F1F19" d="M2136.114,750.457H1786.51c-1.797,0-3.513-0.676-4.841-1.881c-17.761-16.05-27.961-38.946-27.961-62.847
				c0-46.724,38.007-84.728,84.716-84.728c6.907,0,13.755,0.86,20.42,2.52c18.241-46.882,63.228-77.887,114.029-77.887
				c3.861,0,7.844,0.192,11.894,0.601c26.684-28.596,64.102-44.937,103.271-44.937c77.887,0,141.228,63.371,141.228,141.25
				c0,57.11-34.695,105.932-90.569,127.409C2137.879,750.284,2137.004,750.457,2136.114,750.457z M1789.37,736.007h345.392
				c49.42-19.546,80.063-62.881,80.063-113.458c0-69.904-56.875-126.774-126.785-126.774c-36.286,0-70.899,15.62-94.986,42.841
				c-1.602,1.797-3.981,2.689-6.336,2.398c-4.742-0.612-9.398-0.915-13.843-0.915c-46.888,0-88.127,29.933-102.637,74.509
				c-0.59,1.831-1.912,3.365-3.65,4.225c-1.722,0.868-3.72,1.004-5.549,0.387c-7.308-2.479-14.91-3.742-22.613-3.742
				c-38.743,0-70.253,31.502-70.253,70.251C1768.171,704.645,1775.867,722.804,1789.37,736.007z"/>
		</g>
	</g>
	<g>
		<g>
			<path fill="#012D6C" d="M2185.303,635.404c0-61.242-49.649-110.899-110.891-110.899c-33.106,0-62.771,14.512-83.098,37.489
				c-4-0.503-8.078-0.802-12.209-0.802c-42.339,0-78.208,27.601-90.628,65.79c-6.477-2.201-13.423-3.414-20.641-3.414
				c-35.393,0-64.098,28.716-64.098,64.113c0,18.891,8.165,35.852,21.152,47.581l0,0c0,0,216.966,0,289.296,0l0,0
				C2155.771,719.262,2185.303,682.629,2185.303,635.404z"/>
		</g>
	</g>
	<g>
		<line fill="#FFFFFF" x1="1943.563" y1="629.895" x2="1943.563" y2="772.679"/>
		<path fill="#1F1F19" d="M1943.563,779.909c-4.005,0-7.243-3.237-7.243-7.23V629.895c0-3.994,3.238-7.243,7.243-7.243
			c3.994,0,7.231,3.249,7.231,7.243v142.784C1950.794,776.671,1947.557,779.909,1943.563,779.909z"/>
	</g>
	<g>
		<line fill="#FFFFFF" x1="2027.594" y1="813.334" x2="2027.594" y2="670.551"/>
		<path fill="#1F1F19" d="M2027.594,820.567c-3.988,0-7.226-3.228-7.226-7.233V670.551c0-3.983,3.237-7.222,7.226-7.222
			c3.998,0,7.226,3.239,7.226,7.222v142.783C2034.82,817.339,2031.592,820.567,2027.594,820.567z"/>
	</g>
	<g>
		<polygon fill="#FFFFFF" points="2064.662,673.973 1992.354,673.973 2028.508,615.888 		"/>
		<path fill="#1F1F19" d="M2064.685,681.199c-0.011,0-0.022,0-0.022,0h-72.308c-2.625,0-5.04-1.42-6.306-3.718
			c-1.292-2.289-1.213-5.093,0.161-7.32l36.152-58.1c1.311-2.111,3.635-3.416,6.146-3.416c2.5,0,4.813,1.305,6.139,3.416
			l35.805,57.556c0.915,1.187,1.459,2.715,1.459,4.356C2071.911,677.973,2068.685,681.199,2064.685,681.199z M2005.375,666.747
			h46.266l-23.133-37.185L2005.375,666.747z"/>
	</g>
	<g>
		<polygon fill="#FFFFFF" points="1907.397,766.054 1979.709,766.054 1943.563,824.124 		"/>
		<path fill="#1F1F19" d="M1943.563,831.369c-2.5,0-4.824-1.292-6.135-3.405l-36.157-58.113c-1.396-2.212-1.465-5.029-0.171-7.316
			c1.269-2.289,3.695-3.72,6.298-3.72h72.312c2.622,0,5.048,1.431,6.329,3.72c1.247,2.288,1.19,5.104-0.205,7.316l-36.126,58.113
			C1948.368,830.077,1946.059,831.369,1943.563,831.369z M1920.426,773.28l23.137,37.185l23.125-37.185H1920.426z"/>
	</g>
</g>
<g>
	<g>
		<polygon fill="#FFFFFF" points="917.402,1016.419 917.402,1270.894 1157.7,1270.894 1259.293,1345.829 1259.293,1270.894 
			1259.293,1016.419 		"/>
		<path fill="#1F1F19" d="M1259.293,1351.273c-1.105,0-2.214-0.355-3.147-1.041l-100.178-73.892H917.402
			c-2.966,0-5.366-2.438-5.366-5.447v-254.474c0-2.999,2.4-5.43,5.366-5.43h341.891c2.963,0,5.363,2.432,5.363,5.43v329.409
			c0,2.042-1.125,3.922-2.927,4.845C1260.958,1351.069,1260.111,1351.273,1259.293,1351.273z M922.76,1265.446h234.94
			c1.136,0,2.244,0.371,3.155,1.051l93.085,68.634v-313.255H922.76V1265.446z"/>
	</g>
	<g>
		<rect x="941.877" y="1038.14" fill="#FD9B00" width="292.247" height="208.438"/>
	</g>
	<g>
		<line fill="#FFFFFF" x1="974.992" y1="1080.254" x2="1174.381" y2="1080.254"/>
		<path fill="#FFFFFF" d="M1174.381,1085.683H974.992c-2.962,0-5.371-2.438-5.371-5.429c0-3.017,2.409-5.448,5.371-5.448h199.389
			c2.96,0,5.357,2.431,5.357,5.448C1179.738,1083.244,1177.341,1085.683,1174.381,1085.683z"/>
	</g>
	<g>
		<line fill="#FFFFFF" x1="972.625" y1="1129.112" x2="1172.014" y2="1129.112"/>
		<path fill="#FFFFFF" d="M1172.014,1134.555H972.625c-2.97,0-5.368-2.44-5.368-5.443c0-3.013,2.398-5.453,5.368-5.453h199.389
			c2.96,0,5.36,2.44,5.36,5.453C1177.374,1132.115,1174.974,1134.555,1172.014,1134.555z"/>
	</g>
	<g>
		<line fill="#FFFFFF" x1="974.992" y1="1181.125" x2="1089.042" y2="1181.125"/>
		<path fill="#FFFFFF" d="M1089.042,1186.57h-114.05c-2.962,0-5.371-2.43-5.371-5.445c0-3,2.409-5.44,5.371-5.44h114.05
			c2.952,0,5.354,2.44,5.354,5.44C1094.396,1184.141,1091.994,1186.57,1089.042,1186.57z"/>
	</g>
	<g>
		<path fill="#FFFFFF" d="M1084.172,1233.184v13.394h48.025c0-15.109,12.063-27.361,26.945-27.361
			c14.89,0,26.954,12.252,26.954,27.361h48.028v-12.933h-27.379c-1.086-4.123-2.676-8.028-4.707-11.684l19.457-19.755
			l-18.343-18.634l-19.371,19.669c-3.547-2.078-7.391-3.729-11.437-4.87v-27.942h-25.957v27.814
			c-4.038,1.103-7.895,2.718-11.479,4.77l-19.454-19.76l-18.346,18.644l19.379,19.669c-2.069,3.616-3.687,7.512-4.817,11.619
			H1084.172z"/>
	</g>
</g>
<g>
	<g>
		<g>
			<path fill="#1F1F19" d="M2555.585,630.199"/>
		</g>
		<g>
			<path fill="#1F1F19" d="M2554.579,642.365c-0.676-3.734-1.557-7.48-2.604-11.121l7.227-2.086
				c1.123,3.885,2.057,7.881,2.777,11.871L2554.579,642.365z"/>
		</g>
		<g>
			<path fill="#1F1F19" d="M2438.232,782.009l-0.051-0.006c-4.025-0.195-8.09-0.609-12.121-1.207l-0.049-0.018l0.006-0.043
				l1.135-7.396l0.041,0.016c3.75,0.574,7.566,0.955,11.355,1.133l0.047,0.016v0.045L2438.232,782.009z M2451.244,781.951
				l-0.447-7.51h0.043c3.793-0.221,7.619-0.643,11.357-1.244h0.043l0.014,0.041l1.195,7.379h-0.063
				c-3.975,0.643-8.051,1.09-12.102,1.334H2451.244z M2413.263,778.119l-0.037-0.006c-3.928-1.057-7.828-2.313-11.615-3.752
				l-0.029-0.023l2.672-7.029l0.041,0.023c3.553,1.35,7.213,2.533,10.873,3.51l0.041,0.012l-0.006,0.047L2413.263,778.119z
				 M2476.169,777.839l-0.014-0.051l-2.002-7.191l0.051-0.025c3.666-1.02,7.309-2.225,10.836-3.6l0.039-0.023l0.012,0.047
				l2.729,6.963l-0.045,0.018c-3.752,1.465-7.643,2.756-11.564,3.844L2476.169,777.839z M2389.679,769.048l-0.041-0.02
				c-3.602-1.848-7.141-3.904-10.551-6.105l-0.037-0.033l4.102-6.299l0.035,0.018c3.178,2.063,6.504,3.99,9.879,5.723l0.047,0.029
				L2389.679,769.048z M2499.665,768.552l-0.018-0.035l-3.484-6.621l0.053-0.023c3.351-1.762,6.654-3.713,9.832-5.82l0.037-0.023
				l0.027,0.041l4.119,6.24l-0.043,0.021c-3.373,2.236-6.9,4.332-10.484,6.197L2499.665,768.552z M2368.531,755.214l-0.037-0.027
				c-3.117-2.563-6.17-5.311-9.023-8.18l-0.035-0.035l5.316-5.314l0.045,0.035c2.654,2.672,5.508,5.248,8.441,7.656h0.086
				l-0.055,0.074L2368.531,755.214z M2520.669,754.535l-0.031-0.029l-4.771-5.754l0.035-0.021c2.922-2.432,5.742-5.043,8.396-7.748
				l0.043-0.027l0.025,0.027l5.336,5.234l-0.031,0.035c-2.861,2.898-5.873,5.684-8.961,8.26L2520.669,754.535z M2350.75,737.265
				l-0.033-0.029c-2.525-3.166-4.918-6.486-7.121-9.885l-0.018-0.035l6.314-4.088l0.023,0.047c2.078,3.199,4.326,6.314,6.678,9.258
				l0.029,0.035L2350.75,737.265z M2538.298,736.429l-5.906-4.639l0.029-0.041c2.346-2.994,4.564-6.121,6.598-9.324l0.023-0.043
				l0.029,0.029l6.322,4l-0.027,0.035c-2.166,3.426-4.537,6.773-7.045,9.943L2538.298,736.429z M2337.123,716.019l-0.027-0.051
				c-1.807-3.619-3.455-7.373-4.893-11.162l-0.02-0.049l7.045-2.666l0.006,0.053c1.346,3.529,2.881,7.045,4.57,10.432l0.039,0.063
				L2337.123,716.019z M2551.743,715.042l-0.039-0.021l-6.709-3.277l0.018-0.049c1.666-3.398,3.172-6.926,4.496-10.5l0.012-0.039
				l0.045,0.006l7.01,2.59l-0.014,0.037c-1.396,3.801-3.016,7.566-4.789,11.209L2551.743,715.042z M2328.261,692.349l-0.012-0.047
				c-1.006-3.939-1.822-7.951-2.416-11.943l-0.012-0.045l0.047-0.012l7.391-1.111l0.006,0.049c0.566,3.746,1.328,7.516,2.268,11.193
				l0.006,0.051l-0.041,0.006L2328.261,692.349z M2560.384,691.302l-7.295-1.811l0.006-0.041c0.91-3.672,1.648-7.441,2.172-11.205
				l0.012-0.047l7.438,1.127l0,0c-0.561,3.973-1.342,7.982-2.316,11.926L2560.384,691.302z M2324.601,667.359l-0.012-0.051
				c-0.066-1.619-0.084-3.244-0.084-4.85c0-2.434,0.066-4.898,0.205-7.332l0.006-0.041l7.512,0.449v0.045
				c-0.152,2.309-0.207,4.629-0.207,6.879c0,1.5,0.025,3.031,0.09,4.547v0.053L2324.601,667.359z M2563.833,666.267h-0.051
				l-7.465-0.221l0.006-0.068c0.025-1.146,0.045-2.33,0.045-3.52c0-2.613-0.082-5.252-0.256-7.844l-0.01-0.098l0.039-0.01
				l7.777-0.535l-0.313,0.109c0.188,2.771,0.283,5.582,0.283,8.377c0,1.336-0.018,2.576-0.057,3.764V666.267z M2333.623,643.427
				l-7.414-1.277l0.012-0.055c0.682-3.988,1.582-7.984,2.666-11.881l0.018-0.039l7.242,2.008l-0.016,0.051
				c-1.012,3.66-1.854,7.402-2.496,11.143L2333.623,643.427z M2340.062,620.642l-6.975-2.813l0.018-0.033
				c1.506-3.742,3.234-7.465,5.123-11.063l0.027-0.051l6.656,3.521l-0.027,0.029c-1.764,3.35-3.371,6.838-4.799,10.359
				L2340.062,620.642z M2351.193,599.707l-0.063-0.006l-6.184-4.186l0.029-0.037c2.268-3.354,4.734-6.625,7.332-9.729l0.023-0.033
				l5.779,4.82l-0.031,0.023c-2.445,2.916-4.748,5.992-6.867,9.135L2351.193,599.707z M2366.429,581.607l-0.035-0.027l-5.184-5.385
				l0.041-0.035c2.922-2.807,6.018-5.498,9.201-7.992l0.035-0.029l4.637,5.92l-0.043,0.027c-2.979,2.342-5.879,4.855-8.629,7.494
				L2366.429,581.607z M2385.121,567.076l-0.029-0.043l-3.934-6.352l0.041-0.018c3.434-2.127,7.029-4.111,10.658-5.885l0.049-0.025
				l0.023,0.049l3.271,6.725l-0.049,0.012c-3.41,1.66-6.768,3.51-9.988,5.52L2385.121,567.076z M2406.449,556.789l-2.537-7.086
				l0.049-0.006c3.83-1.355,7.752-2.545,11.664-3.506l0.049-0.01l1.799,7.305l-0.051,0.006c-3.689,0.902-7.367,2.012-10.943,3.289
				L2406.449,556.789z M2464.546,552.125l-0.047-0.012c-3.699-0.68-7.516-1.17-11.324-1.477v-0.047h-0.049l0.592-7.451h0.049
				c4.049,0.313,8.113,0.854,12.082,1.574l0.051,0.012l-0.006,0.045L2464.546,552.125z M2429.496,551.234l-0.006-0.051l-0.045,0.016
				l-0.975-7.365h0.012l-0.012-0.047l0.051-0.012c3.998-0.521,8.092-0.846,12.145-0.955l0.043-0.006v0.039l0.219,7.475h-0.051
				C2437.066,550.439,2433.228,550.746,2429.496,551.234z"/>
		</g>
		<g>
			<path fill="#1F1F19" d="M2477.941,551.507"/>
		</g>
	</g>
	<g>
		<g>
			<path fill="#016481" d="M2566.237,588.853v-14.795h-15.607c-0.611-2.309-1.518-4.498-2.678-6.537l11.088-11.088l-10.451-10.457
				l-11.045,11.039c-2.021-1.17-4.213-2.098-6.512-2.736v-15.678h-14.785v15.605c-2.314,0.613-4.512,1.523-6.553,2.684
				l-11.08-11.098l-10.455,10.455l11.035,11.043c-1.169,2.025-2.097,4.219-2.74,6.512h-15.674v14.795h15.604
				c0.621,2.32,1.529,4.51,2.678,6.539l-11.078,11.086l10.449,10.457l11.037-11.039c2.021,1.172,4.213,2.1,6.521,2.74v15.68h14.779
				v-15.605c2.322-0.625,4.514-1.527,6.545-2.67l11.09,11.076l10.455-10.463l-11.041-11.035c1.178-2.018,2.104-4.207,2.74-6.51
				H2566.237z M2523.511,594.435c-7.24,0-13.102-5.881-13.102-13.105c0-7.238,5.861-13.104,13.102-13.104
				c7.232,0,13.104,5.865,13.104,13.104C2536.614,588.554,2530.743,594.435,2523.511,594.435z"/>
		</g>
	</g>
	<g>
		<g>
			<path fill="#FFFFFF" d="M2538.86,662.458c0,16.686-4.326,32.365-11.891,45.988c-13.463,24.162-37.179,41.824-65.304,47.064
				c-5.652,1.059-11.496,1.609-17.471,1.609c-5.264,0-10.432-0.42-15.449-1.27c-29.068-4.762-53.67-22.764-67.428-47.604
				c-7.516-13.561-11.789-29.166-11.789-45.789c0-16.699,4.324-32.373,11.896-45.988c13.781-24.75,38.322-42.656,67.32-47.404
				c5.018-0.852,10.186-1.271,15.449-1.271c5.975,0,11.818,0.545,17.471,1.611c28.172,5.248,51.962,22.98,65.4,47.24
				C2534.587,630.226,2538.86,645.837,2538.86,662.458z"/>
			<path fill="#1F1F19" d="M2444.195,760.873c-5.434,0-10.846-0.439-16.08-1.318c-29.816-4.885-55.377-22.92-70.088-49.479
				c-8.016-14.48-12.258-30.943-12.258-47.617c0-16.746,4.277-33.277,12.365-47.82c14.74-26.443,40.258-44.408,69.994-49.283
				c11.121-1.865,23.115-1.74,34.234,0.355c28.896,5.385,53.681,23.285,68,49.117c8.016,14.496,12.252,30.959,12.252,47.631
				c0,16.727-4.266,33.258-12.359,47.814c-14.342,25.73-39.093,43.566-67.904,48.934
				C2456.466,760.314,2450.351,760.873,2444.195,760.873z M2444.195,571.56c-5.02,0-10.01,0.404-14.83,1.217
				c-27.486,4.498-51.051,21.098-64.654,45.52c-7.473,13.428-11.42,28.693-11.42,44.162c0,15.402,3.908,30.605,11.318,43.977
				c13.395,24.162,37.594,41.256,64.732,45.707c10.322,1.727,21.391,1.607,31.623-0.332c26.611-4.951,49.474-21.426,62.714-45.197
				c7.469-13.428,11.42-28.701,11.42-44.154c0-15.4-3.916-30.605-11.318-43.994c-13.223-23.85-36.121-40.383-62.804-45.355
				C2455.525,572.078,2449.884,571.56,2444.195,571.56z"/>
		</g>
		<g>
			<path fill="#008E97" d="M2519.722,662.458c0,41.682-33.794,75.471-75.476,75.471c-41.684,0-75.477-33.789-75.477-75.471
				c0-41.684,33.793-75.473,75.477-75.473C2485.927,586.986,2519.722,620.775,2519.722,662.458z"/>
		</g>
		<g>
			<path fill="#016481" d="M2525.378,662.458c0,44.807-36.32,81.127-81.132,81.127c-44.807,0-81.127-36.32-81.127-81.127
				c0-44.805,36.32-81.129,81.127-81.129C2489.058,581.33,2525.378,617.654,2525.378,662.458z"/>
		</g>
		<g>
			<path fill="#1F1F19" d="M2428.732,759.66l-0.604-0.105c-29.83-4.885-55.391-22.92-70.102-49.479
				c-8.016-14.48-12.258-30.943-12.258-47.617c0-16.746,4.277-33.277,12.365-47.82c14.74-26.443,40.258-44.408,69.994-49.283
				l0.604-0.098l0.609,0.098c6.117,0.988,12.232,2.604,18.15,4.793c25.355,9.416,45.934,29.1,56.478,54.025
				c5.125,12.141,7.719,25.012,7.719,38.285c0,13.318-2.619,26.242-7.764,38.4c-10.556,24.871-31.125,44.506-56.421,53.908
				c-5.936,2.189-12.045,3.805-18.162,4.787L2428.732,759.66z M2428.746,572.876c-27.207,4.643-50.527,21.168-64.035,45.42
				c-7.473,13.428-11.42,28.693-11.42,44.162c0,15.402,3.908,30.605,11.318,43.977c13.291,23.994,37.234,40.994,64.137,45.607
				c5.439-0.93,10.869-2.375,16.148-4.33c23.359-8.674,42.35-26.82,52.105-49.787c4.757-11.223,7.167-23.154,7.167-35.467
				c0-12.262-2.398-24.148-7.117-35.357c-9.75-23.021-28.758-41.213-52.172-49.895
				C2439.615,575.25,2434.185,573.796,2428.746,572.876z"/>
		</g>
		<g>
			<path fill="#1F1F19" d="M2461.666,759.326l-0.689-0.119c-5.492-1.023-10.91-2.518-16.098-4.439
				c-25.662-9.527-46.381-29.533-56.818-54.879c-4.885-11.865-7.367-24.455-7.367-37.43c0-13.012,2.494-25.645,7.412-37.541
				c10.455-25.291,31.146-45.25,56.773-54.77c5.178-1.916,10.6-3.414,16.098-4.438l0.689-0.129l0.686,0.129
				c28.908,5.385,53.693,23.285,68.011,49.117c8.016,14.496,12.252,30.959,12.252,47.631c0,16.727-4.266,33.258-12.359,47.814
				c-14.342,25.73-39.093,43.566-67.904,48.934L2461.666,759.326z M2461.666,573.238c-4.84,0.939-9.602,2.268-14.162,3.969
				c-23.676,8.781-42.787,27.219-52.445,50.586c-4.545,10.979-6.842,22.643-6.842,34.666c0,11.979,2.291,23.619,6.801,34.563
				c9.643,23.422,28.771,41.893,52.486,50.691c4.57,1.693,9.33,3.025,14.162,3.967c26.313-5.104,48.88-21.5,62.013-45.066
				c7.469-13.428,11.42-28.701,11.42-44.154c0-15.4-3.916-30.605-11.318-43.994C2510.671,594.822,2488.064,578.365,2461.666,573.238
				z"/>
		</g>
		<g>
			<g>
				<path fill="#1F1F19" d="M2444.445,635.412c-18.941,0-37.502-1.863-53.662-5.377c-12.041-2.615-22.473-6.043-31-10.178
					l-3.582-1.742l1.934-3.477c14.74-26.443,40.258-44.408,69.994-49.283c11.121-1.865,23.115-1.74,34.234,0.355
					c28.896,5.385,53.681,23.285,68,49.117l1.934,3.49l-3.594,1.727c-7.633,3.652-16.83,6.783-27.33,9.252
					C2484.359,633.292,2464.681,635.412,2444.445,635.412z M2366.775,614.787c7.262,3.129,15.859,5.777,25.6,7.893
					c15.654,3.41,33.662,5.211,52.07,5.211c19.662,0,38.758-2.045,55.203-5.906c8.301-1.965,15.707-4.318,22.074-7.041
					c-13.461-21.961-35.398-37.117-60.746-41.834c-10.271-1.939-21.336-2.061-31.611-0.332
					C2403.224,577.052,2380.628,592.275,2366.775,614.787z"/>
			</g>
			<g>
				<path fill="#1F1F19" d="M2444.195,760.873c-5.434,0-10.846-0.439-16.08-1.318c-29.816-4.885-55.377-22.92-70.088-49.479
					l-1.928-3.496l3.598-1.725c8.578-4.105,19.027-7.496,31.053-10.072c16.102-3.451,34.492-5.277,53.195-5.277
					c20.461,0,40.303,2.154,57.382,6.23c10.477,2.48,19.662,5.629,27.283,9.326l3.578,1.738l-1.939,3.473
					c-14.336,25.73-39.087,43.566-67.898,48.934C2456.466,760.314,2450.351,760.873,2444.195,760.873z M2366.673,709.96
					c13.732,22.301,36.871,37.951,62.668,42.182c10.322,1.727,21.391,1.607,31.623-0.332c25.279-4.699,47.171-19.805,60.656-41.686
					c-6.355-2.732-13.746-5.111-22.029-7.076c-16.525-3.939-35.765-6.027-55.646-6.027c-18.184,0-36.025,1.775-51.617,5.113
					C2382.585,704.22,2373.974,706.851,2366.673,709.96z"/>
			</g>
		</g>
	</g>
</g>
<g>
	<path fill="#6D6E71" d="M872.454,1418.822v13.2h-37.666v15.3h34.568v12.2h-34.568v17.5h38.465v13.2h-54.151v-71.4H872.454z"/>
	<path fill="#6D6E71" d="M899.429,1418.822l29.773,47.9h0.2v-47.9h14.687v71.4h-15.686l-29.673-47.8h-0.2v47.8h-14.687v-71.4
		H899.429z"/>
	<path fill="#6D6E71" d="M952.28,1432.022v-13.2h58.447v13.2h-21.38v58.2h-15.686v-58.2H952.28z"/>
	<path fill="#6D6E71" d="M1057.384,1418.822c3.197,0,6.077,0.517,8.642,1.55c2.563,1.035,4.761,2.45,6.594,4.25
		c1.832,1.8,3.23,3.884,4.196,6.25c0.965,2.367,1.449,4.917,1.449,7.65c0,4.2-0.883,7.834-2.647,10.9
		c-1.766,3.067-4.646,5.4-8.642,7v0.2c1.931,0.535,3.529,1.35,4.795,2.45c1.265,1.1,2.298,2.4,3.097,3.9s1.382,3.15,1.749,4.95
		c0.365,1.8,0.615,3.6,0.75,5.4c0.065,1.134,0.132,2.467,0.2,4c0.065,1.534,0.183,3.1,0.35,4.7c0.166,1.6,0.433,3.117,0.799,4.55
		c0.365,1.434,0.915,2.65,1.648,3.65h-15.686c-0.867-2.266-1.399-4.966-1.599-8.1c-0.2-3.133-0.5-6.133-0.899-9
		c-0.534-3.733-1.666-6.465-3.397-8.2c-1.732-1.733-4.563-2.6-8.492-2.6h-15.686v27.9h-15.686v-71.4H1057.384z M1051.789,1451.122
		c3.597,0,6.294-0.8,8.093-2.4s2.698-4.2,2.698-7.8c0-3.466-0.899-5.983-2.698-7.55c-1.798-1.565-4.496-2.35-8.093-2.35h-17.184
		v20.1H1051.789z"/>
	<path fill="#6D6E71" d="M1106.738,1418.822v71.4h-15.686v-71.4H1106.738z"/>
	<path fill="#6D6E71" d="M1173.876,1418.822v13.2h-37.666v15.3h34.568v12.2h-34.568v17.5h38.465v13.2h-54.151v-71.4H1173.876z"/>
	<path fill="#6D6E71" d="M1197.255,1472.622c0.865,1.667,2.014,3.017,3.447,4.05c1.432,1.034,3.113,1.8,5.045,2.3
		c1.931,0.5,3.929,0.75,5.995,0.75c1.399,0,2.897-0.116,4.496-0.35c1.599-0.233,3.097-0.683,4.496-1.35
		c1.399-0.666,2.563-1.583,3.497-2.75c0.932-1.166,1.398-2.65,1.398-4.45c0-1.933-0.616-3.5-1.848-4.7c-1.233-1.2-2.847-2.2-4.846-3
		c-1.998-0.8-4.263-1.5-6.793-2.1c-2.532-0.6-5.096-1.266-7.693-2c-2.665-0.666-5.262-1.482-7.793-2.45
		c-2.532-0.966-4.795-2.216-6.793-3.75c-1.999-1.533-3.614-3.45-4.846-5.75c-1.233-2.3-1.849-5.083-1.849-8.35
		c0-3.666,0.782-6.85,2.348-9.55c1.564-2.7,3.612-4.95,6.145-6.75c2.53-1.8,5.395-3.133,8.592-4c3.197-0.866,6.395-1.3,9.591-1.3
		c3.729,0,7.309,0.417,10.74,1.25c3.43,0.834,6.477,2.185,9.142,4.05c2.663,1.867,4.778,4.25,6.344,7.15
		c1.564,2.9,2.348,6.417,2.348,10.55h-15.186c-0.134-2.133-0.584-3.9-1.349-5.3c-0.766-1.4-1.783-2.5-3.047-3.3
		c-1.266-0.8-2.715-1.365-4.346-1.7c-1.633-0.333-3.414-0.5-5.345-0.5c-1.266,0-2.532,0.134-3.796,0.4
		c-1.266,0.267-2.415,0.734-3.447,1.4c-1.034,0.667-1.883,1.5-2.548,2.5c-0.667,1-0.999,2.267-0.999,3.8
		c0,1.4,0.265,2.534,0.799,3.4c0.532,0.867,1.581,1.667,3.147,2.4c1.564,0.734,3.729,1.467,6.494,2.2
		c2.763,0.734,6.377,1.667,10.84,2.8c1.332,0.267,3.18,0.75,5.545,1.45c2.363,0.7,4.711,1.817,7.043,3.35
		c2.331,1.535,4.346,3.584,6.044,6.15c1.699,2.567,2.548,5.85,2.548,9.85c0,3.268-0.634,6.3-1.898,9.1
		c-1.266,2.8-3.147,5.217-5.645,7.25c-2.498,2.035-5.595,3.617-9.292,4.75c-3.696,1.133-7.977,1.7-12.838,1.7
		c-3.931,0-7.743-0.484-11.439-1.45c-3.697-0.965-6.961-2.483-9.791-4.55c-2.832-2.066-5.08-4.7-6.744-7.9
		c-1.666-3.2-2.465-7-2.397-11.4h15.186C1195.956,1468.922,1196.389,1470.957,1197.255,1472.622z"/>
</g>
<g>
	<path fill="#6D6E71" d="M2614.87,1383.976l16.685,49.1h0.2l15.785-49.1h22.08v71.4h-14.688v-50.6h-0.199l-17.484,50.6h-12.089
		l-17.483-50.1h-0.2v50.1h-14.687v-71.4H2614.87z"/>
	<path fill="#6D6E71" d="M2736.759,1383.976v13.2h-37.666v15.3h34.568v12.2h-34.568v17.5h38.465v13.2h-54.15v-71.4H2736.759z"/>
	<path fill="#6D6E71" d="M2801.499,1383.976v13.2h-37.666v15.3h34.568v12.2h-34.568v17.5h38.465v13.2h-54.15v-71.4H2801.499z"/>
	<path fill="#6D6E71" d="M2807.294,1397.175v-13.2h58.446v13.2h-21.38v58.2h-15.687v-58.2H2807.294z"/>
	<path fill="#6D6E71" d="M2415.253,1503.976l16.685,49.1h0.2l15.786-49.1h22.08v71.4h-14.687v-50.6h-0.2l-17.484,50.6h-12.089
		l-17.484-50.1h-0.2v50.1h-14.687v-71.4H2415.253z"/>
	<path fill="#6D6E71" d="M2519.358,1503.976l26.676,71.4h-16.285l-5.395-15.9h-26.676l-5.595,15.9h-15.786l26.975-71.4H2519.358z
		 M2520.258,1547.775l-8.992-26.2h-0.2l-9.291,26.2H2520.258z"/>
	<path fill="#6D6E71" d="M2567.813,1503.976l29.773,47.9h0.199v-47.9h14.688v71.4h-15.686l-29.674-47.8h-0.199v47.8h-14.688v-71.4
		H2567.813z"/>
	<path fill="#6D6E71" d="M2661.829,1503.976l26.676,71.4h-16.285l-5.396-15.9h-26.676l-5.595,15.9h-15.786l26.976-71.4H2661.829z
		 M2662.728,1547.775l-8.992-26.2h-0.199l-9.291,26.2H2662.728z"/>
	<path fill="#6D6E71" d="M2736.96,1574.826c-3.396,1.433-6.828,2.15-10.291,2.15c-5.462,0-10.375-0.95-14.736-2.85
		c-4.363-1.9-8.043-4.516-11.04-7.85c-2.997-3.333-5.295-7.25-6.894-11.75s-2.398-9.35-2.398-14.55c0-5.333,0.8-10.283,2.398-14.85
		c1.599-4.565,3.896-8.55,6.894-11.95c2.997-3.4,6.677-6.065,11.04-8c4.361-1.933,9.274-2.9,14.736-2.9
		c3.662,0,7.209,0.55,10.641,1.65c3.43,1.1,6.527,2.717,9.291,4.85c2.764,2.134,5.046,4.767,6.845,7.9
		c1.798,3.135,2.897,6.734,3.297,10.8h-14.986c-0.934-4-2.731-7-5.396-9s-5.895-3-9.691-3c-3.531,0-6.527,0.684-8.991,2.05
		c-2.466,1.367-4.464,3.2-5.995,5.5c-1.533,2.3-2.646,4.917-3.347,7.85c-0.699,2.935-1.049,5.967-1.049,9.1
		c0,3,0.35,5.917,1.049,8.75c0.7,2.834,1.813,5.384,3.347,7.65c1.531,2.267,3.529,4.084,5.995,5.45
		c2.464,1.367,5.46,2.05,8.991,2.05c5.195,0,9.207-1.315,12.039-3.95c2.83-2.633,4.479-6.45,4.945-11.45h-15.785v-11.7h29.973v38.6
		h-9.99l-1.6-8.1C2743.454,1570.875,2740.356,1573.393,2736.96,1574.826z"/>
	<path fill="#6D6E71" d="M2823.88,1503.976v13.2h-37.666v15.3h34.568v12.2h-34.568v17.5h38.465v13.2h-54.15v-71.4H2823.88z"/>
	<path fill="#6D6E71" d="M2857.349,1503.976l16.686,49.1h0.199l15.785-49.1h22.08v71.4h-14.687v-50.6h-0.2l-17.483,50.6h-12.089
		l-17.484-50.1h-0.199v50.1h-14.688v-71.4H2857.349z"/>
	<path fill="#6D6E71" d="M2979.237,1503.976v13.2h-37.665v15.3h34.568v12.2h-34.568v17.5h38.465v13.2h-54.151v-71.4H2979.237z"/>
	<path fill="#6D6E71" d="M3006.213,1503.976l29.772,47.9h0.2v-47.9h14.687v71.4h-15.686l-29.673-47.8h-0.2v47.8h-14.687v-71.4
		H3006.213z"/>
	<path fill="#6D6E71" d="M3059.064,1517.175v-13.2h58.446v13.2h-21.38v58.2h-15.687v-58.2H3059.064z"/>
</g>
<g>
	<path fill="#6D6E71" d="M616.567,890.762l29.773,47.9h0.2v-47.9h14.687v71.4h-15.686l-29.673-47.8h-0.2v47.8h-14.687v-71.4H616.567
		z"/>
	<path fill="#6D6E71" d="M674.314,911.912c1.599-4.565,3.896-8.55,6.894-11.95c2.998-3.4,6.677-6.065,11.04-8
		c4.362-1.933,9.274-2.9,14.737-2.9c5.528,0,10.456,0.967,14.787,2.9c4.329,1.935,7.993,4.6,10.99,8
		c2.998,3.4,5.295,7.385,6.894,11.95c1.599,4.567,2.397,9.517,2.397,14.85c0,5.2-0.799,10.05-2.397,14.55s-3.896,8.417-6.894,11.75
		c-2.997,3.334-6.661,5.95-10.99,7.85c-4.331,1.9-9.259,2.85-14.787,2.85c-5.462,0-10.375-0.95-14.737-2.85
		c-4.363-1.9-8.042-4.516-11.04-7.85c-2.997-3.333-5.295-7.25-6.894-11.75s-2.398-9.35-2.398-14.55
		C671.917,921.429,672.716,916.479,674.314,911.912z M688.651,935.512c0.7,2.834,1.814,5.384,3.347,7.65
		c1.531,2.267,3.529,4.084,5.995,5.45c2.463,1.367,5.46,2.05,8.992,2.05c3.53,0,6.527-0.683,8.992-2.05
		c2.463-1.366,4.461-3.183,5.995-5.45c1.531-2.266,2.647-4.815,3.347-7.65c0.699-2.833,1.049-5.75,1.049-8.75
		c0-3.133-0.35-6.166-1.049-9.1c-0.7-2.933-1.816-5.55-3.347-7.85c-1.533-2.3-3.531-4.133-5.995-5.5
		c-2.465-1.366-5.462-2.05-8.992-2.05c-3.531,0-6.528,0.684-8.992,2.05c-2.465,1.367-4.463,3.2-5.995,5.5
		c-1.533,2.3-2.647,4.917-3.347,7.85c-0.699,2.935-1.049,5.967-1.049,9.1C687.603,929.762,687.952,932.679,688.651,935.512z"/>
	<path fill="#6D6E71" d="M774.823,890.762l16.685,49.1h0.2l15.786-49.1h22.08v71.4h-14.687v-50.6h-0.2l-17.484,50.6h-12.089
		l-17.484-50.1h-0.2v50.1h-14.687v-71.4H774.823z"/>
	<path fill="#6D6E71" d="M859.046,890.762v71.4H843.36v-71.4H859.046z"/>
	<path fill="#6D6E71" d="M888.419,890.762l29.773,47.9h0.2v-47.9h14.687v71.4h-15.686l-29.673-47.8h-0.2v47.8h-14.687v-71.4H888.419
		z"/>
	<path fill="#6D6E71" d="M982.434,890.762l26.676,71.4h-16.285l-5.395-15.9h-26.676l-5.595,15.9h-15.786l26.976-71.4H982.434z
		 M983.333,934.562l-8.992-26.2h-0.2l-9.292,26.2H983.333z"/>
	<path fill="#6D6E71" d="M1000.518,903.962v-13.2h58.447v13.2h-21.38v58.2h-15.686v-58.2H1000.518z"/>
	<path fill="#6D6E71" d="M1082.842,890.762v71.4h-15.686v-71.4H1082.842z"/>
	<path fill="#6D6E71" d="M1095.93,911.912c1.599-4.565,3.896-8.55,6.894-11.95c2.998-3.4,6.677-6.065,11.04-8
		c4.362-1.933,9.274-2.9,14.737-2.9c5.528,0,10.456,0.967,14.787,2.9c4.329,1.935,7.993,4.6,10.99,8
		c2.998,3.4,5.295,7.385,6.894,11.95c1.599,4.567,2.397,9.517,2.397,14.85c0,5.2-0.799,10.05-2.397,14.55s-3.896,8.417-6.894,11.75
		c-2.997,3.334-6.661,5.95-10.99,7.85c-4.331,1.9-9.259,2.85-14.787,2.85c-5.462,0-10.375-0.95-14.737-2.85
		c-4.363-1.9-8.042-4.516-11.04-7.85c-2.997-3.333-5.295-7.25-6.894-11.75s-2.398-9.35-2.398-14.55
		C1093.532,921.429,1094.331,916.479,1095.93,911.912z M1110.267,935.512c0.7,2.834,1.814,5.384,3.347,7.65
		c1.531,2.267,3.529,4.084,5.995,5.45c2.463,1.367,5.46,2.05,8.992,2.05c3.53,0,6.527-0.683,8.992-2.05
		c2.463-1.366,4.461-3.183,5.995-5.45c1.531-2.266,2.647-4.815,3.347-7.65c0.699-2.833,1.049-5.75,1.049-8.75
		c0-3.133-0.35-6.166-1.049-9.1c-0.7-2.933-1.816-5.55-3.347-7.85c-1.533-2.3-3.531-4.133-5.995-5.5
		c-2.465-1.366-5.462-2.05-8.992-2.05c-3.531,0-6.528,0.684-8.992,2.05c-2.465,1.367-4.463,3.2-5.995,5.5
		c-1.533,2.3-2.647,4.917-3.347,7.85c-0.699,2.935-1.049,5.967-1.049,9.1C1109.218,929.762,1109.567,932.679,1110.267,935.512z"/>
	<path fill="#6D6E71" d="M1189.944,890.762l29.773,47.9h0.2v-47.9h14.687v71.4h-15.686l-29.673-47.8h-0.2v47.8h-14.687v-71.4
		H1189.944z"/>
	<path fill="#6D6E71" d="M1260.38,944.562c0.865,1.667,2.014,3.017,3.447,4.05c1.432,1.034,3.113,1.8,5.045,2.3
		c1.931,0.5,3.929,0.75,5.995,0.75c1.399,0,2.897-0.116,4.496-0.35c1.599-0.233,3.097-0.683,4.496-1.35
		c1.399-0.666,2.563-1.583,3.497-2.75c0.932-1.166,1.398-2.65,1.398-4.45c0-1.933-0.616-3.5-1.848-4.7c-1.233-1.2-2.847-2.2-4.846-3
		c-1.998-0.8-4.263-1.5-6.793-2.1c-2.532-0.6-5.096-1.266-7.693-2c-2.665-0.666-5.262-1.482-7.793-2.45
		c-2.532-0.966-4.795-2.216-6.793-3.75c-1.999-1.533-3.614-3.45-4.846-5.75c-1.233-2.3-1.849-5.083-1.849-8.35
		c0-3.666,0.782-6.85,2.348-9.55c1.564-2.7,3.612-4.95,6.145-6.75c2.53-1.8,5.395-3.133,8.592-4c3.197-0.866,6.395-1.3,9.591-1.3
		c3.729,0,7.309,0.417,10.74,1.25c3.43,0.834,6.477,2.185,9.142,4.05c2.663,1.867,4.778,4.25,6.344,7.15
		c1.564,2.9,2.348,6.417,2.348,10.55h-15.186c-0.134-2.133-0.584-3.9-1.349-5.3c-0.766-1.4-1.783-2.5-3.047-3.3
		c-1.266-0.8-2.715-1.365-4.346-1.7c-1.633-0.333-3.414-0.5-5.345-0.5c-1.266,0-2.532,0.134-3.796,0.4
		c-1.266,0.267-2.415,0.734-3.447,1.4c-1.034,0.667-1.883,1.5-2.548,2.5c-0.667,1-0.999,2.267-0.999,3.8
		c0,1.4,0.265,2.534,0.799,3.4c0.532,0.867,1.581,1.667,3.147,2.4c1.564,0.734,3.729,1.467,6.494,2.2
		c2.763,0.734,6.377,1.667,10.84,2.8c1.332,0.267,3.18,0.75,5.545,1.45c2.363,0.7,4.711,1.817,7.043,3.35
		c2.331,1.535,4.346,3.584,6.044,6.15c1.699,2.567,2.548,5.85,2.548,9.85c0,3.268-0.634,6.3-1.898,9.1
		c-1.266,2.8-3.147,5.217-5.645,7.25c-2.498,2.035-5.595,3.617-9.292,4.75c-3.696,1.133-7.977,1.7-12.838,1.7
		c-3.931,0-7.743-0.484-11.439-1.45c-3.697-0.965-6.961-2.483-9.791-4.55c-2.832-2.066-5.08-4.7-6.744-7.9
		c-1.666-3.2-2.465-7-2.397-11.4h15.186C1259.081,940.862,1259.514,942.896,1260.38,944.562z"/>
</g>
<g>
	<g>
		<polygon fill="#FFFFFF" points="3097.37,888.368 3097.37,1142.842 2857.072,1142.842 2755.479,1217.777 2755.479,1142.842 
			2755.479,888.368 		"/>
		<path fill="#1F1F19" d="M2753.043,1222.622c-1.802-0.922-2.927-2.802-2.927-4.845V888.368c0-2.999,2.4-5.43,5.363-5.43h341.891
			c2.966,0,5.366,2.432,5.366,5.43v254.474c0,3.008-2.4,5.447-5.366,5.447h-238.565l-100.179,73.892
			c-0.933,0.686-2.041,1.041-3.146,1.041C2754.661,1223.222,2753.814,1223.018,2753.043,1222.622z M3092.013,893.825h-331.181
			v313.255l93.085-68.634c0.911-0.68,2.02-1.051,3.155-1.051h234.94V893.825z"/>
	</g>
	<g>
		<rect x="2780.647" y="910.088" fill="#FD9B00" width="292.248" height="208.438"/>
	</g>
	<g>
		<line fill="#FFFFFF" x1="3039.78" y1="952.203" x2="2840.392" y2="952.203"/>
		<path fill="#FFFFFF" d="M2840.392,957.631h199.389c2.962,0,5.371-2.438,5.371-5.429c0-3.017-2.409-5.448-5.371-5.448h-199.389
			c-2.96,0-5.357,2.431-5.357,5.448C2835.034,955.193,2837.432,957.631,2840.392,957.631z"/>
	</g>
	<g>
		<line fill="#FFFFFF" x1="3042.147" y1="1001.061" x2="2842.759" y2="1001.061"/>
		<path fill="#FFFFFF" d="M2842.759,1006.504h199.389c2.97,0,5.367-2.44,5.367-5.443c0-3.013-2.397-5.453-5.367-5.453h-199.389
			c-2.96,0-5.36,2.44-5.36,5.453C2837.398,1004.064,2839.799,1006.504,2842.759,1006.504z"/>
	</g>
	<g>
		<line fill="#FFFFFF" x1="3039.78" y1="1053.074" x2="2925.729" y2="1053.074"/>
		<path fill="#FFFFFF" d="M2925.729,1058.519h114.051c2.962,0,5.371-2.43,5.371-5.445c0-3-2.409-5.44-5.371-5.44h-114.051
			c-2.951,0-5.354,2.44-5.354,5.44C2920.376,1056.089,2922.778,1058.519,2925.729,1058.519z"/>
	</g>
</g>
<g>
	<path fill="#6D6E71" d="M2712.553,766.688c3.196,0,6.077,0.517,8.642,1.55c2.564,1.035,4.762,2.45,6.594,4.25
		c1.832,1.8,3.23,3.884,4.197,6.25c0.965,2.367,1.448,4.917,1.448,7.65c0,4.2-0.884,7.834-2.647,10.9
		c-1.766,3.067-4.646,5.4-8.643,7v0.2c1.932,0.535,3.529,1.35,4.796,2.45c1.265,1.1,2.298,2.4,3.097,3.9
		c0.8,1.5,1.383,3.15,1.749,4.95c0.365,1.8,0.615,3.6,0.749,5.4c0.066,1.134,0.133,2.467,0.2,4c0.065,1.534,0.183,3.1,0.35,4.7
		c0.165,1.6,0.433,3.117,0.8,4.55c0.365,1.434,0.914,2.65,1.648,3.65h-15.686c-0.867-2.266-1.399-4.966-1.6-8.1
		c-0.199-3.133-0.499-6.133-0.898-9c-0.534-3.733-1.666-6.465-3.397-8.2c-1.732-1.733-4.563-2.6-8.492-2.6h-15.686v27.9h-15.687
		v-71.4H2712.553z M2706.958,798.987c3.597,0,6.294-0.8,8.092-2.4c1.799-1.6,2.698-4.2,2.698-7.8c0-3.466-0.899-5.983-2.698-7.55
		c-1.798-1.565-4.495-2.35-8.092-2.35h-17.185v20.1H2706.958z"/>
	<path fill="#6D6E71" d="M2799.571,766.688v13.2h-37.665v15.3h34.568v12.2h-34.568v17.5h38.465v13.2h-54.151v-71.4H2799.571z"/>
	<path fill="#6D6E71" d="M2822.95,820.487c0.865,1.667,2.014,3.017,3.447,4.05c1.432,1.034,3.112,1.8,5.045,2.3
		c1.932,0.5,3.93,0.75,5.994,0.75c1.399,0,2.898-0.116,4.496-0.35c1.6-0.233,3.098-0.683,4.496-1.35
		c1.398-0.666,2.563-1.583,3.497-2.75c0.933-1.166,1.398-2.65,1.398-4.45c0-1.933-0.616-3.5-1.849-4.7c-1.232-1.2-2.847-2.2-4.846-3
		c-1.998-0.8-4.263-1.5-6.793-2.1c-2.532-0.6-5.096-1.266-7.693-2c-2.664-0.666-5.262-1.482-7.793-2.45
		c-2.531-0.966-4.795-2.216-6.793-3.75c-1.999-1.533-3.615-3.45-4.846-5.75c-1.234-2.3-1.85-5.083-1.85-8.35
		c0-3.666,0.783-6.85,2.349-9.55c1.563-2.7,3.612-4.95,6.145-6.75c2.53-1.8,5.396-3.133,8.592-4c3.197-0.866,6.395-1.3,9.591-1.3
		c3.73,0,7.31,0.417,10.74,1.25c3.431,0.834,6.478,2.185,9.143,4.05c2.663,1.867,4.778,4.25,6.344,7.15
		c1.564,2.9,2.348,6.417,2.348,10.55h-15.186c-0.135-2.133-0.584-3.9-1.35-5.3s-1.782-2.5-3.047-3.3
		c-1.266-0.8-2.715-1.365-4.346-1.7c-1.633-0.333-3.414-0.5-5.346-0.5c-1.266,0-2.531,0.134-3.796,0.4
		c-1.267,0.267-2.415,0.734-3.446,1.4c-1.034,0.667-1.883,1.5-2.549,2.5s-0.998,2.267-0.998,3.8c0,1.4,0.265,2.534,0.799,3.4
		c0.532,0.867,1.581,1.667,3.146,2.4c1.564,0.734,3.73,1.467,6.494,2.2c2.764,0.734,6.377,1.667,10.841,2.8
		c1.331,0.267,3.18,0.75,5.545,1.45c2.363,0.7,4.712,1.817,7.044,3.35c2.33,1.535,4.346,3.584,6.044,6.15
		c1.698,2.567,2.548,5.85,2.548,9.85c0,3.268-0.634,6.3-1.898,9.1c-1.266,2.8-3.146,5.217-5.645,7.25
		c-2.498,2.035-5.596,3.617-9.292,4.75s-7.978,1.7-12.839,1.7c-3.93,0-7.742-0.484-11.439-1.45c-3.696-0.965-6.961-2.483-9.791-4.55
		c-2.832-2.066-5.079-4.7-6.744-7.9c-1.665-3.2-2.465-7-2.396-11.4h15.186C2821.651,816.788,2822.084,818.822,2822.95,820.487z"/>
	<path fill="#6D6E71" d="M2928.253,832.637c-5.395,4.7-12.855,7.05-22.379,7.05c-9.658,0-17.135-2.333-22.43-7
		c-5.295-4.666-7.943-11.866-7.943-21.6v-44.4h15.686v44.4c0,1.935,0.166,3.834,0.5,5.7c0.332,1.867,1.031,3.517,2.098,4.95
		c1.064,1.435,2.549,2.6,4.446,3.5c1.898,0.9,4.446,1.35,7.644,1.35c5.595,0,9.457-1.25,11.589-3.75s3.197-6.416,3.197-11.75v-44.4
		h15.687v44.4C2936.347,820.754,2933.648,827.938,2928.253,832.637z"/>
	<path fill="#6D6E71" d="M2965.52,766.688v58.2h34.769v13.2h-50.455v-71.4H2965.52z"/>
	<path fill="#6D6E71" d="M2994.292,779.887v-13.2h58.447v13.2h-21.381v58.2h-15.686v-58.2H2994.292z"/>
	<path fill="#6D6E71" d="M3072.92,820.487c0.864,1.667,2.014,3.017,3.446,4.05c1.432,1.034,3.113,1.8,5.046,2.3
		c1.931,0.5,3.929,0.75,5.995,0.75c1.398,0,2.896-0.116,4.496-0.35c1.598-0.233,3.097-0.683,4.495-1.35
		c1.399-0.666,2.563-1.583,3.497-2.75c0.932-1.166,1.398-2.65,1.398-4.45c0-1.933-0.616-3.5-1.848-4.7c-1.234-1.2-2.848-2.2-4.846-3
		c-1.998-0.8-4.264-1.5-6.794-2.1c-2.532-0.6-5.096-1.266-7.693-2c-2.665-0.666-5.263-1.482-7.793-2.45
		c-2.532-0.966-4.796-2.216-6.794-3.75c-1.998-1.533-3.613-3.45-4.846-5.75c-1.232-2.3-1.848-5.083-1.848-8.35
		c0-3.666,0.781-6.85,2.348-9.55c1.564-2.7,3.612-4.95,6.145-6.75c2.53-1.8,5.395-3.133,8.592-4c3.197-0.866,6.395-1.3,9.592-1.3
		c3.729,0,7.309,0.417,10.74,1.25c3.43,0.834,6.477,2.185,9.142,4.05c2.663,1.867,4.778,4.25,6.345,7.15
		c1.563,2.9,2.348,6.417,2.348,10.55h-15.187c-0.134-2.133-0.584-3.9-1.349-5.3c-0.767-1.4-1.783-2.5-3.047-3.3
		c-1.267-0.8-2.715-1.365-4.347-1.7c-1.633-0.333-3.414-0.5-5.345-0.5c-1.267,0-2.533,0.134-3.797,0.4
		c-1.266,0.267-2.415,0.734-3.447,1.4c-1.033,0.667-1.883,1.5-2.547,2.5c-0.667,1-1,2.267-1,3.8c0,1.4,0.266,2.534,0.8,3.4
		c0.532,0.867,1.581,1.667,3.147,2.4c1.564,0.734,3.729,1.467,6.494,2.2c2.763,0.734,6.377,1.667,10.84,2.8
		c1.332,0.267,3.18,0.75,5.545,1.45c2.363,0.7,4.711,1.817,7.043,3.35c2.331,1.535,4.347,3.584,6.045,6.15
		c1.699,2.567,2.548,5.85,2.548,9.85c0,3.268-0.634,6.3-1.898,9.1c-1.267,2.8-3.147,5.217-5.646,7.25
		c-2.497,2.035-5.594,3.617-9.291,4.75c-3.696,1.133-7.977,1.7-12.838,1.7c-3.932,0-7.743-0.484-11.439-1.45
		c-3.697-0.965-6.961-2.483-9.791-4.55c-2.832-2.066-5.08-4.7-6.744-7.9c-1.666-3.2-2.465-7-2.398-11.4h15.187
		C3071.621,816.788,3072.054,818.822,3072.92,820.487z"/>
</g>
<g>
	<path fill="#6D6E71" d="M1442.55,871.688c3.197,0,6.077,0.517,8.642,1.55c2.563,1.035,4.761,2.45,6.594,4.25
		c1.832,1.8,3.23,3.884,4.196,6.25c0.965,2.367,1.449,4.917,1.449,7.65c0,4.2-0.883,7.834-2.647,10.9
		c-1.766,3.067-4.646,5.4-8.642,7v0.2c1.931,0.535,3.529,1.35,4.795,2.45c1.265,1.1,2.298,2.4,3.097,3.9s1.382,3.15,1.749,4.95
		c0.365,1.8,0.615,3.6,0.75,5.4c0.065,1.134,0.132,2.467,0.2,4c0.065,1.534,0.183,3.1,0.35,4.7c0.166,1.6,0.433,3.117,0.799,4.55
		c0.365,1.434,0.915,2.65,1.648,3.65h-15.686c-0.867-2.266-1.399-4.966-1.599-8.1c-0.2-3.133-0.5-6.133-0.899-9
		c-0.534-3.733-1.666-6.465-3.397-8.2c-1.732-1.733-4.563-2.6-8.492-2.6h-15.686v27.9h-15.686v-71.4H1442.55z M1436.955,903.988
		c3.597,0,6.294-0.8,8.093-2.4s2.698-4.2,2.698-7.8c0-3.466-0.899-5.983-2.698-7.55c-1.798-1.565-4.496-2.35-8.093-2.35h-17.184
		v20.1H1436.955z"/>
	<path fill="#6D6E71" d="M1529.569,871.688v13.2h-37.666v15.3h34.568v12.2h-34.568v17.5h38.465v13.2h-54.151v-71.4H1529.569z"/>
	<path fill="#6D6E71" d="M1576.526,871.688l26.676,71.4h-16.285l-5.395-15.9h-26.676l-5.595,15.9h-15.786l26.976-71.4H1576.526z
		 M1577.425,915.488l-8.992-26.2h-0.2l-9.292,26.2H1577.425z"/>
	<path fill="#6D6E71" d="M1625.082,871.688v58.2h34.769v13.2h-50.455v-71.4H1625.082z"/>
	<path fill="#6D6E71" d="M1690.821,884.888v-13.2h58.447v13.2h-21.38v58.2h-15.686v-58.2H1690.821z"/>
	<path fill="#6D6E71" d="M1773.145,871.688v71.4h-15.686v-71.4H1773.145z"/>
	<path fill="#6D6E71" d="M1809.012,871.688l16.685,49.1h0.2l15.786-49.1h22.08v71.4h-14.687v-50.6h-0.2l-17.484,50.6h-12.089
		l-17.484-50.1h-0.2v50.1h-14.687v-71.4H1809.012z"/>
	<path fill="#6D6E71" d="M1930.901,871.688v13.2h-37.666v15.3h34.568v12.2h-34.568v17.5h38.465v13.2h-54.151v-71.4H1930.901z"/>
	<path fill="#6D6E71" d="M2002.236,871.688c4.461,0,8.258,0.65,11.39,1.95c3.13,1.3,5.678,3.018,7.643,5.15
		c1.964,2.134,3.397,4.567,4.296,7.3c0.899,2.734,1.349,5.567,1.349,8.5c0,2.867-0.45,5.685-1.349,8.45
		c-0.899,2.767-2.333,5.217-4.296,7.35c-1.965,2.135-4.513,3.85-7.643,5.15c-3.131,1.3-6.928,1.95-11.39,1.95h-16.485v25.6h-15.686
		v-71.4H2002.236z M1997.94,905.288c1.798,0,3.529-0.133,5.195-0.4c1.664-0.266,3.13-0.783,4.396-1.55
		c1.264-0.766,2.281-1.85,3.047-3.25c0.765-1.4,1.149-3.233,1.149-5.5c0-2.266-0.384-4.1-1.149-5.5
		c-0.766-1.4-1.783-2.483-3.047-3.25c-1.266-0.766-2.732-1.283-4.396-1.55c-1.666-0.266-3.397-0.4-5.195-0.4h-12.189v21.4H1997.94z"
		/>
	<path fill="#6D6E71" d="M2075.169,871.688c3.197,0,6.077,0.517,8.642,1.55c2.563,1.035,4.761,2.45,6.594,4.25
		c1.832,1.8,3.23,3.884,4.196,6.25c0.965,2.367,1.449,4.917,1.449,7.65c0,4.2-0.883,7.834-2.647,10.9
		c-1.766,3.067-4.646,5.4-8.642,7v0.2c1.931,0.535,3.529,1.35,4.795,2.45c1.265,1.1,2.298,2.4,3.097,3.9s1.382,3.15,1.749,4.95
		c0.365,1.8,0.615,3.6,0.75,5.4c0.065,1.134,0.132,2.467,0.2,4c0.065,1.534,0.183,3.1,0.35,4.7c0.166,1.6,0.433,3.117,0.799,4.55
		c0.365,1.434,0.915,2.65,1.648,3.65h-15.686c-0.867-2.266-1.399-4.966-1.599-8.1c-0.2-3.133-0.5-6.133-0.899-9
		c-0.534-3.733-1.666-6.465-3.397-8.2c-1.732-1.733-4.563-2.6-8.492-2.6h-15.686v27.9h-15.686v-71.4H2075.169z M2069.574,903.988
		c3.597,0,6.294-0.8,8.093-2.4s2.698-4.2,2.698-7.8c0-3.466-0.899-5.983-2.698-7.55c-1.798-1.565-4.496-2.35-8.093-2.35h-17.184
		v20.1H2069.574z"/>
	<path fill="#6D6E71" d="M2108.138,892.838c1.599-4.565,3.896-8.55,6.894-11.95c2.998-3.4,6.677-6.065,11.04-8
		c4.362-1.933,9.274-2.9,14.737-2.9c5.528,0,10.456,0.967,14.787,2.9c4.329,1.935,7.993,4.6,10.99,8
		c2.998,3.4,5.295,7.385,6.894,11.95c1.599,4.567,2.397,9.517,2.397,14.85c0,5.2-0.799,10.05-2.397,14.55s-3.896,8.417-6.894,11.75
		c-2.997,3.334-6.661,5.95-10.99,7.85c-4.331,1.9-9.259,2.85-14.787,2.85c-5.462,0-10.375-0.95-14.737-2.85
		c-4.363-1.9-8.042-4.516-11.04-7.85c-2.997-3.333-5.295-7.25-6.894-11.75s-2.398-9.35-2.398-14.55
		C2105.74,902.355,2106.539,897.405,2108.138,892.838z M2122.475,916.438c0.7,2.834,1.814,5.384,3.347,7.65
		c1.531,2.267,3.529,4.084,5.995,5.45c2.463,1.367,5.46,2.05,8.992,2.05c3.53,0,6.527-0.683,8.992-2.05
		c2.463-1.366,4.461-3.183,5.995-5.45c1.531-2.266,2.647-4.815,3.347-7.65c0.699-2.833,1.049-5.75,1.049-8.75
		c0-3.133-0.35-6.166-1.049-9.1c-0.7-2.933-1.816-5.55-3.347-7.85c-1.533-2.3-3.531-4.133-5.995-5.5
		c-2.465-1.366-5.462-2.05-8.992-2.05c-3.531,0-6.528,0.684-8.992,2.05c-2.465,1.367-4.463,3.2-5.995,5.5
		c-1.533,2.3-2.647,4.917-3.347,7.85c-0.699,2.935-1.049,5.967-1.049,9.1C2121.426,910.688,2121.775,913.605,2122.475,916.438z"/>
	<path fill="#6D6E71" d="M2232.325,890.738c-0.934-1.5-2.098-2.815-3.497-3.95c-1.398-1.133-2.981-2.016-4.746-2.65
		c-1.766-0.633-3.614-0.95-5.545-0.95c-3.531,0-6.528,0.684-8.992,2.05c-2.465,1.367-4.463,3.2-5.995,5.5
		c-1.533,2.3-2.647,4.917-3.347,7.85c-0.699,2.935-1.049,5.967-1.049,9.1c0,3,0.35,5.917,1.049,8.75
		c0.7,2.834,1.814,5.384,3.347,7.65c1.531,2.267,3.529,4.084,5.995,5.45c2.463,1.367,5.46,2.05,8.992,2.05
		c4.795,0,8.542-1.466,11.24-4.4c2.698-2.933,4.346-6.8,4.945-11.6h15.187c-0.4,4.467-1.433,8.5-3.097,12.1
		c-1.666,3.6-3.864,6.667-6.594,9.2c-2.732,2.535-5.929,4.467-9.591,5.8c-3.664,1.333-7.693,2-12.089,2
		c-5.462,0-10.375-0.95-14.737-2.85c-4.363-1.9-8.042-4.516-11.04-7.85c-2.997-3.333-5.295-7.25-6.894-11.75
		s-2.398-9.35-2.398-14.55c0-5.333,0.799-10.283,2.398-14.85c1.599-4.565,3.896-8.55,6.894-11.95c2.998-3.4,6.677-6.065,11.04-8
		c4.362-1.933,9.274-2.9,14.737-2.9c3.929,0,7.643,0.567,11.14,1.7c3.497,1.134,6.627,2.784,9.392,4.95
		c2.763,2.167,5.045,4.85,6.844,8.05c1.798,3.2,2.93,6.867,3.397,11h-15.186C2233.856,893.888,2233.256,892.238,2232.325,890.738z"
		/>
	<path fill="#6D6E71" d="M2313.95,871.688v13.2h-37.666v15.3h34.568v12.2h-34.568v17.5h38.465v13.2h-54.151v-71.4H2313.95z"/>
	<path fill="#6D6E71" d="M2337.329,925.488c0.865,1.667,2.014,3.017,3.447,4.05c1.432,1.034,3.113,1.8,5.045,2.3
		c1.931,0.5,3.929,0.75,5.995,0.75c1.399,0,2.897-0.116,4.496-0.35c1.599-0.233,3.097-0.683,4.496-1.35
		c1.399-0.666,2.563-1.583,3.497-2.75c0.932-1.166,1.398-2.65,1.398-4.45c0-1.933-0.616-3.5-1.848-4.7c-1.233-1.2-2.847-2.2-4.846-3
		c-1.998-0.8-4.263-1.5-6.793-2.1c-2.532-0.6-5.096-1.266-7.693-2c-2.665-0.666-5.262-1.482-7.793-2.45
		c-2.532-0.966-4.795-2.216-6.793-3.75c-1.999-1.533-3.614-3.45-4.846-5.75c-1.233-2.3-1.849-5.083-1.849-8.35
		c0-3.666,0.782-6.85,2.348-9.55c1.564-2.7,3.612-4.95,6.145-6.75c2.53-1.8,5.395-3.133,8.592-4c3.197-0.866,6.395-1.3,9.591-1.3
		c3.729,0,7.309,0.417,10.74,1.25c3.43,0.834,6.477,2.185,9.142,4.05c2.663,1.867,4.778,4.25,6.344,7.15
		c1.564,2.9,2.348,6.417,2.348,10.55h-15.186c-0.134-2.133-0.584-3.9-1.349-5.3c-0.766-1.4-1.783-2.5-3.047-3.3
		c-1.266-0.8-2.715-1.365-4.346-1.7c-1.633-0.333-3.414-0.5-5.345-0.5c-1.266,0-2.532,0.134-3.796,0.4
		c-1.266,0.267-2.415,0.734-3.447,1.4c-1.034,0.667-1.883,1.5-2.548,2.5c-0.667,1-0.999,2.267-0.999,3.8
		c0,1.4,0.265,2.534,0.799,3.4c0.532,0.867,1.581,1.667,3.147,2.4c1.564,0.734,3.729,1.467,6.494,2.2
		c2.763,0.734,6.377,1.667,10.84,2.8c1.332,0.267,3.18,0.75,5.545,1.45c2.363,0.7,4.711,1.817,7.043,3.35
		c2.331,1.535,4.346,3.584,6.044,6.15c1.699,2.567,2.548,5.85,2.548,9.85c0,3.268-0.634,6.3-1.898,9.1
		c-1.266,2.8-3.147,5.217-5.645,7.25c-2.498,2.035-5.595,3.617-9.292,4.75c-3.696,1.133-7.977,1.7-12.838,1.7
		c-3.931,0-7.743-0.484-11.439-1.45c-3.697-0.965-6.961-2.483-9.791-4.55c-2.832-2.066-5.08-4.7-6.744-7.9
		c-1.666-3.2-2.465-7-2.397-11.4h15.186C2336.03,921.788,2336.462,923.822,2337.329,925.488z"/>
	<path fill="#6D6E71" d="M2402.168,925.488c0.865,1.667,2.014,3.017,3.447,4.05c1.432,1.034,3.113,1.8,5.045,2.3
		c1.931,0.5,3.929,0.75,5.995,0.75c1.399,0,2.897-0.116,4.496-0.35c1.599-0.233,3.097-0.683,4.496-1.35
		c1.399-0.666,2.563-1.583,3.497-2.75c0.932-1.166,1.398-2.65,1.398-4.45c0-1.933-0.616-3.5-1.848-4.7c-1.233-1.2-2.847-2.2-4.846-3
		c-1.998-0.8-4.263-1.5-6.793-2.1c-2.532-0.6-5.096-1.266-7.693-2c-2.665-0.666-5.262-1.482-7.793-2.45
		c-2.532-0.966-4.795-2.216-6.793-3.75c-1.999-1.533-3.614-3.45-4.846-5.75c-1.233-2.3-1.849-5.083-1.849-8.35
		c0-3.666,0.782-6.85,2.348-9.55c1.564-2.7,3.612-4.95,6.145-6.75c2.53-1.8,5.395-3.133,8.592-4c3.197-0.866,6.395-1.3,9.591-1.3
		c3.729,0,7.309,0.417,10.74,1.25c3.43,0.834,6.477,2.185,9.142,4.05c2.663,1.867,4.778,4.25,6.344,7.15
		c1.564,2.9,2.348,6.417,2.348,10.55h-15.186c-0.134-2.133-0.584-3.9-1.349-5.3c-0.766-1.4-1.783-2.5-3.047-3.3
		c-1.266-0.8-2.715-1.365-4.346-1.7c-1.633-0.333-3.414-0.5-5.345-0.5c-1.266,0-2.532,0.134-3.796,0.4
		c-1.266,0.267-2.415,0.734-3.447,1.4c-1.034,0.667-1.883,1.5-2.548,2.5c-0.667,1-0.999,2.267-0.999,3.8
		c0,1.4,0.265,2.534,0.799,3.4c0.532,0.867,1.581,1.667,3.147,2.4c1.564,0.734,3.729,1.467,6.494,2.2
		c2.763,0.734,6.377,1.667,10.84,2.8c1.332,0.267,3.18,0.75,5.545,1.45c2.363,0.7,4.711,1.817,7.043,3.35
		c2.331,1.535,4.346,3.584,6.044,6.15c1.699,2.567,2.548,5.85,2.548,9.85c0,3.268-0.634,6.3-1.898,9.1
		c-1.266,2.8-3.147,5.217-5.645,7.25c-2.498,2.035-5.595,3.617-9.292,4.75c-3.696,1.133-7.977,1.7-12.838,1.7
		c-3.931,0-7.743-0.484-11.439-1.45c-3.697-0.965-6.961-2.483-9.791-4.55c-2.832-2.066-5.08-4.7-6.744-7.9
		c-1.666-3.2-2.465-7-2.397-11.4h15.186C2400.87,921.788,2401.302,923.822,2402.168,925.488z"/>
	<path fill="#6D6E71" d="M2470.705,871.688v71.4h-15.686v-71.4H2470.705z"/>
	<path fill="#6D6E71" d="M2500.077,871.688l29.773,47.9h0.199v-47.9h14.688v71.4h-15.686l-29.674-47.8h-0.199v47.8h-14.687v-71.4
		H2500.077z"/>
	<path fill="#6D6E71" d="M2600.786,942.538c-3.396,1.433-6.828,2.15-10.291,2.15c-5.462,0-10.375-0.95-14.736-2.85
		c-4.363-1.9-8.043-4.516-11.04-7.85c-2.997-3.333-5.295-7.25-6.894-11.75s-2.398-9.35-2.398-14.55c0-5.333,0.8-10.283,2.398-14.85
		c1.599-4.565,3.896-8.55,6.894-11.95c2.997-3.4,6.677-6.065,11.04-8c4.361-1.933,9.274-2.9,14.736-2.9
		c3.662,0,7.209,0.55,10.641,1.65c3.43,1.1,6.527,2.717,9.291,4.85c2.764,2.134,5.046,4.767,6.845,7.9
		c1.798,3.135,2.897,6.734,3.297,10.8h-14.986c-0.934-4-2.731-7-5.396-9s-5.895-3-9.691-3c-3.531,0-6.527,0.684-8.991,2.05
		c-2.466,1.367-4.464,3.2-5.995,5.5c-1.533,2.3-2.646,4.917-3.347,7.85c-0.699,2.935-1.049,5.967-1.049,9.1
		c0,3,0.35,5.917,1.049,8.75c0.7,2.834,1.813,5.384,3.347,7.65c1.531,2.267,3.529,4.084,5.995,5.45
		c2.464,1.367,5.46,2.05,8.991,2.05c5.195,0,9.207-1.315,12.039-3.95c2.83-2.633,4.479-6.45,4.945-11.45h-15.785v-11.7h29.973v38.6
		h-9.99l-1.6-8.1C2607.28,938.588,2604.183,941.105,2600.786,942.538z"/>
</g>
<g>
</g>
<g>
</g>
<g>
</g>
<g>
</g>
<g>
</g>
<g>
</g>
</svg>
